<svg width="431" height="426" viewBox="0 0 431 426" fill="none" xmlns="http://www.w3.org/2000/svg">
<g clip-path="url(#clip0)">
<path d="M430.991 350.182C432.613 304.711 348.299 264.797 242.67 261.032C137.041 257.267 50.0971 291.078 48.4751 336.55C46.8531 382.021 131.167 421.935 236.796 425.7C342.425 429.465 429.369 395.654 430.991 350.182Z" fill="#011285"/>
<path d="M203.231 20.1851C186.207 60.6727 193.838 86.7256 217.32 84.3785C218.964 92.476 220.959 102.803 220.959 102.803L238.336 99.2826L236.457 36.3802L203.231 20.1851Z" fill="#7380F0"/>
<path d="M164.604 203.846L148.519 332.703L333.67 312.4L302.087 214.643C302.087 214.643 318.172 174.977 293.869 122.636C278.019 109.61 226.125 99.5174 226.125 99.5174C226.125 99.5174 202.996 95.2926 160.26 130.851C117.524 166.41 107.662 176.855 107.662 176.855L73.8488 97.5223L28.7646 105.385C28.7646 105.385 63.0474 205.02 86.9984 219.924C110.949 234.945 133.257 224.97 155.799 213C159.791 210.536 164.604 203.846 164.604 203.846Z" fill="#4867F9"/>
<path d="M196.421 18.8942C194.66 25.4661 200.531 32.1554 203.583 35.5587C211.215 44.1256 221.077 47.2942 227.065 48.5851C211.449 91.6545 228.708 129.56 251.603 136.484C271.562 142.469 298.213 125.688 307.253 103.742C322.986 65.9537 279.898 28.9868 276.493 26.1702C253.598 6.92397 222.955 2.1124 206.988 9.15372C204.405 10.2099 197.948 13.0264 196.421 18.8942Z" fill="#011285"/>
<path d="M216.733 84.3785C217.672 84.2612 218.846 84.0264 219.903 83.7917C223.66 82.8529 226.712 81.3273 228.826 79.919C225.303 84.3785 221.664 88.7207 218.142 93.1802C217.672 90.1289 217.202 87.195 216.733 84.3785Z" fill="black"/>
<path d="M164.604 203.846L192.782 172.278C193.486 171.456 194.66 172.512 194.073 173.334L163.548 212.413L164.604 203.846Z" fill="#011285"/>
<path d="M176.227 384.221L178.576 329.299C222.133 324.84 266.161 319.676 309.719 315.217C301.148 350.423 308.31 363.567 303.496 388.798L176.227 384.221Z" fill="#7380F0"/>
<path d="M1.29147 79.4496C1.29147 82.0314 3.40479 84.0264 5.98774 84.0264L58.4685 82.9702L58.9382 82.2661L59.4078 82.9702L112.945 81.9141C115.528 81.9141 117.524 79.8017 117.524 77.2198L116.35 8.44959C116.35 5.86777 114.237 3.87273 111.654 3.87273L58.1163 4.92892L57.6467 5.86777L57.0597 4.92892L4.57886 5.98512C1.99591 6.10248 0 8.21488 0 10.7967L1.29147 79.4496Z" fill="#37CA8E"/>
<path d="M61.7559 99.6347C61.7559 99.6347 63.3996 82.5008 48.8412 76.9851C44.3797 53.6314 42.5012 49.524 42.5012 49.524C42.5012 49.524 28.7646 67.9488 30.6431 79.567C32.5217 91.3025 40.5053 103.038 40.5053 103.038L61.7559 99.6347Z" fill="#7380F0"/>
<path d="M57.0596 5.04628L9.15771 -1.19582e-06C6.80958 -0.234712 4.69626 1.64297 4.69626 3.99008L6.10514 75.2248C6.10514 77.924 8.33587 80.1537 11.0362 80.2711L59.6426 82.9702L57.0596 5.04628Z" fill="#37CA8E"/>
<path d="M176.227 384.222C176.227 384.222 253.129 411.331 303.496 388.798C275.436 364.036 228.708 369.787 228.708 369.787L176.227 384.222Z" fill="#7380F0"/>
</g>
<defs>
<clipPath id="clip0">
<rect width="431" height="426" fill="white"/>
</clipPath>
</defs>
</svg>
