<svg width="88" height="39" viewBox="0 0 88 39" fill="none" xmlns="http://www.w3.org/2000/svg">
<g clip-path="url(#clip0)">
<path d="M6.6438 0H10.1378V0.485647H8.68195V4.45177H8.09962V0.485647H6.6438V0Z" fill="#141514"/>
<path d="M12.0966 0H12.6789V1.88863H14.77V0H15.3523V4.45177H14.77V2.37428H12.6789V4.45177H12.0966V0Z" fill="#141514"/>
<path d="M17.5757 0H20.3815V0.485647H18.158V1.88863H20.2226V2.37428H18.158V3.96612H20.5138V4.45177H17.5757V0Z" fill="#141514"/>
<path d="M10.0319 31.5948C9.05257 33.5644 7.43793 34.6167 5.32037 34.6167C2.32932 34.5897 0 32.3503 0 29.0857C0 25.821 2.43519 23.5547 5.32037 23.5547C7.57028 23.5547 9.23785 24.6339 9.95253 26.4146L8.28495 27.5478C7.54381 26.0099 6.48503 25.5512 5.34684 25.5512C3.59985 25.5512 2.1705 26.8733 2.1705 29.0857C2.1705 31.2981 3.54691 32.6201 5.34684 32.6201C6.90854 32.6201 7.72909 31.8107 8.4173 30.5156L10.0319 31.5948Z" fill="#141514"/>
<path d="M16.914 34.5888C14.2141 34.5888 11.4348 32.7002 11.4348 29.0578C11.4348 25.4425 14.2406 23.5269 16.914 23.5269C19.5874 23.5269 22.3932 25.4155 22.3932 29.0578C22.3932 32.7002 19.6139 34.5888 16.914 34.5888ZM20.2492 29.0848C20.2492 26.9534 18.7139 25.5504 16.914 25.5504C15.1141 25.5504 13.5788 26.9534 13.5788 29.0848C13.5788 31.2163 15.1141 32.6192 16.914 32.6192C18.7139 32.6192 20.2492 31.2163 20.2492 29.0848Z" fill="#141514"/>
<path d="M39.0425 34.292H36.9249V27.385C36.9249 26.1709 36.3691 25.4425 35.1515 25.4425C33.9074 25.4425 32.9016 26.3598 32.9016 28.5452V34.292H30.784V27.439C30.784 26.2519 30.2017 25.4425 29.0899 25.4425C27.8459 25.4425 26.7606 26.4677 26.7606 28.5452V34.292H24.6431V23.8506H26.7606V25.3615C27.3694 24.2553 28.5341 23.5808 29.7782 23.5808C31.1546 23.5808 32.1604 24.2014 32.5839 25.4425C33.2986 24.2014 34.4633 23.5808 35.8661 23.5808C37.8249 23.5808 39.0425 24.8219 39.0425 26.6836V34.292Z" fill="#141514"/>
<path d="M41.6895 23.8505H43.807V25.4423C44.4423 24.4171 45.8452 23.5537 47.4598 23.5537C50.0273 23.5537 52.1978 25.6312 52.1978 29.0847C52.1978 32.4842 50.0273 34.6157 47.2745 34.6157C45.7922 34.6157 44.4687 33.9412 43.807 32.8889V38.6358H41.6895V23.8505ZM43.6482 29.0847C43.6482 31.1892 45.0775 32.6191 46.8245 32.6191C48.5715 32.6191 50.0009 31.1892 50.0009 29.0847C50.0009 26.9802 48.5715 25.5503 46.8245 25.5503C45.0775 25.5503 43.6482 26.9532 43.6482 29.0847Z" fill="#141514"/>
<path d="M61.3827 34.2919C61.1445 33.9951 60.8533 33.4285 60.8004 32.4572C60.1386 33.8602 58.8946 34.5887 57.3858 34.5887C55.3212 34.5887 53.8918 33.2667 53.8918 31.351C53.8918 29.2466 55.5594 28.2213 57.5182 27.9245L60.7739 27.3849V26.9532C60.7739 25.7391 60.0328 25.1456 58.6299 25.1456C57.1741 25.1456 56.4859 25.7661 56.4859 26.5216C56.4859 26.6295 56.4859 26.6565 56.5388 26.8453L54.6595 27.4928C54.5271 27.1961 54.5006 26.9263 54.5006 26.6565C54.5006 25.0376 56.0623 23.5537 58.6299 23.5537C61.4356 23.5537 62.8915 24.8218 62.8915 27.0881V31.6748C62.8915 32.8889 63.0503 33.5095 63.5003 34.2919H61.3827ZM60.7474 29.2736V28.9768L57.9681 29.4624C56.6976 29.7052 55.9829 30.2718 55.9829 31.2431C55.9829 32.1874 56.6711 32.808 57.7034 32.808C59.5563 32.808 60.7474 31.2971 60.7474 29.2736Z" fill="#141514"/>
<path d="M74.6969 34.2919H72.5793V27.8166C72.5793 26.3867 71.7587 25.5233 70.3029 25.5233C68.8206 25.5233 67.603 26.7914 67.603 28.7609V34.2919H65.4855V23.8505H67.603V25.6042C68.3177 24.3901 69.6147 23.5537 71.097 23.5537C73.1087 23.5537 74.6704 24.8488 74.6704 27.1961V34.2919H74.6969Z" fill="#141514"/>
<path d="M77.3438 36.5584C77.5821 36.6663 77.9262 36.7742 78.2703 36.7742C78.7996 36.7742 79.1437 36.6123 79.5143 35.668L79.9908 34.3729L75.8086 23.8506H78.2173L81.1025 31.4051L83.9876 23.8506H86.317L81.3672 36.4235C80.7054 38.1232 79.7261 38.7708 78.482 38.7708C77.9262 38.7708 77.3703 38.6628 76.9997 38.5279L77.3438 36.5584Z" fill="#141514"/>
<path d="M1.13818 3.56152H3.25574V9.44326C3.99689 8.31008 5.34683 7.55463 6.82912 7.55463C9.52901 7.55463 11.6201 9.74004 11.6201 13.0856C11.6201 16.4312 9.4496 18.6166 6.72325 18.6166C5.05567 18.6166 3.83807 17.7532 3.25574 16.7819V18.3198H1.13818V3.56152ZM9.47607 13.1126C9.47607 11.0081 8.04672 9.57816 6.29973 9.57816C4.55275 9.57816 3.1234 11.0081 3.1234 13.1126C3.1234 15.2171 4.55275 16.647 6.29973 16.647C8.04672 16.647 9.47607 15.2171 9.47607 13.1126Z" fill="#141514"/>
<path d="M15.3523 13.5714C15.4317 15.4331 16.6493 16.7551 18.4757 16.7551C20.1433 16.7551 20.9374 15.8378 21.5462 14.5697L23.1873 15.568C22.2344 17.5645 20.7256 18.6168 18.4228 18.6168C15.617 18.6168 13.2347 16.3774 13.2347 13.1128C13.2347 9.84814 15.617 7.58179 18.5286 7.58179C21.5197 7.58179 23.5049 9.7672 23.5049 12.816V13.5714H15.3523ZM15.3523 11.9256H21.4668C21.3079 10.2259 19.9051 9.30853 18.4757 9.30853C16.9405 9.30853 15.7493 10.3878 15.3523 11.9256Z" fill="#141514"/>
<path d="M35.7339 18.3198H33.6163V16.62C32.9546 17.8072 31.7899 18.6166 30.2282 18.6166C27.4224 18.6166 25.252 16.4312 25.252 13.0856C25.252 9.74004 27.6607 7.55463 30.2017 7.55463C31.8164 7.55463 33.034 8.2831 33.6428 9.44326V3.56152H35.7603V18.3198H35.7339ZM33.7751 13.1126C33.7751 11.0081 32.3458 9.57816 30.5988 9.57816C28.8518 9.57816 27.4224 11.0081 27.4224 13.1126C27.4224 15.2171 28.8518 16.647 30.5988 16.647C32.3458 16.647 33.7751 15.2171 33.7751 13.1126Z" fill="#141514"/>
<path d="M37.7455 7.87835H39.4131V5.04541H41.5306V7.87835H43.8335V9.6051H41.5306V15.1631C41.5306 16.1883 41.9541 16.701 42.9335 16.701C43.1717 16.701 43.4894 16.647 43.7011 16.566L43.8864 18.3737C43.4894 18.5086 42.96 18.6166 42.3512 18.6166C40.7895 18.6166 39.4131 17.8881 39.4131 15.5138V9.57812H37.7455V7.87835Z" fill="#141514"/>
<path d="M45.8451 3.77734H48.2538V6.20558H45.8451V3.77734ZM46.0039 7.87837H48.1215V18.3468H46.0039V7.87837Z" fill="#141514"/>
<path d="M65.3532 18.3199H63.2356V11.4129C63.2356 10.1988 62.6797 9.47029 61.4621 9.47029C60.2181 9.47029 59.2122 10.3876 59.2122 12.573V18.3199H57.0947V11.4668C57.0947 10.2797 56.5123 9.47029 55.4006 9.47029C54.1565 9.47029 53.0713 10.4955 53.0713 12.573V18.3199H50.9537V7.87845H53.0713V9.38935C53.6801 8.28315 54.8448 7.60864 56.0888 7.60864C57.4652 7.60864 58.4711 8.22919 58.8946 9.47029C59.6093 8.22919 60.7739 7.60864 62.1768 7.60864C64.1356 7.60864 65.3532 8.84974 65.3532 10.7114V18.3199Z" fill="#141514"/>
<path d="M69.6413 13.5714C69.7207 15.4331 70.9383 16.7551 72.7647 16.7551C74.4322 16.7551 75.2263 15.8378 75.8351 14.5697L77.4762 15.568C76.5233 17.5645 75.041 18.6168 72.7117 18.6168C69.906 18.6168 67.5502 16.3504 67.5502 13.0858C67.5502 9.82116 69.8795 7.58179 72.7911 7.58179C75.7822 7.58179 77.7674 9.7672 77.7674 12.816V13.5714H69.6413ZM69.6413 11.9256H75.7557C75.5969 10.2259 74.194 9.30853 72.7647 9.30853C71.2294 9.30853 70.0118 10.3878 69.6413 11.9256Z" fill="#141514"/>
</g>
<path d="M81.9156 6.20552C81.9156 4.55971 83.2391 3.21069 84.8273 3.21069C86.4419 3.21069 87.7654 4.55971 87.7654 6.20552C87.7654 7.82434 86.4419 9.17336 84.8273 9.17336C83.2391 9.20034 81.9156 7.82434 81.9156 6.20552ZM87.1831 6.20552C87.1831 4.8565 86.1243 3.80426 84.8273 3.80426C83.5303 3.80426 82.4715 4.88348 82.4715 6.20552C82.4715 7.52756 83.5303 8.60677 84.8273 8.60677C86.1243 8.63375 87.1831 7.52756 87.1831 6.20552ZM83.8215 4.7216H85.092C85.6743 4.7216 86.0184 5.07234 86.0184 5.53101C86.0184 5.93571 85.7537 6.17854 85.4096 6.25948C85.7802 6.25948 85.9655 6.39438 85.9655 6.71815V7.63548H85.4361V6.88003C85.4361 6.66419 85.3302 6.55626 85.0655 6.55626H84.3244V7.63548H83.795V4.7216H83.8215ZM84.9067 6.04364C85.2508 6.04364 85.489 5.88175 85.489 5.61195C85.489 5.34215 85.2773 5.2612 84.9067 5.2612H84.3508V6.04364H84.9067Z" fill="#141514"/>
<defs>
<clipPath id="clip0">
<rect width="86.3435" height="38.7439" fill="white"/>
</clipPath>
</defs>
</svg>
