<svg width="20" height="21" viewBox="0 0 20 21" fill="none" xmlns="http://www.w3.org/2000/svg">
<path d="M19.9999 10.5C19.9999 16.0234 15.5233 20.5 9.99994 20.5C4.47647 20.5 0 16.0234 0 10.5C0 4.9765 4.47647 0.5 9.99994 0.5C15.5233 0.5 19.9999 4.9765 19.9999 10.5Z" fill="url(#paint0_linear_2438_1771)"/>
<path fill-rule="evenodd" clip-rule="evenodd" d="M12.1021 7.43009C11.9759 7.07929 8.01674 7.07929 7.8906 7.43009C7.74401 7.83906 8.64473 8.39493 9.99717 8.37876C11.348 8.39506 12.2471 7.83738 12.1021 7.43009Z" fill="url(#paint1_linear_2438_1771)"/>
<path fill-rule="evenodd" clip-rule="evenodd" d="M6.66643 6.31485C6.66779 7.3268 6.17912 7.62399 5.45434 7.74617C4.73685 7.88912 4.25374 7.46975 4.24237 6.31485C4.23237 5.34428 4.62738 4.15929 5.45434 4.13672C6.27994 4.15929 6.66495 5.34428 6.66643 6.31485Z" fill="url(#paint2_radial_2438_1771)"/>
<path fill-rule="evenodd" clip-rule="evenodd" d="M6.52828 4.28495C6.74011 4.50503 6.70218 4.8873 6.44254 5.14118C6.18269 5.39291 5.80199 5.41988 5.59016 5.19962C5.37832 4.97936 5.41605 4.59727 5.6759 4.34555C5.93555 4.09148 6.31644 4.06685 6.52828 4.28477V4.28495Z" fill="#4E506A"/>
<path fill-rule="evenodd" clip-rule="evenodd" d="M12.125 6.31485C12.1236 7.3268 12.6124 7.62399 13.3371 7.74617C14.0546 7.88912 14.5377 7.46975 14.5491 6.31485C14.5591 5.34428 14.164 4.15929 13.337 4.13672C12.5101 4.15929 12.125 5.34428 12.125 6.31485Z" fill="url(#paint3_radial_2438_1771)"/>
<path fill-rule="evenodd" clip-rule="evenodd" d="M14.4678 4.34523C14.6341 4.59871 14.5337 4.98124 14.2428 5.20024C13.9517 5.41907 13.5825 5.39381 13.4162 5.14033C13.2499 4.88685 13.3501 4.50432 13.6412 4.28531C13.9298 4.06649 14.3015 4.09175 14.4678 4.34523Z" fill="#4E506A"/>
<path fill-rule="evenodd" clip-rule="evenodd" d="M4.35084 3.39743C4.1021 3.71156 4.30319 4.35513 4.72311 4.06114C5.39321 3.59129 6.83014 3.01222 8.09302 3.22371C8.428 3.27948 8.53665 3.20589 8.46231 2.58673C8.38929 1.97648 8.00367 1.57772 7.04469 1.75376C5.55844 2.02548 4.59946 3.08331 4.35084 3.39743Z" fill="url(#paint4_radial_2438_1771)"/>
<path fill-rule="evenodd" clip-rule="evenodd" d="M12.3462 1.75362C11.3872 1.57757 11.0016 1.97849 10.9286 2.58647C10.8541 3.20585 10.9629 3.27926 11.2979 3.22367C12.5606 3.01198 13.9961 3.59109 14.6678 4.06115C15.0877 4.35515 15.2888 3.71136 15.04 3.3974C14.7913 3.08557 13.8324 2.0275 12.3462 1.75362Z" fill="url(#paint5_radial_2438_1771)"/>
<path d="M12.3966 11.4957C9.80284 10.7161 8.89216 12.4419 8.89216 12.4419C8.89216 12.4419 9.15486 10.5208 6.56106 9.74137C4.06685 8.99183 2.55468 11.2133 2.43819 12.6101C2.18792 15.6171 4.88429 19.0295 5.89282 20.1921C6.11822 20.4518 6.47714 20.5585 6.81444 20.4684C8.3281 20.0643 12.5504 18.7306 14.1092 16.1172C14.8318 14.9051 14.8894 12.2451 12.3966 11.4957Z" fill="url(#paint6_linear_2438_1771)"/>
<path d="M12.3966 11.4957C9.80284 10.7161 8.89216 12.4419 8.89216 12.4419C8.89216 12.4419 9.15486 10.5208 6.56106 9.74137C4.06685 8.99183 2.55468 11.2133 2.43819 12.6101C2.18792 15.6171 4.88429 19.0295 5.89282 20.1921C6.11822 20.4518 6.47714 20.5585 6.81444 20.4684C8.3281 20.0643 12.5504 18.7306 14.1092 16.1172C14.8318 14.9051 14.8894 12.2451 12.3966 11.4957Z" fill="url(#paint7_radial_2438_1771)"/>
<path d="M12.3966 11.4957C9.80284 10.7161 8.89216 12.4419 8.89216 12.4419C8.89216 12.4419 9.15486 10.5208 6.56106 9.74137C4.06685 8.99183 2.55468 11.2133 2.43819 12.6101C2.18792 15.6171 4.88429 19.0295 5.89282 20.1921C6.11822 20.4518 6.47714 20.5585 6.81444 20.4684C8.3281 20.0643 12.5504 18.7306 14.1092 16.1172C14.8318 14.9051 14.8894 12.2451 12.3966 11.4957Z" fill="url(#paint8_radial_2438_1771)"/>
<path style="mix-blend-mode:multiply" d="M12.3966 11.4957C9.80284 10.7161 8.89216 12.4419 8.89216 12.4419C8.89216 12.4419 9.15486 10.5208 6.56106 9.74137C4.06685 8.99183 2.55468 11.2133 2.43819 12.6101C2.18792 15.6171 4.88429 19.0295 5.89282 20.1921C6.11822 20.4518 6.47714 20.5585 6.81444 20.4684C8.3281 20.0643 12.5504 18.7306 14.1092 16.1172C14.8318 14.9051 14.8894 12.2451 12.3966 11.4957Z" fill="url(#paint9_radial_2438_1771)"/>
<path style="mix-blend-mode:multiply" d="M12.3966 11.4957C9.80284 10.7161 8.89216 12.4419 8.89216 12.4419C8.89216 12.4419 9.15486 10.5208 6.56106 9.74137C4.06685 8.99183 2.55468 11.2133 2.43819 12.6101C2.18792 15.6171 4.88429 19.0295 5.89282 20.1921C6.11822 20.4518 6.47714 20.5585 6.81444 20.4684C8.3281 20.0643 12.5504 18.7306 14.1092 16.1172C14.8318 14.9051 14.8894 12.2451 12.3966 11.4957Z" fill="url(#paint10_radial_2438_1771)"/>
<path style="mix-blend-mode:multiply" d="M12.3966 11.4957C9.80284 10.7161 8.89216 12.4419 8.89216 12.4419C8.89216 12.4419 9.15486 10.5208 6.56106 9.74137C4.06685 8.99183 2.55468 11.2133 2.43819 12.6101C2.18792 15.6171 4.88429 19.0295 5.89282 20.1921C6.11822 20.4518 6.47714 20.5585 6.81444 20.4684C8.3281 20.0643 12.5504 18.7306 14.1092 16.1172C14.8318 14.9051 14.8894 12.2451 12.3966 11.4957Z" fill="url(#paint11_radial_2438_1771)"/>
<path style="mix-blend-mode:multiply" d="M12.3966 11.4957C9.80284 10.7161 8.89216 12.4419 8.89216 12.4419C8.89216 12.4419 9.15486 10.5208 6.56106 9.74137C4.06685 8.99183 2.55468 11.2133 2.43819 12.6101C2.18792 15.6171 4.88429 19.0295 5.89282 20.1921C6.11822 20.4518 6.47714 20.5585 6.81444 20.4684C8.3281 20.0643 12.5504 18.7306 14.1092 16.1172C14.8318 14.9051 14.8894 12.2451 12.3966 11.4957Z" fill="url(#paint12_radial_2438_1771)"/>
<path style="mix-blend-mode:multiply" d="M12.3966 11.4957C9.80284 10.7161 8.89216 12.4419 8.89216 12.4419C8.89216 12.4419 9.15486 10.5208 6.56106 9.74137C4.06685 8.99183 2.55468 11.2133 2.43819 12.6101C2.18792 15.6171 4.88429 19.0295 5.89282 20.1921C6.11822 20.4518 6.47714 20.5585 6.81444 20.4684C8.3281 20.0643 12.5504 18.7306 14.1092 16.1172C14.8318 14.9051 14.8894 12.2451 12.3966 11.4957Z" fill="url(#paint13_radial_2438_1771)"/>
<mask id="mask0_2438_1771" style="mask-type:alpha" maskUnits="userSpaceOnUse" x="0" y="0" width="20" height="21">
<path d="M19.9999 10.5C19.9999 16.0234 15.5233 20.5 9.99994 20.5C4.47647 20.5 0 16.0234 0 10.5C0 4.9765 4.47647 0.5 9.99994 0.5C15.5233 0.5 19.9999 4.9765 19.9999 10.5Z" fill="white"/>
</mask>
<g mask="url(#mask0_2438_1771)">
<path fill-rule="evenodd" clip-rule="evenodd" d="M2.0584 10.1028C1.3678 9.47727 0.151804 9.19157 0.0130222 10.6406C-0.0960206 11.7732 0.474571 13.6669 1.92028 14.7672C5.55504 17.5332 8.98427 15.9535 9.08829 14.0229C9.17037 12.5004 7.29906 12.6645 6.69437 12.6952C6.653 12.6967 6.63489 12.646 6.67124 12.6245C6.79839 12.5477 7.00657 12.4155 7.22637 12.2434C7.70047 11.8714 7.45767 11.226 6.79509 11.412C6.69437 11.4397 5.08186 11.8884 4.0591 11.5288C2.89929 11.1216 2.7605 10.7405 2.0584 10.1028Z" fill="url(#paint14_radial_2438_1771)"/>
<path fill-rule="evenodd" clip-rule="evenodd" d="M17.7925 10.0997C18.1877 9.35375 18.8155 9.61534 19.1686 9.73011C19.6888 9.89922 19.9983 10.2142 19.9983 11.0034C19.9983 12.8744 19.681 14.6092 18.0798 16.3517C15.1471 19.5411 10.1609 19.1187 9.73879 17.1069C9.38966 15.4386 11.24 15.2715 11.8351 15.1941C11.8763 15.1894 11.8827 15.1275 11.8463 15.112C11.6361 15.0191 11.4325 14.9126 11.2369 14.7933C10.7083 14.4714 10.829 13.7131 11.5082 13.7952C12.2763 13.9066 13.2269 14.117 14.0458 14.0382C16.4167 13.8061 16.8642 11.8515 17.7925 10.0997Z" fill="url(#paint15_radial_2438_1771)"/>
</g>
<defs>
<linearGradient id="paint0_linear_2438_1771" x1="9.99994" y1="19.507" x2="9.99994" y2="1.9833" gradientUnits="userSpaceOnUse">
<stop stop-color="#F28A2D"/>
<stop offset="1" stop-color="#FDE86F"/>
</linearGradient>
<linearGradient id="paint1_linear_2438_1771" x1="9.99558" y1="6.68141" x2="9.99558" y2="8.52346" gradientUnits="userSpaceOnUse">
<stop stop-color="#482314"/>
<stop offset="1" stop-color="#9A4111"/>
</linearGradient>
<radialGradient id="paint2_radial_2438_1771" cx="0" cy="0" r="1" gradientUnits="userSpaceOnUse" gradientTransform="translate(4.46486 -4.80515) rotate(-90) scale(2.47013 2.39592)">
<stop stop-color="#3B446B"/>
<stop offset="0.6884" stop-color="#202340"/>
</radialGradient>
<radialGradient id="paint3_radial_2438_1771" cx="0" cy="0" r="1" gradientUnits="userSpaceOnUse" gradientTransform="translate(5.4592 -12.8106) rotate(-90) scale(2.47013 2.39592)">
<stop stop-color="#3B446B"/>
<stop offset="0.6884" stop-color="#202340"/>
</radialGradient>
<radialGradient id="paint4_radial_2438_1771" cx="0" cy="0" r="1" gradientUnits="userSpaceOnUse" gradientTransform="translate(3.01484 -9.98058) rotate(-93.7598) scale(1.83313 0.880371)">
<stop stop-color="#E38200"/>
<stop offset="1" stop-color="#CD6700"/>
</radialGradient>
<radialGradient id="paint5_radial_2438_1771" cx="0" cy="0" r="1" gradientUnits="userSpaceOnUse" gradientTransform="translate(4.77151 -15.5507) rotate(-87.1794) scale(1.95742 1.17277)">
<stop stop-color="#E38200"/>
<stop offset="1" stop-color="#CD6700"/>
</radialGradient>
<linearGradient id="paint6_linear_2438_1771" x1="8.813" y1="13.0018" x2="6.43456" y2="20.9167" gradientUnits="userSpaceOnUse">
<stop stop-color="#F34462"/>
<stop offset="1" stop-color="#CC0820"/>
</linearGradient>
<radialGradient id="paint7_radial_2438_1771" cx="0" cy="0" r="1" gradientUnits="userSpaceOnUse" gradientTransform="translate(5.83306 17.0237) rotate(21.0982) scale(3.28377 3.14422)">
<stop stop-color="#FF7091" stop-opacity="0.7"/>
<stop offset="1" stop-color="#FE6D8E" stop-opacity="0"/>
</radialGradient>
<radialGradient id="paint8_radial_2438_1771" cx="0" cy="0" r="1" gradientUnits="userSpaceOnUse" gradientTransform="translate(1.27255 13.8032) rotate(21.0982) scale(3.28377 3.14422)">
<stop stop-color="#FF7091" stop-opacity="0.7"/>
<stop offset="1" stop-color="#FE6D8E" stop-opacity="0"/>
</radialGradient>
<radialGradient id="paint9_radial_2438_1771" cx="0" cy="0" r="1" gradientUnits="userSpaceOnUse" gradientTransform="translate(-17.7555 2.58449) rotate(101.197) scale(2.91142 3.60753)">
<stop stop-color="#9C0600" stop-opacity="0.9986"/>
<stop offset="1" stop-color="white"/>
</radialGradient>
<radialGradient id="paint10_radial_2438_1771" cx="0" cy="0" r="1" gradientUnits="userSpaceOnUse" gradientTransform="translate(3.50552 23.1584) rotate(31.5751) scale(1.71018 2.03364)">
<stop stop-color="#9C0600" stop-opacity="0.5"/>
<stop offset="1" stop-color="white"/>
</radialGradient>
<radialGradient id="paint11_radial_2438_1771" cx="0" cy="0" r="1" gradientUnits="userSpaceOnUse" gradientTransform="translate(7.16248 13.6362) rotate(-20.8579) scale(1.47744 1.82338)">
<stop stop-color="#9C0600" stop-opacity="0.5"/>
<stop offset="1" stop-color="white"/>
</radialGradient>
<radialGradient id="paint12_radial_2438_1771" cx="0" cy="0" r="1" gradientUnits="userSpaceOnUse" gradientTransform="translate(-0.0960339 21.8792) rotate(35.0666) scale(2.00387 2.04796)">
<stop stop-color="#9C0600" stop-opacity="0.9986"/>
<stop offset="1" stop-color="white"/>
</radialGradient>
<radialGradient id="paint13_radial_2438_1771" cx="0" cy="0" r="1" gradientUnits="userSpaceOnUse" gradientTransform="translate(-15.1435 2.32286) rotate(113.367) scale(5.98495 6.22654)">
<stop stop-color="white" stop-opacity="0"/>
<stop offset="1" stop-color="#F08423"/>
</radialGradient>
<radialGradient id="paint14_radial_2438_1771" cx="0" cy="0" r="1" gradientUnits="userSpaceOnUse" gradientTransform="translate(-4.46715 8.16681) rotate(41.1372) scale(9.37316 7.65625)">
<stop stop-color="#EDA83A"/>
<stop offset="1" stop-color="#FFDC5E"/>
</radialGradient>
<radialGradient id="paint15_radial_2438_1771" cx="0" cy="0" r="1" gradientUnits="userSpaceOnUse" gradientTransform="translate(-18.0337 7.17914) rotate(132.134) scale(10.2021 9.18792)">
<stop stop-color="#F4B248"/>
<stop offset="1" stop-color="#FFDD5F"/>
</radialGradient>
</defs>
</svg>
