<svg width="20" height="21" viewBox="0 0 20 21" fill="none" xmlns="http://www.w3.org/2000/svg">
<path d="M20 10.5C20 13.1522 18.9464 15.6957 17.0711 17.5711C15.1957 19.4464 12.6522 20.5 10 20.5C7.34784 20.5 4.8043 19.4464 2.92893 17.5711C1.05357 15.6957 0 13.1522 0 10.5C0 7.84784 1.05357 5.3043 2.92893 3.42893C4.8043 1.55357 7.34784 0.5 10 0.5C12.6522 0.5 15.1957 1.55357 17.0711 3.42893C18.9464 5.3043 20 7.84784 20 10.5Z" fill="url(#paint0_linear_2438_9028)"/>
<path d="M6.66406 15.9724C6.66406 16.1385 6.78155 16.2573 6.97652 16.2573C7.41522 16.2573 8.02139 15.4997 9.9974 15.4997C11.9734 15.4997 12.5808 16.2573 13.0183 16.2573C13.2132 16.2573 13.3307 16.1385 13.3307 15.9724C13.3307 15.4912 12.2821 13.833 9.9974 13.833C7.71268 13.833 6.66406 15.4912 6.66406 15.9724Z" fill="url(#paint1_linear_2438_9028)"/>
<path d="M4.2423 11.5904C4.2423 10.4856 4.87321 9.59082 5.64791 9.59082C6.42508 9.59082 7.05352 10.4856 7.05352 11.5904C7.05352 12.0514 6.9432 12.477 6.75851 12.8153C6.67595 12.9679 6.54179 13.0782 6.38542 13.1222C6.21189 13.1726 5.94787 13.2272 5.64791 13.2272C5.3467 13.2272 5.08641 13.1726 4.9104 13.1222C4.75437 13.0782 4.62061 12.9678 4.53854 12.8153C4.34077 12.4441 4.23837 12.0207 4.2423 11.5904ZM12.3413 11.5904C12.3413 10.4856 12.971 9.59082 13.7457 9.59082C14.5228 9.59082 15.1513 10.4856 15.1513 11.5904C15.1513 12.0514 15.041 12.477 14.8563 12.8153C14.8155 12.8909 14.7615 12.957 14.6975 13.0096C14.6335 13.0623 14.5607 13.1005 14.4832 13.1222C13.9999 13.2599 13.4927 13.2599 13.0094 13.1222C12.9319 13.1005 12.8591 13.0623 12.795 13.0096C12.731 12.957 12.6771 12.8909 12.6363 12.8153C12.4389 12.4439 12.3369 12.0206 12.3413 11.5904Z" fill="url(#paint2_linear_2438_9028)"/>
<g filter="url(#filter0_i_2438_9028)">
<path d="M4.2423 11.5904C4.2423 10.4856 4.87321 9.59082 5.64791 9.59082C6.42508 9.59082 7.05352 10.4856 7.05352 11.5904C7.05352 12.0514 6.9432 12.477 6.75851 12.8153C6.67595 12.9679 6.54179 13.0782 6.38542 13.1222C6.21189 13.1726 5.94787 13.2272 5.64791 13.2272C5.3467 13.2272 5.08641 13.1726 4.9104 13.1222C4.75437 13.0782 4.62061 12.9678 4.53854 12.8153C4.34077 12.4441 4.23837 12.0207 4.2423 11.5904ZM12.3413 11.5904C12.3413 10.4856 12.971 9.59082 13.7457 9.59082C14.5228 9.59082 15.1513 10.4856 15.1513 11.5904C15.1513 12.0514 15.041 12.477 14.8563 12.8153C14.8155 12.8909 14.7615 12.957 14.6975 13.0096C14.6335 13.0623 14.5607 13.1005 14.4832 13.1222C13.9999 13.2599 13.4927 13.2599 13.0094 13.1222C12.9319 13.1005 12.8591 13.0623 12.795 13.0096C12.731 12.957 12.6771 12.8909 12.6363 12.8153C12.4389 12.4439 12.3369 12.0206 12.3413 11.5904Z" fill="black"/>
</g>
<path d="M6.13211 10.3069C6.29549 10.4986 6.3057 10.8773 6.15381 11.1518C6.00065 11.4247 5.74537 11.4922 5.582 11.299C5.41862 11.1073 5.40969 10.7286 5.5603 10.4556C5.71347 10.1812 5.96874 10.1152 6.13211 10.3069ZM14.4145 10.3069C14.5778 10.4986 14.5881 10.8773 14.4374 11.1518C14.2843 11.4247 14.029 11.4922 13.8631 11.299C13.701 11.1073 13.692 10.7286 13.8439 10.4556C13.9958 10.1812 14.2511 10.1152 14.4145 10.3069Z" fill="#4E506A"/>
<path d="M4.93133 7.51846C5.34288 7.27291 5.67014 7.16699 5.92426 7.16699C6.26763 7.16699 6.48333 7.35797 6.60605 7.65808C6.82298 8.18608 6.72505 8.30163 6.3606 8.39472C4.98959 8.75421 3.61238 9.9065 3.01489 10.6255C2.64177 11.0748 2.28476 10.5773 2.47442 10.1857C2.66532 9.79416 3.43388 8.41237 4.93133 7.51846ZM12.7843 7.65808C12.907 7.35797 13.1227 7.16699 13.4661 7.16699C13.7214 7.16699 14.0474 7.27291 14.459 7.51846C15.9564 8.41237 16.725 9.79416 16.9147 10.1857C17.1043 10.5773 16.7486 11.0748 16.3754 10.6255C15.7767 9.9065 14.4007 8.75421 13.0285 8.39472C12.664 8.30163 12.5686 8.18608 12.7843 7.65808Z" fill="url(#paint3_linear_2438_9028)"/>
<path d="M17.576 20.4997C16.5724 20.4997 15.7578 19.5498 15.7578 18.3778C15.7578 17.207 16.1893 16.4159 16.5372 15.6514C17.2621 14.054 17.4051 13.833 17.576 13.833C17.7469 13.833 17.8899 14.054 18.6148 15.6514C18.9627 16.4159 19.3942 17.207 19.3942 18.3778C19.3942 19.5498 18.5796 20.4997 17.576 20.4997Z" fill="url(#paint4_linear_2438_9028)"/>
<path d="M17.5748 17.4701C17.2402 17.4701 16.9688 17.1248 16.9688 16.7002C16.9688 16.2732 17.1126 15.985 17.2289 15.7062C17.4697 15.1252 17.5177 15.0459 17.5748 15.0459C17.6319 15.0459 17.6799 15.1252 17.9207 15.7062C18.037 15.9862 18.1809 16.2732 18.1809 16.699C18.1809 17.1248 17.9095 17.4701 17.5748 17.4701Z" fill="url(#paint5_linear_2438_9028)"/>
<defs>
<filter id="filter0_i_2438_9028" x="4.24219" y="9.59082" width="10.9062" height="3.63672" filterUnits="userSpaceOnUse" color-interpolation-filters="sRGB">
<feFlood flood-opacity="0" result="BackgroundImageFix"/>
<feBlend mode="normal" in="SourceGraphic" in2="BackgroundImageFix" result="shape"/>
<feColorMatrix in="SourceAlpha" type="matrix" values="0 0 0 0 0 0 0 0 0 0 0 0 0 0 0 0 0 0 127 0" result="hardAlpha"/>
<feOffset/>
<feGaussianBlur stdDeviation="0.902781"/>
<feComposite in2="hardAlpha" operator="arithmetic" k2="-1" k3="1"/>
<feColorMatrix type="matrix" values="0 0 0 0 0.0411227 0 0 0 0 0.0430885 0 0 0 0 0.0922353 0 0 0 0.819684 0"/>
<feBlend mode="normal" in2="shape" result="effect1_innerShadow_2438_9028"/>
</filter>
<linearGradient id="paint0_linear_2438_9028" x1="10" y1="2.55" x2="10" y2="20.5" gradientUnits="userSpaceOnUse">
<stop stop-color="#FEEA70"/>
<stop offset="1" stop-color="#F69B30"/>
</linearGradient>
<linearGradient id="paint1_linear_2438_9028" x1="9.9974" y1="13.833" x2="9.9974" y2="16.2573" gradientUnits="userSpaceOnUse">
<stop stop-color="#472315"/>
<stop offset="1" stop-color="#8B3A0E"/>
</linearGradient>
<linearGradient id="paint2_linear_2438_9028" x1="9.69673" y1="9.59082" x2="9.69673" y2="13.2272" gradientUnits="userSpaceOnUse">
<stop stop-color="#191A33"/>
<stop offset="0.87162" stop-color="#3B426A"/>
</linearGradient>
<linearGradient id="paint3_linear_2438_9028" x1="9.6946" y1="7.16699" x2="9.6946" y2="10.8034" gradientUnits="userSpaceOnUse">
<stop stop-color="#E78E0D"/>
<stop offset="1" stop-color="#CB6000"/>
</linearGradient>
<linearGradient id="paint4_linear_2438_9028" x1="17.576" y1="19.2929" x2="17.576" y2="15.029" gradientUnits="userSpaceOnUse">
<stop stop-color="#35CAFC"/>
<stop offset="1" stop-color="#007EDB"/>
</linearGradient>
<linearGradient id="paint5_linear_2438_9028" x1="17.5748" y1="15.0459" x2="17.5748" y2="17.4701" gradientUnits="userSpaceOnUse">
<stop stop-color="#6AE1FF" stop-opacity="0.287"/>
<stop offset="1" stop-color="#A8E3FF" stop-opacity="0.799"/>
</linearGradient>
</defs>
</svg>
