<svg width="24" height="22" viewBox="0 0 24 22" fill="none" xmlns="http://www.w3.org/2000/svg">
<path d="M22 11.5C22 14.1522 20.9464 16.6957 19.0711 18.5711C17.1957 20.4464 14.6522 21.5 12 21.5C9.34784 21.5 6.8043 20.4464 4.92893 18.5711C3.05357 16.6957 2 14.1522 2 11.5C2 8.84784 3.05357 6.3043 4.92893 4.42893C6.8043 2.55357 9.34784 1.5 12 1.5C14.6522 1.5 17.1957 2.55357 19.0711 4.42893C20.9464 6.3043 22 8.84784 22 11.5Z" fill="url(#paint0_linear_2438_751)"/>
<path d="M8.68485 14.9886C8.50342 17.4113 9.5185 19.0751 11.3913 19.0751C13.263 19.0751 14.2793 17.4113 14.0978 14.9886C13.9176 12.5646 12.8175 11.1963 11.3913 11.1963C9.96518 11.1963 8.86513 12.5646 8.68485 14.9886Z" fill="url(#paint1_linear_2438_751)"/>
<path d="M6.24219 8.77228C6.24219 7.76865 6.91976 6.9541 7.75734 6.9541C8.59491 6.9541 9.27249 7.76865 9.27249 8.77228C9.27249 9.77713 8.59491 10.5905 7.75734 10.5905C6.91976 10.5905 6.24219 9.77713 6.24219 8.77228ZM14.121 8.77228C14.121 7.76865 14.7998 6.9541 15.6361 6.9541C16.4737 6.9541 17.1513 7.76865 17.1513 8.77228C17.1513 9.77713 16.4737 10.5905 15.6361 10.5905C14.7998 10.5905 14.121 9.77713 14.121 8.77228Z" fill="url(#paint2_linear_2438_751)"/>
<g filter="url(#filter0_i_2438_751)">
<path d="M6.24219 8.77228C6.24219 7.76865 6.91976 6.9541 7.75734 6.9541C8.59491 6.9541 9.27249 7.76865 9.27249 8.77228C9.27249 9.77713 8.59491 10.5905 7.75734 10.5905C6.91976 10.5905 6.24219 9.77713 6.24219 8.77228ZM14.121 8.77228C14.121 7.76865 14.7998 6.9541 15.6361 6.9541C16.4737 6.9541 17.1513 7.76865 17.1513 8.77228C17.1513 9.77713 16.4737 10.5905 15.6361 10.5905C14.7998 10.5905 14.121 9.77713 14.121 8.77228Z" fill="black"/>
</g>
<path d="M8.01419 6.96377C8.24301 7.01722 8.37095 7.28443 8.2996 7.56055C8.22947 7.83794 7.98712 8.01862 7.7583 7.96518C7.52948 7.91174 7.40154 7.64453 7.47289 7.36714C7.54301 7.09229 7.78537 6.90906 8.01419 6.96377ZM16.205 7.04394C16.4584 7.10374 16.6011 7.40022 16.5224 7.7056C16.4436 8.01481 16.1754 8.21458 15.9208 8.15605C15.6674 8.09752 15.5247 7.79976 15.6034 7.49311C15.6809 7.18518 15.9503 6.98413 16.2062 7.04394H16.205Z" fill="#4E506A"/>
<g filter="url(#filter1_d_2438_751)">
<path d="M16.2496 3.93126C16.3165 3.9262 16.3834 3.92418 16.4516 3.92418C17.0781 3.92418 17.7251 4.13037 18.2166 4.4922C18.3052 4.55857 18.3577 4.64934 18.363 4.74545C18.3682 4.84157 18.3259 4.93555 18.2449 5.00766C18.2057 5.04303 18.1578 5.07181 18.1041 5.09227C18.0504 5.11273 17.992 5.12444 17.9324 5.12671C17.8728 5.12898 17.8132 5.12175 17.7573 5.10546C17.7013 5.08917 17.6501 5.06415 17.6068 5.03192C17.253 4.77015 16.7629 4.62764 16.3306 4.65897C16.1807 4.66779 16.035 4.70231 15.9039 4.76011C15.7728 4.81791 15.6594 4.89758 15.5716 4.99352C15.5364 5.03112 15.4919 5.06279 15.4409 5.08668C15.3898 5.11056 15.3331 5.12616 15.2743 5.13257C15.2154 5.13897 15.1555 5.13605 15.0981 5.12397C15.0407 5.11189 14.9869 5.09091 14.94 5.06224C14.8439 5.00227 14.7812 4.91531 14.7651 4.81971C14.749 4.72411 14.7808 4.62734 14.8538 4.54981C15.0159 4.37369 15.2245 4.22721 15.4655 4.12043C15.7064 4.01366 15.9739 3.94912 16.2496 3.93126ZM6.38903 4.4922C6.866 4.13582 7.49589 3.9331 8.15403 3.92418C8.46495 3.91888 8.77285 3.97307 9.05119 4.08206C9.32954 4.19105 9.56997 4.35158 9.75178 4.54981C9.8246 4.62731 9.85642 4.72393 9.8406 4.81945C9.82477 4.91497 9.76252 5.00198 9.66688 5.06224C9.61985 5.09093 9.566 5.11194 9.50849 5.12403C9.45097 5.13612 9.39096 5.13905 9.33198 5.13265C9.27301 5.12624 9.21626 5.11063 9.16507 5.08674C9.11389 5.06285 9.06931 5.03115 9.03395 4.99352C8.94616 4.89763 8.83273 4.81799 8.70161 4.7602C8.57049 4.70241 8.42487 4.66785 8.27495 4.65897C7.84399 4.62764 7.35257 4.77015 6.9988 5.03192C6.95547 5.06415 6.90428 5.08917 6.84832 5.10546C6.79236 5.12175 6.73279 5.12898 6.67318 5.12671C6.61357 5.12444 6.55517 5.11273 6.50147 5.09227C6.44778 5.07181 6.3999 5.04303 6.36073 5.00766C6.27968 4.93555 6.23735 4.84157 6.24263 4.74545C6.24791 4.64934 6.30038 4.55857 6.38903 4.4922Z" fill="black"/>
</g>
<path d="M16.2496 3.93126C16.3165 3.9262 16.3834 3.92418 16.4516 3.92418C17.0781 3.92418 17.7251 4.13037 18.2166 4.4922C18.3052 4.55857 18.3577 4.64934 18.363 4.74545C18.3682 4.84157 18.3259 4.93555 18.2449 5.00766C18.2057 5.04303 18.1578 5.07181 18.1041 5.09227C18.0504 5.11273 17.992 5.12444 17.9324 5.12671C17.8728 5.12898 17.8132 5.12175 17.7573 5.10546C17.7013 5.08917 17.6501 5.06415 17.6068 5.03192C17.253 4.77015 16.7629 4.62764 16.3306 4.65897C16.1807 4.66779 16.035 4.70231 15.9039 4.76011C15.7728 4.81791 15.6594 4.89758 15.5716 4.99352C15.5364 5.03112 15.4919 5.06279 15.4409 5.08668C15.3898 5.11056 15.3331 5.12616 15.2743 5.13257C15.2154 5.13897 15.1555 5.13605 15.0981 5.12397C15.0407 5.11189 14.9869 5.09091 14.94 5.06224C14.8439 5.00227 14.7812 4.91531 14.7651 4.81971C14.749 4.72411 14.7808 4.62734 14.8538 4.54981C15.0159 4.37369 15.2245 4.22721 15.4655 4.12043C15.7064 4.01366 15.9739 3.94912 16.2496 3.93126ZM6.38903 4.4922C6.866 4.13582 7.49589 3.9331 8.15403 3.92418C8.46495 3.91888 8.77285 3.97307 9.05119 4.08206C9.32954 4.19105 9.56997 4.35158 9.75178 4.54981C9.8246 4.62731 9.85642 4.72393 9.8406 4.81945C9.82477 4.91497 9.76252 5.00198 9.66688 5.06224C9.61985 5.09093 9.566 5.11194 9.50849 5.12403C9.45097 5.13612 9.39096 5.13905 9.33198 5.13265C9.27301 5.12624 9.21626 5.11063 9.16507 5.08674C9.11389 5.06285 9.06931 5.03115 9.03395 4.99352C8.94616 4.89763 8.83273 4.81799 8.70161 4.7602C8.57049 4.70241 8.42487 4.66785 8.27495 4.65897C7.84399 4.62764 7.35257 4.77015 6.9988 5.03192C6.95547 5.06415 6.90428 5.08917 6.84832 5.10546C6.79236 5.12175 6.73279 5.12898 6.67318 5.12671C6.61357 5.12444 6.55517 5.11273 6.50147 5.09227C6.44778 5.07181 6.3999 5.04303 6.36073 5.00766C6.27968 4.93555 6.23735 4.84157 6.24263 4.74545C6.24791 4.64934 6.30038 4.55857 6.38903 4.4922Z" fill="url(#paint3_linear_2438_751)"/>
<defs>
<filter id="filter0_i_2438_751" x="6.24219" y="6.9541" width="10.9062" height="3.63672" filterUnits="userSpaceOnUse" color-interpolation-filters="sRGB">
<feFlood flood-opacity="0" result="BackgroundImageFix"/>
<feBlend mode="normal" in="SourceGraphic" in2="BackgroundImageFix" result="shape"/>
<feColorMatrix in="SourceAlpha" type="matrix" values="0 0 0 0 0 0 0 0 0 0 0 0 0 0 0 0 0 0 127 0" result="hardAlpha"/>
<feOffset/>
<feGaussianBlur stdDeviation="0.902781"/>
<feComposite in2="hardAlpha" operator="arithmetic" k2="-1" k3="1"/>
<feColorMatrix type="matrix" values="0 0 0 0 0.0980392 0 0 0 0 0.101961 0 0 0 0 0.2 0 0 0 0.819684 0"/>
<feBlend mode="normal" in2="shape" result="effect1_innerShadow_2438_751"/>
</filter>
<filter id="filter1_d_2438_751" x="0.825504" y="0.312706" width="22.9584" height="12.0453" filterUnits="userSpaceOnUse" color-interpolation-filters="sRGB">
<feFlood flood-opacity="0" result="BackgroundImageFix"/>
<feColorMatrix in="SourceAlpha" type="matrix" values="0 0 0 0 0 0 0 0 0 0 0 0 0 0 0 0 0 0 127 0" result="hardAlpha"/>
<feOffset dy="1.80556"/>
<feGaussianBlur stdDeviation="2.70834"/>
<feColorMatrix type="matrix" values="0 0 0 0 0.803922 0 0 0 0 0.388235 0 0 0 0 0.00392157 0 0 0 0.145679 0"/>
<feBlend mode="normal" in2="BackgroundImageFix" result="effect1_dropShadow_2438_751"/>
<feBlend mode="normal" in="SourceGraphic" in2="effect1_dropShadow_2438_751" result="shape"/>
</filter>
<linearGradient id="paint0_linear_2438_751" x1="12" y1="3.55" x2="12" y2="21.5" gradientUnits="userSpaceOnUse">
<stop stop-color="#FEEA70"/>
<stop offset="1" stop-color="#F69B30"/>
</linearGradient>
<linearGradient id="paint1_linear_2438_751" x1="11.3913" y1="11.1963" x2="11.3913" y2="19.0751" gradientUnits="userSpaceOnUse">
<stop stop-color="#472315"/>
<stop offset="1" stop-color="#8B3A0E"/>
</linearGradient>
<linearGradient id="paint2_linear_2438_751" x1="11.6967" y1="6.9541" x2="11.6967" y2="10.5905" gradientUnits="userSpaceOnUse">
<stop stop-color="#191A33"/>
<stop offset="0.87162" stop-color="#3B426A"/>
</linearGradient>
<linearGradient id="paint3_linear_2438_751" x1="12.3028" y1="3.92383" x2="12.3028" y2="5.13595" gradientUnits="userSpaceOnUse">
<stop stop-color="#E78E0D"/>
<stop offset="1" stop-color="#CB6000"/>
</linearGradient>
</defs>
</svg>
