<svg width="16" height="16" viewBox="0 0 16 16" fill="none" xmlns="http://www.w3.org/2000/svg">
<path fill-rule="evenodd" clip-rule="evenodd" d="M3.51813 0H12.4725C14.4094 0 16 1.59064 16 3.51813V12.4725C16 14.4187 14.4094 16 12.4819 16H3.51813C1.57193 16 0 14.4094 0 12.4725V3.51813C0 1.59064 1.58129 0 3.51813 0Z" fill="#1877F2"/>
<path fill-rule="evenodd" clip-rule="evenodd" d="M8.76686 6.19396V5.41735C8.76686 5.04309 9.0195 4.95887 9.19727 4.95887C9.36569 4.95887 10.2733 4.95887 10.2733 4.95887V3.30273H8.78558C7.12944 3.30273 6.76452 4.52847 6.76452 5.31443V6.18461H5.80078V7.34484V8.11209H6.76452C6.76452 10.2922 6.76452 12.9214 6.76452 12.9214H8.69201C8.69201 12.9214 8.69201 10.2641 8.69201 8.11209H10.1142L10.1797 7.3542L10.292 6.18461H8.76686V6.19396Z" fill="#FEFEFE"/>
</svg>
