<svg width="20" height="23" viewBox="0 0 20 23" fill="none" xmlns="http://www.w3.org/2000/svg">
<path d="M20 10.5C20 13.1522 18.9464 15.6957 17.0711 17.5711C15.1957 19.4464 12.6522 20.5 10 20.5C7.34784 20.5 4.8043 19.4464 2.92893 17.5711C1.05357 15.6957 0 13.1522 0 10.5C0 7.84784 1.05357 5.3043 2.92893 3.42893C4.8043 1.55357 7.34784 0.5 10 0.5C12.6522 0.5 15.1957 1.55357 17.0711 3.42893C18.9464 5.3043 20 7.84784 20 10.5Z" fill="url(#paint0_linear_2438_9340)"/>
<g filter="url(#filter0_d_2438_9340)">
<path d="M6.66406 17.9565C6.66406 18.8099 8.15573 18.6741 9.9974 18.6741C11.8379 18.6741 13.3307 18.8099 13.3307 17.9565C13.3307 16.9286 11.8379 16.2578 9.9974 16.2578C8.15573 16.2578 6.66406 16.9286 6.66406 17.9565Z" fill="black"/>
</g>
<path d="M6.66406 17.9565C6.66406 18.8099 8.15573 18.6741 9.9974 18.6741C11.8379 18.6741 13.3307 18.8099 13.3307 17.9565C13.3307 16.9286 11.8379 16.2578 9.9974 16.2578C8.15573 16.2578 6.66406 16.9286 6.66406 17.9565Z" fill="url(#paint1_linear_2438_9340)"/>
<path d="M4.24228 12.1987C4.24228 11.0924 4.90922 10.1973 5.72987 10.1973C6.55177 10.1973 7.21746 11.0924 7.21746 12.1987C7.21746 12.6588 7.10217 13.084 6.90507 13.421C6.81297 13.5763 6.67207 13.6862 6.51086 13.7287C6.32491 13.7791 6.04846 13.8336 5.72987 13.8336C5.41128 13.8336 5.1336 13.7791 4.94889 13.7287C4.78752 13.6866 4.6465 13.5766 4.55468 13.421C4.34712 13.0567 4.23854 12.6318 4.24228 12.1987ZM12.1761 12.1987C12.1761 11.0924 12.8418 10.1973 13.6637 10.1973C14.4843 10.1973 15.1513 11.0924 15.1513 12.1987C15.1513 12.6588 15.0348 13.084 14.8389 13.421C14.7471 13.5766 14.606 13.6866 14.4447 13.7287C14.1888 13.7978 13.9267 13.833 13.6637 13.8336C13.3451 13.8336 13.0687 13.7791 12.8827 13.7287C12.7212 13.6862 12.5799 13.5762 12.4873 13.421C12.2807 13.0562 12.1726 12.6315 12.1761 12.1987Z" fill="url(#paint2_linear_2438_9340)"/>
<g filter="url(#filter1_i_2438_9340)">
<path d="M4.24228 12.1987C4.24228 11.0924 4.90922 10.1973 5.72987 10.1973C6.55177 10.1973 7.21746 11.0924 7.21746 12.1987C7.21746 12.6588 7.10217 13.084 6.90507 13.421C6.81297 13.5763 6.67207 13.6862 6.51086 13.7287C6.32491 13.7791 6.04846 13.8336 5.72987 13.8336C5.41128 13.8336 5.1336 13.7791 4.94889 13.7287C4.78752 13.6866 4.6465 13.5766 4.55468 13.421C4.34712 13.0567 4.23854 12.6318 4.24228 12.1987ZM12.1761 12.1987C12.1761 11.0924 12.8418 10.1973 13.6637 10.1973C14.4843 10.1973 15.1513 11.0924 15.1513 12.1987C15.1513 12.6588 15.0348 13.084 14.8389 13.421C14.7471 13.5766 14.606 13.6866 14.4447 13.7287C14.1888 13.7978 13.9267 13.833 13.6637 13.8336C13.3451 13.8336 13.0687 13.7791 12.8827 13.7287C12.7212 13.6862 12.5799 13.5762 12.4873 13.421C12.2807 13.0562 12.1726 12.6315 12.1761 12.1987Z" fill="black"/>
</g>
<path d="M6.45198 11.7189C6.45825 11.7671 6.46126 11.8163 6.46094 11.8655C6.46094 12.2806 6.23556 12.6213 5.95639 12.6213C5.67851 12.6213 5.45312 12.2806 5.45312 11.8655C5.45312 11.6941 5.49154 11.5351 5.55557 11.4092C5.84242 11.5186 6.14336 11.6239 6.45198 11.7189ZM14.0407 12.6213C13.7705 12.6213 13.5503 12.3054 13.5374 11.9027C13.8691 11.8242 14.1982 11.7272 14.5184 11.6219C14.5361 11.7006 14.5448 11.7839 14.544 11.8676C14.544 12.2806 14.3199 12.6213 14.0407 12.6213Z" fill="#4F4F67"/>
<g filter="url(#filter2_d_2438_9340)">
<path d="M11.5117 10.2724C11.5117 9.76577 11.7093 9.59082 12.0511 9.59082C12.3905 9.59082 12.553 9.90436 12.6645 10.8018C14.0319 10.8018 16.3472 10.1952 16.5703 10.1952C16.786 10.1952 16.906 10.2917 16.9545 10.4985C16.997 10.678 16.9266 10.8484 16.6866 10.9529C15.9338 11.2789 13.7252 12.0151 11.8572 12.0151C11.6535 12.0151 11.5117 11.9174 11.5117 11.6731V10.2724ZM7.93445 10.8018C8.04598 9.90436 8.20841 9.59082 8.54783 9.59082C8.88968 9.59082 9.08727 9.76577 9.08727 10.2724V11.6731C9.08727 11.9174 8.94544 12.0151 8.74179 12.0151C6.87377 12.0151 4.66512 11.2789 3.91233 10.9529C3.67231 10.8484 3.60201 10.678 3.64443 10.4985C3.69413 10.2917 3.81414 10.1952 4.0287 10.1952C4.25175 10.1952 6.56708 10.8018 7.93445 10.8018Z" fill="black"/>
</g>
<path d="M11.5117 10.2724C11.5117 9.76577 11.7093 9.59082 12.0511 9.59082C12.3905 9.59082 12.553 9.90436 12.6645 10.8018C14.0319 10.8018 16.3472 10.1952 16.5703 10.1952C16.786 10.1952 16.906 10.2917 16.9545 10.4985C16.997 10.678 16.9266 10.8484 16.6866 10.9529C15.9338 11.2789 13.7252 12.0151 11.8572 12.0151C11.6535 12.0151 11.5117 11.9174 11.5117 11.6731V10.2724ZM7.93445 10.8018C8.04598 9.90436 8.20841 9.59082 8.54783 9.59082C8.88968 9.59082 9.08727 9.76577 9.08727 10.2724V11.6731C9.08727 11.9174 8.94544 12.0151 8.74179 12.0151C6.87377 12.0151 4.66512 11.2789 3.91233 10.9529C3.67231 10.8484 3.60201 10.678 3.64443 10.4985C3.69413 10.2917 3.81414 10.1952 4.0287 10.1952C4.25175 10.1952 6.56708 10.8018 7.93445 10.8018Z" fill="url(#paint3_linear_2438_9340)"/>
<defs>
<filter id="filter0_d_2438_9340" x="4.8585" y="16.2578" width="10.2752" height="6.03495" filterUnits="userSpaceOnUse" color-interpolation-filters="sRGB">
<feFlood flood-opacity="0" result="BackgroundImageFix"/>
<feColorMatrix in="SourceAlpha" type="matrix" values="0 0 0 0 0 0 0 0 0 0 0 0 0 0 0 0 0 0 127 0" result="hardAlpha"/>
<feOffset dy="1.80556"/>
<feGaussianBlur stdDeviation="0.902781"/>
<feColorMatrix type="matrix" values="0 0 0 0 1 0 0 0 0 0.509681 0 0 0 0 0 0 0 0 0.371207 0"/>
<feBlend mode="normal" in2="BackgroundImageFix" result="effect1_dropShadow_2438_9340"/>
<feBlend mode="normal" in="SourceGraphic" in2="effect1_dropShadow_2438_9340" result="shape"/>
</filter>
<filter id="filter1_i_2438_9340" x="4.24219" y="10.1973" width="10.9062" height="3.63672" filterUnits="userSpaceOnUse" color-interpolation-filters="sRGB">
<feFlood flood-opacity="0" result="BackgroundImageFix"/>
<feBlend mode="normal" in="SourceGraphic" in2="BackgroundImageFix" result="shape"/>
<feColorMatrix in="SourceAlpha" type="matrix" values="0 0 0 0 0 0 0 0 0 0 0 0 0 0 0 0 0 0 127 0" result="hardAlpha"/>
<feOffset/>
<feGaussianBlur stdDeviation="0.902781"/>
<feComposite in2="hardAlpha" operator="arithmetic" k2="-1" k3="1"/>
<feColorMatrix type="matrix" values="0 0 0 0 0.0387428 0 0 0 0 0.0406183 0 0 0 0 0.0875053 0 0 0 1 0"/>
<feBlend mode="normal" in2="shape" result="effect1_innerShadow_2438_9340"/>
</filter>
<filter id="filter2_d_2438_9340" x="3.45226" y="9.59082" width="13.697" height="3.68772" filterUnits="userSpaceOnUse" color-interpolation-filters="sRGB">
<feFlood flood-opacity="0" result="BackgroundImageFix"/>
<feColorMatrix in="SourceAlpha" type="matrix" values="0 0 0 0 0 0 0 0 0 0 0 0 0 0 0 0 0 0 127 0" result="hardAlpha"/>
<feOffset dy="1.08334"/>
<feGaussianBlur stdDeviation="0.0902781"/>
<feColorMatrix type="matrix" values="0 0 0 0 0.565875 0 0 0 0 0.151272 0 0 0 0 0 0 0 0 0.15024 0"/>
<feBlend mode="normal" in2="BackgroundImageFix" result="effect1_dropShadow_2438_9340"/>
<feBlend mode="normal" in="SourceGraphic" in2="effect1_dropShadow_2438_9340" result="shape"/>
</filter>
<linearGradient id="paint0_linear_2438_9340" x1="10" y1="0.5" x2="10" y2="13.9388" gradientUnits="userSpaceOnUse">
<stop stop-color="#E04300"/>
<stop offset="1" stop-color="#FFA320"/>
</linearGradient>
<linearGradient id="paint1_linear_2438_9340" x1="9.9974" y1="16.5854" x2="9.9974" y2="18.6821" gradientUnits="userSpaceOnUse">
<stop stop-color="#3D0D00"/>
<stop offset="1" stop-color="#661C04"/>
</linearGradient>
<linearGradient id="paint2_linear_2438_9340" x1="9.69673" y1="10.1973" x2="9.69673" y2="13.8336" gradientUnits="userSpaceOnUse">
<stop stop-color="#191A33"/>
<stop offset="0.87162" stop-color="#3B426A"/>
</linearGradient>
<linearGradient id="paint3_linear_2438_9340" x1="14.6823" y1="12.2414" x2="14.6823" y2="9.59082" gradientUnits="userSpaceOnUse">
<stop stop-color="#9A2F00"/>
<stop offset="1" stop-color="#D44800"/>
</linearGradient>
</defs>
</svg>
