<svg width="20" height="21" viewBox="0 0 20 21" fill="none" xmlns="http://www.w3.org/2000/svg">
<path d="M20 10.5C20 13.1522 18.9464 15.6957 17.0711 17.5711C15.1957 19.4464 12.6522 20.5 10 20.5C7.34784 20.5 4.8043 19.4464 2.92893 17.5711C1.05357 15.6957 0 13.1522 0 10.5C0 7.84784 1.05357 5.3043 2.92893 3.42893C4.8043 1.55357 7.34784 0.5 10 0.5C12.6522 0.5 15.1957 1.55357 17.0711 3.42893C18.9464 5.3043 20 7.84784 20 10.5Z" fill="url(#paint0_linear_2438_8931)"/>
<path d="M3.63281 10.9009C3.63281 13.5178 4.85221 18.6827 9.69342 18.6827C14.5334 18.6827 15.754 13.5178 15.754 10.9009C15.754 10.6944 13.8025 9.5918 9.69342 9.5918C5.58433 9.5918 3.63281 10.6944 3.63281 10.9009Z" fill="url(#paint1_linear_2438_8931)"/>
<path d="M5.45312 15.6522C6.50813 16.8582 7.95549 17.4703 10.0051 17.4703C12.0561 17.4703 13.489 16.8582 14.544 15.6522C13.821 14.9394 12.4458 13.834 10.0051 13.834C7.56445 13.834 6.17746 14.9394 5.45312 15.6522Z" fill="url(#paint2_linear_2438_8931)"/>
<path d="M7.52713 5.5222C7.8459 5.75008 8.13558 6.07373 8.02407 6.47738C7.93802 6.78527 7.78893 6.92467 7.51258 6.92709C6.56718 6.94043 5.44238 7.2362 4.47516 7.66894C4.39637 7.70409 4.23638 7.77561 4.07275 7.77197C3.92246 7.76834 3.76853 7.70167 3.67641 7.48469C3.5952 7.29438 3.58793 7.01437 4.01094 6.75981C4.67151 6.3598 5.5345 6.17798 6.32476 6.02767C5.8285 5.66092 5.29412 5.3488 4.7309 5.09673C4.21335 4.86157 4.27032 4.54277 4.33941 4.36943C4.49334 3.98517 5.07755 4.13184 5.64601 4.40094C6.30907 4.71064 6.93928 5.08629 7.52713 5.5222ZM11.8627 5.5222C12.4495 5.0861 13.079 4.71045 13.7414 4.40094C14.311 4.13184 14.8928 3.98517 15.048 4.36943C15.1171 4.54277 15.174 4.86157 14.6565 5.09673C14.0939 5.34855 13.5603 5.66069 13.065 6.02767C13.8529 6.17676 14.7171 6.3598 15.3764 6.75981C15.7994 7.01437 15.791 7.29317 15.711 7.48469C15.6176 7.70288 15.4649 7.76834 15.3146 7.77197C15.151 7.77561 14.991 7.70409 14.9122 7.66894C13.9462 7.2362 12.8214 6.94164 11.8772 6.92709C11.6009 6.92467 11.4518 6.78527 11.3657 6.47859C11.2554 6.07494 11.5439 5.75129 11.8627 5.52341V5.5222Z" fill="#2A3755"/>
<defs>
<linearGradient id="paint0_linear_2438_8931" x1="10" y1="2.55" x2="10" y2="20.5" gradientUnits="userSpaceOnUse">
<stop stop-color="#FEEA70"/>
<stop offset="1" stop-color="#F69B30"/>
</linearGradient>
<linearGradient id="paint1_linear_2438_8931" x1="9.69342" y1="9.5918" x2="9.69342" y2="18.6827" gradientUnits="userSpaceOnUse">
<stop stop-color="#472315"/>
<stop offset="1" stop-color="#8B3A0E"/>
</linearGradient>
<linearGradient id="paint2_linear_2438_8931" x1="9.99858" y1="13.834" x2="9.99858" y2="16.8122" gradientUnits="userSpaceOnUse">
<stop stop-color="#FC607C"/>
<stop offset="1" stop-color="#D91F3A"/>
</linearGradient>
</defs>
</svg>
