<svg width="20" height="21" viewBox="0 0 20 21" fill="none" xmlns="http://www.w3.org/2000/svg">
<path d="M10 0.5C7.34784 0.5 4.8043 1.55357 2.92893 3.42893C1.05357 5.3043 0 7.84784 0 10.5C0 13.1522 1.05357 15.6957 2.92893 17.5711C4.8043 19.4464 7.34784 20.5 10 20.5C12.6522 20.5 15.1957 19.4464 17.0711 17.5711C18.9464 15.6957 20 13.1522 20 10.5C20 7.84784 18.9464 5.3043 17.0711 3.42893C15.1957 1.55357 12.6522 0.5 10 0.5V0.5Z" fill="url(#paint0_linear_2438_55)"/>
<path d="M12.6909 5.9541C10.0264 5.9541 9.69306 8.22818 9.69306 8.22818C9.69306 8.22818 9.36091 5.9541 6.69643 5.9541C4.13378 5.9541 3.38704 8.72439 3.6998 10.2055C4.52411 14.1203 9.69306 16.8632 9.69306 16.8632C9.69306 16.8632 14.8632 14.1203 15.6875 10.2055C15.9991 8.72439 15.2511 5.9541 12.6909 5.9541Z" fill="white"/>
<defs>
<linearGradient id="paint0_linear_2438_55" x1="10" y1="0.5" x2="10" y2="20.5" gradientUnits="userSpaceOnUse">
<stop stop-color="#FF6680"/>
<stop offset="1" stop-color="#E61739"/>
</linearGradient>
</defs>
</svg>
