<svg width="20" height="21" viewBox="0 0 20 21" fill="none" xmlns="http://www.w3.org/2000/svg">
<path d="M10 0.5C7.34784 0.5 4.8043 1.55357 2.92893 3.42893C1.05357 5.3043 0 7.84784 0 10.5C0 13.1522 1.05357 15.6957 2.92893 17.5711C4.8043 19.4464 7.34784 20.5 10 20.5C12.6522 20.5 15.1957 19.4464 17.0711 17.5711C18.9464 15.6957 20 13.1522 20 10.5C20 7.84784 18.9464 5.3043 17.0711 3.42893C15.1957 1.55357 12.6522 0.5 10 0.5V0.5Z" fill="url(#paint0_linear_2438_45406)"/>
<path d="M15.3228 9.39392C15.5473 9.54302 15.754 9.69089 15.754 10.2109C15.754 10.7321 15.4618 10.943 15.1492 11.0897C15.277 11.2876 15.3178 11.5253 15.2628 11.7515C15.1645 12.1685 14.7626 12.4921 14.4054 12.5879C14.5598 12.823 14.6083 13.0545 14.4245 13.3394C14.1885 13.697 13.9831 13.8327 13.0746 13.8327H9.37444C8.11383 13.8327 7.46056 13.1709 7.46056 12.6206V9.79029C7.46056 8.29938 9.33233 7.03271 9.33233 5.99635L9.19709 4.70544C9.19071 4.62665 9.20729 4.43392 9.27109 4.37817C9.37316 4.28241 9.65514 4.13574 10.0813 4.13574C10.3594 4.13574 10.5445 4.18544 10.7626 4.28483C11.5039 4.62059 11.6966 5.47029 11.6966 6.15392C11.6966 6.48241 11.1684 7.46665 11.0969 7.80726C11.0969 7.80726 12.2031 7.57453 13.4944 7.56605C14.8481 7.55877 15.726 7.79635 15.726 8.58665C15.726 8.90302 15.4465 9.22059 15.3228 9.39392ZM4.39836 8.98423H5.4191C5.62213 8.98423 5.81685 9.06085 5.96042 9.19724C6.10399 9.33363 6.18465 9.51862 6.18465 9.7115V14.3176C6.18465 14.5104 6.10399 14.6954 5.96042 14.8318C5.81685 14.9682 5.62213 15.0448 5.4191 15.0448H4.39836C4.19533 15.0448 4.00061 14.9682 3.85704 14.8318C3.71347 14.6954 3.63281 14.5104 3.63281 14.3176V9.7115C3.63281 9.51862 3.71347 9.33363 3.85704 9.19724C4.00061 9.06085 4.19533 8.98423 4.39836 8.98423Z" fill="white"/>
<defs>
<linearGradient id="paint0_linear_2438_45406" x1="10" y1="0.5" x2="10" y2="20.5" gradientUnits="userSpaceOnUse">
<stop stop-color="#18AFFF"/>
<stop offset="1" stop-color="#0062DF"/>
</linearGradient>
</defs>
</svg>
