<svg width="119" height="25" viewBox="0 0 119 25" fill="none" xmlns="http://www.w3.org/2000/svg">
<path d="M31.2065 23.6631V7.08936H33.9797V21.0034H41.4965V23.6631H31.2065Z" fill="#141514"/>
<path d="M53.0272 20.4122C52.4191 22.407 50.6432 24.0077 47.943 24.0077C44.9023 24.0077 42.1777 21.7667 42.1777 17.9003C42.1777 14.3048 44.805 11.916 47.6511 11.916C51.1054 11.916 53.1488 14.2309 53.1488 17.8264C53.1488 18.2697 53.1002 18.6391 53.0759 18.6883H44.8536C44.9266 20.4122 46.2645 21.6682 47.9187 21.6682C49.5242 21.6682 50.3757 20.8062 50.7405 19.6734L53.0272 20.4122ZM50.473 16.7182C50.4243 15.3884 49.5486 14.1817 47.6998 14.1817C46.0213 14.1817 45.0482 15.4869 44.9509 16.7182H50.473Z" fill="#141514"/>
<path d="M57.7464 17.1371L60.6412 16.6939C61.298 16.5953 61.4683 16.2752 61.4683 15.8812C61.4683 14.9207 60.8115 14.1573 59.3519 14.1573C57.941 14.1573 57.1626 15.0685 57.0409 16.2259L54.584 15.6595C54.8029 13.6894 56.5544 11.9409 59.3276 11.9409C62.7819 11.9409 64.1198 13.9357 64.1198 16.2013V21.8654C64.1198 22.8998 64.2415 23.5647 64.2658 23.6878H61.7602C61.7359 23.6139 61.6386 23.146 61.6386 22.2348C61.1034 23.0968 60.0087 24.0326 58.1843 24.0326C55.8246 24.0326 54.365 22.4072 54.365 20.5849C54.3407 18.5409 55.8246 17.4327 57.7464 17.1371ZM61.4683 18.9349V18.4177L58.5248 18.861C57.6977 19.0088 57.0166 19.4767 57.0166 20.4125C57.0166 21.1759 57.6004 21.8901 58.6465 21.8901C60.1547 21.8901 61.4683 21.1759 61.4683 18.9349Z" fill="#141514"/>
<path d="M77.0128 21.5945C77.0128 22.6288 77.1101 23.4907 77.1344 23.6877H74.5801C74.5315 23.4415 74.4585 22.678 74.4585 22.2101C73.9233 23.1706 72.7557 23.9586 71.1502 23.9586C67.9148 23.9586 65.7498 21.3974 65.7498 17.9497C65.7498 14.6744 67.9391 11.9901 71.1015 11.9901C73.0719 11.9901 74.0693 12.9013 74.4099 13.6154V6.71997H77.0128V21.5945ZM71.4421 21.5698C73.1936 21.5698 74.4342 20.0922 74.4342 17.9251C74.4342 15.7579 73.2422 14.4035 71.4664 14.4035C69.6906 14.4035 68.4256 15.7826 68.4256 17.9497C68.4256 20.1169 69.6176 21.5698 71.4421 21.5698Z" fill="#141514"/>
<path d="M79.8345 23.6631V6.71997H82.5103V23.6631H79.8345Z" fill="#141514"/>
<path d="M87.9351 17.1371L90.8299 16.6939C91.4867 16.5953 91.657 16.2752 91.657 15.8812C91.657 14.9207 91.0002 14.1573 89.5406 14.1573C88.1297 14.1573 87.3512 15.0685 87.2296 16.2259L84.7726 15.6595C84.9916 13.6894 86.7431 11.9409 89.5163 11.9409C92.9706 11.9409 94.3085 13.9357 94.3085 16.2013V21.8654C94.3085 22.8998 94.4302 23.5647 94.4545 23.6878H91.9489C91.9246 23.6139 91.8272 23.146 91.8272 22.2348C91.2921 23.0968 90.1974 24.0326 88.3729 24.0326C86.0133 24.0326 84.5537 22.4072 84.5537 20.5849C84.5537 18.5409 86.0133 17.4327 87.9351 17.1371ZM91.657 18.9349V18.4177L88.7135 18.861C87.8864 19.0088 87.2053 19.4767 87.2053 20.4125C87.2053 21.1759 87.7891 21.8901 88.8351 21.8901C90.3677 21.8901 91.657 21.1759 91.657 18.9349Z" fill="#141514"/>
<path d="M96.8386 23.6631V6.71997H99.4659V13.6893C99.9767 12.8027 101.266 11.9901 102.993 11.9901C106.374 11.9901 108.199 14.5759 108.199 17.9251C108.199 21.3728 106.18 23.9586 102.896 23.9586C101.29 23.9586 100.074 23.2691 99.4415 22.1609V23.6877H96.8386V23.6631ZM102.482 14.3789C100.779 14.3789 99.4659 15.6594 99.4659 17.9251C99.4659 20.1661 100.779 21.5206 102.482 21.5206C104.234 21.5206 105.499 20.1661 105.499 17.9251C105.499 15.6594 104.258 14.3789 102.482 14.3789Z" fill="#141514"/>
<path d="M111.434 19.9199C111.532 20.9543 112.286 21.8654 113.721 21.8654C114.84 21.8654 115.4 21.2498 115.4 20.5602C115.4 19.9446 114.986 19.4767 114.086 19.3043L112.432 18.9349C110.437 18.4916 109.415 17.1864 109.415 15.6103C109.415 13.6155 111.215 11.9409 113.551 11.9409C116.689 11.9409 117.711 14.0096 117.905 15.1178L115.643 15.7827C115.545 15.1178 115.059 14.0834 113.575 14.0834C112.626 14.0834 111.97 14.6991 111.97 15.3886C111.97 16.0043 112.407 16.4476 113.113 16.5707L114.816 16.9155C116.932 17.3834 118.051 18.6886 118.051 20.3878C118.051 22.1117 116.664 24.0326 113.794 24.0326C110.534 24.0326 109.294 21.8901 109.148 20.5849L111.434 19.9199Z" fill="#141514"/>
<path d="M25.3555 23.9999H17.0592V21.3897H20.9544L18.6527 17.2337C17.2868 14.4461 16.5786 11.5065 16.5786 8.46552V7.67993H19.285V8.44018C19.285 11.1011 19.8921 13.6859 21.1062 16.0933L25.3555 23.9999Z" fill="#141514"/>
<path d="M13.2228 23.9999H4.87598L9.15058 16.0811C10.3394 13.6699 10.9464 11.1064 10.9464 8.44136V7.67993H13.6528V8.46674C13.6528 11.5125 12.9446 14.482 11.5788 17.2486L11.5535 17.274L9.27705 21.3857H13.2228V23.9999Z" fill="#141514"/>
<path d="M14.1405 5.75988C14.9484 5.75988 15.6034 5.11517 15.6034 4.31988C15.6034 3.52459 14.9484 2.87988 14.1405 2.87988C13.3327 2.87988 12.6777 3.52459 12.6777 4.31988C12.6777 5.11517 13.3327 5.75988 14.1405 5.75988Z" fill="#141514"/>
<path d="M17.5538 2.87996C18.0924 2.87996 18.529 2.45015 18.529 1.91996C18.529 1.38977 18.0924 0.959961 17.5538 0.959961C17.0152 0.959961 16.5786 1.38977 16.5786 1.91996C16.5786 2.45015 17.0152 2.87996 17.5538 2.87996Z" fill="#141514"/>
</svg>
