<svg width="20" height="21" viewBox="0 0 20 21" fill="none" xmlns="http://www.w3.org/2000/svg">
<path d="M10 20.5C15.5228 20.5 20 16.0228 20 10.5C20 4.97715 15.5228 0.5 10 0.5C4.47715 0.5 0 4.97715 0 10.5C0 16.0228 4.47715 20.5 10 20.5Z" fill="#1485BD"/>
<path fill-rule="evenodd" clip-rule="evenodd" d="M16.2899 10.4021H15.451C15.3748 10.4021 15.2222 10.1201 14.8409 9.71935C14.2766 9.12567 13.6512 8.36873 13.2089 7.95316C12.1114 7.0263 11.2144 5.89615 10.5703 4.62857C10.2042 3.87164 10.1737 3.53027 9.42632 3.53027C9.13114 3.56736 8.86145 3.71212 8.67175 3.93528C8.48205 4.15845 8.3865 4.44338 8.40441 4.73247C8.40441 4.94025 8.51118 5.66751 8.55693 5.91982C8.88362 7.08025 9.39851 8.18251 10.0822 9.18504H10.9058H4.37777C4.19288 9.18238 4.00945 9.21737 3.83926 9.28774C3.66907 9.35811 3.51588 9.46231 3.3895 9.59367C3.26312 9.72503 3.16636 9.88065 3.10541 10.0505C3.04445 10.2204 3.02067 10.4008 3.03556 10.5802C3.05907 10.9279 3.2198 11.2534 3.48415 11.4885C3.7485 11.7236 4.09601 11.8502 4.45404 11.8417H4.69808C4.54183 11.8456 4.38789 11.8794 4.24506 11.9411C4.10223 12.0029 3.97331 12.0914 3.86566 12.2017C3.75801 12.312 3.67374 12.4418 3.61767 12.5838C3.56161 12.7257 3.53484 12.8771 3.53889 13.0291C3.54154 13.3282 3.65865 13.6155 3.86735 13.8351C4.07606 14.0546 4.36137 14.1906 4.66757 14.2164C4.48118 14.3552 4.33987 14.5433 4.26057 14.7582C4.18127 14.9732 4.16735 15.2058 4.22047 15.4282C4.2736 15.6507 4.39151 15.8535 4.56008 16.0124C4.72865 16.1712 4.94073 16.2794 5.1709 16.324C5.02475 16.5708 4.97596 16.861 5.03363 17.1403C5.11173 17.4145 5.28172 17.6554 5.51661 17.8248C5.75149 17.9942 6.0378 18.0824 6.33008 18.0753H9.82288C10.2805 18.0753 10.7365 18.0189 11.1803 17.9121L13.3462 17.2887H16.2441C17.7999 17.2294 18.2117 10.4021 16.2899 10.4021Z" fill="#E6F7FF"/>
<path d="M9.45252 9.1129H4.38658C4.19372 9.11115 4.00274 9.14969 3.82662 9.2259C3.65051 9.3021 3.4934 9.41419 3.36599 9.55452C3.23857 9.69485 3.14384 9.86014 3.08825 10.0391C3.03265 10.2181 3.01749 10.4066 3.0438 10.5918C3.07106 10.9357 3.23348 11.2563 3.49755 11.4875C3.76161 11.7186 4.10716 11.8427 4.46288 11.8341H4.70702C4.5507 11.838 4.3967 11.8716 4.25381 11.9332C4.11092 11.9947 3.98194 12.0829 3.87425 12.1928C3.76655 12.3027 3.68225 12.4321 3.62616 12.5735C3.57007 12.715 3.54328 12.8658 3.54734 13.0173C3.55296 13.3159 3.67073 13.6023 3.87859 13.8229C4.08645 14.0434 4.37014 14.1829 4.6765 14.2152C4.53058 14.3262 4.4123 14.4675 4.33041 14.6288C4.24853 14.7901 4.20514 14.9672 4.20347 15.1469C4.20424 15.4244 4.30311 15.6931 4.4836 15.9084C4.66409 16.1238 4.91529 16.2726 5.1953 16.3301C5.04804 16.5811 4.99927 16.8752 5.05797 17.1583C5.13894 17.4287 5.31021 17.6655 5.54493 17.8314C5.77965 17.9974 6.06456 18.0831 6.35497 18.0752H9.84925C10.307 18.0752 10.7633 18.019 11.2073 17.9125L13.374 17.2174H16.2732C17.7991 17.2174 18.2111 10.3552 16.2732 10.3552C15.9937 10.3701 15.7135 10.3701 15.434 10.3552C15.3577 10.3552 15.2051 10.0742 14.8236 9.67489C14.2591 9.08332 13.6335 8.32906 13.1909 7.91496C12.1078 6.98287 11.2262 5.85186 10.5969 4.58736C10.4757 4.30831 10.3111 4.04894 10.1087 3.81832C9.85452 3.61118 9.52661 3.50906 9.19555 3.53395C8.86449 3.55885 8.55676 3.70877 8.33863 3.95142C8.18049 4.11718 8.05161 4.30706 7.95715 4.51342C7.89542 4.65622 7.84939 4.80494 7.81982 4.9571C7.77888 5.37406 7.81506 5.79476 7.92664 6.1994C8.02429 6.62533 8.16315 7.04091 8.33863 7.4417C8.62549 7.96377 8.96424 8.45921 9.34571 8.92064C9.39279 8.94875 9.43002 8.98999 9.45252 9.03895" stroke="#004B7C" stroke-linecap="round" stroke-linejoin="round"/>
</svg>
