<svg width="20" height="21" viewBox="0 0 20 21" fill="none" xmlns="http://www.w3.org/2000/svg">
<path d="M10 20.5C15.5228 20.5 20 16.0228 20 10.5C20 4.97715 15.5228 0.5 10 0.5C4.47715 0.5 0 4.97715 0 10.5C0 16.0228 4.47715 20.5 10 20.5Z" fill="#F5BB5C"/>
<path fill-rule="evenodd" clip-rule="evenodd" d="M11.872 19.2881H9.33919C9.11248 19.2881 8.89505 19.1959 8.73475 19.0318C8.57444 18.8677 8.48438 18.6451 8.48438 18.4131V16.2578H12.7268V18.4131C12.7268 18.6451 12.6367 18.8677 12.4764 19.0318C12.3161 19.1959 12.0987 19.2881 11.872 19.2881Z" fill="#FFE1B2"/>
<path fill-rule="evenodd" clip-rule="evenodd" d="M8.36968 16.2577V15.8913C8.36968 15.4121 8.30219 14.9371 8.17333 14.4818C8.00135 14.0829 7.7825 13.713 7.5229 13.3825C7.07081 12.9557 6.70572 12.4203 6.45339 11.8139C6.20106 11.2076 6.06763 10.545 6.0625 9.87295C6.0625 8.67302 6.47754 7.52225 7.21632 6.67377C7.9551 5.8253 8.9571 5.34863 10.0019 5.34863C11.0467 5.34863 12.0487 5.8253 12.7875 6.67377C13.5262 7.52225 13.9413 8.67302 13.9413 9.87295C13.9308 10.5597 13.7903 11.2356 13.5297 11.8538C13.269 12.472 12.8944 13.0176 12.4318 13.4529C12.5177 13.3825 12.3336 13.5375 12.2109 13.7348C12.0901 13.9393 11.9951 14.1623 11.9286 14.3973C11.8036 14.8532 11.7415 15.3287 11.7446 15.8067V16.1732" fill="#FCF0DE"/>
<path d="M10.3037 5.9541C9.55986 6.08144 8.87692 6.45114 8.35797 7.00741C7.81383 7.54438 7.43674 8.23177 7.27344 8.9844" stroke="white" stroke-linecap="round" stroke-linejoin="round"/>
<path fill-rule="evenodd" clip-rule="evenodd" d="M11.872 19.2881H9.33919C9.11248 19.2881 8.89505 19.1959 8.73475 19.0318C8.57444 18.8677 8.48438 18.6451 8.48438 18.4131V16.2578H12.7268V18.4131C12.7268 18.6451 12.6367 18.8677 12.4764 19.0318C12.3161 19.1959 12.0987 19.2881 11.872 19.2881V19.2881Z" stroke="#5D3B01" stroke-linecap="round" stroke-linejoin="round"/>
<path d="M10.5933 1.71191V3.49299M8.5977 16.2574V15.8898C8.6017 15.4105 8.52518 14.9335 8.37093 14.4763C8.27245 14.2393 8.14024 14.0158 7.97786 13.8119C7.81626 13.5904 7.62863 13.3865 7.41849 13.2041C7.2168 13.0344 7.02977 12.85 6.85911 12.6528C6.1591 11.8557 5.77464 10.8571 5.77061 9.82571C5.77061 8.62228 6.2819 7.46815 7.192 6.61721C8.1021 5.76626 9.33646 5.2882 10.6235 5.2882C11.9106 5.2882 13.145 5.76626 14.0551 6.61721C14.9652 7.46815 15.4765 8.62228 15.4765 9.82571C15.4585 10.8572 15.0698 11.853 14.3728 12.6528C14.1158 12.9497 13.8286 13.2182 13.5111 13.4585C13.4028 13.5505 13.3017 13.6497 13.2087 13.7554C13.0645 13.9608 12.9525 14.1846 12.8761 14.4198C12.7221 14.877 12.6456 15.3539 12.6494 15.8333V16.2008L8.5977 16.2574ZM5.45312 3.31771L6.37533 4.43583L5.45312 3.31771ZM15.7562 3.31206L14.8415 4.43583L15.7562 3.31206Z" stroke="#5D3B01" stroke-linecap="round" stroke-linejoin="round"/>
</svg>
