<svg width="20" height="21" viewBox="0 0 20 21" fill="none" xmlns="http://www.w3.org/2000/svg">
<path d="M20 10.5C20 4.97715 15.5228 0.5 10 0.5C4.47715 0.5 0 4.97715 0 10.5C0 16.0228 4.47715 20.5 10 20.5C15.5228 20.5 20 16.0228 20 10.5Z" fill="white"/>
<path d="M20 10.5C20 4.97715 15.5228 0.5 10 0.5C4.47715 0.5 0 4.97715 0 10.5C0 16.0228 4.47715 20.5 10 20.5C15.5228 20.5 20 16.0228 20 10.5Z" fill="#D8D8D8"/>
<mask id="mask0_2453_35107" style="mask-type:alpha" maskUnits="userSpaceOnUse" x="0" y="0" width="20" height="21">
<path d="M10 20.5C15.5228 20.5 20 16.0228 20 10.5C20 4.97715 15.5228 0.5 10 0.5C4.47715 0.5 0 4.97715 0 10.5C0 16.0228 4.47715 20.5 10 20.5Z" fill="#6DAE4F"/>
</mask>
<g mask="url(#mask0_2453_35107)">
<path d="M20 10.5C20 4.97715 15.5228 0.5 10 0.5C4.47715 0.5 0 4.97715 0 10.5C0 16.0228 4.47715 20.5 10 20.5C15.5228 20.5 20 16.0228 20 10.5Z" fill="#6DAE4F"/>
<path d="M15.7564 11.9003C15.7298 10.7981 15.5525 9.70397 15.2292 8.64584C14.3426 7.96338 13.6689 7.06082 13.2813 6.03663C13.047 5.29315 12.8859 5.02662 12.1975 5.01259C12.0574 5.02479 11.9213 5.06372 11.7971 5.12709C11.673 5.19045 11.5633 5.27697 11.4746 5.38155C11.3859 5.48612 11.3199 5.60664 11.2806 5.73601C11.2413 5.86538 11.2293 6.00098 11.2456 6.13483C11.2543 6.4715 11.2836 6.80958 11.3334 7.14485C11.5341 8.06368 11.8167 8.96568 12.1829 9.83823L5.59235 5.04065C5.48242 4.93807 5.35127 4.85871 5.20735 4.80766C5.06343 4.75662 4.90994 4.73502 4.75678 4.74427C4.60362 4.75353 4.45417 4.79342 4.31809 4.86138C4.18201 4.92934 4.0623 5.02386 3.9667 5.13884C3.89402 5.25521 3.84655 5.3844 3.82712 5.51871C3.80769 5.65303 3.81669 5.78971 3.85359 5.92062C3.8905 6.05153 3.95454 6.17399 4.04191 6.28068C4.12928 6.38737 4.23818 6.47613 4.36213 6.54164L7.65738 8.9264L8.52147 9.71197L3.293 5.91038C3.18819 5.80914 3.06191 5.73064 2.9227 5.68017C2.78348 5.6297 2.63458 5.60845 2.48605 5.61786C2.33753 5.62726 2.19284 5.66709 2.06177 5.73467C1.9307 5.80225 1.81631 5.89599 1.72632 6.00956C1.63634 6.12313 1.57286 6.25388 1.54017 6.39298C1.50749 6.53207 1.50636 6.67626 1.53687 6.81581C1.56738 6.95536 1.62881 7.08701 1.71701 7.20185C1.80521 7.3167 1.91813 7.41207 2.04812 7.48152L5.34338 9.86628L7.32053 11.2691L3.04402 8.19695C2.93409 8.09438 2.80294 8.01501 2.65902 7.96396C2.5151 7.91292 2.36161 7.89132 2.20845 7.90058C2.05528 7.90983 1.90584 7.94972 1.76976 8.01768C1.63368 8.08564 1.51397 8.18016 1.41836 8.29514C0.96435 8.85626 1.33049 9.43141 1.79915 9.78211L5.09441 12.1528L6.74936 13.3452L3.4541 10.9605C3.35258 10.8546 3.22922 10.7701 3.09182 10.7123C2.95442 10.6545 2.80599 10.6246 2.65592 10.6246C2.50584 10.6246 2.35741 10.6545 2.22001 10.7123C2.08261 10.7701 1.95925 10.8546 1.85773 10.9605C1.76784 11.0805 1.70533 11.2172 1.67426 11.3619C1.6432 11.5065 1.64428 11.6558 1.67744 11.8001C1.71059 11.9443 1.77508 12.0802 1.8667 12.199C1.95833 12.3178 2.07503 12.4168 2.20922 12.4895L8.21391 16.6979C9.08386 17.325 11.2456 17.8665 12.1975 17.0739" stroke="#165209" stroke-linecap="round" stroke-linejoin="round"/>
<path fill-rule="evenodd" clip-rule="evenodd" d="M15.7564 12.7406L15.1689 12.2383C15.0925 11.2394 14.8517 10.2587 14.4556 9.33368C13.6367 8.4015 13.0568 7.29454 12.7631 6.10325C12.5393 5.38387 12.3855 5.12598 11.7281 5.11241C11.5943 5.12422 11.4643 5.16188 11.3457 5.22319C11.2271 5.2845 11.1224 5.36822 11.0377 5.4694C10.9529 5.57059 10.8899 5.6872 10.8524 5.81238C10.8148 5.93755 10.8034 6.06876 10.8189 6.19827C10.8273 6.52402 10.8553 6.85114 10.9028 7.17554C11.0637 8.03201 11.3224 8.86947 11.6721 9.67301L11.4064 9.5237L5.37786 5.03097C5.27287 4.93172 5.14761 4.85493 5.01016 4.80554C4.87271 4.75615 4.72612 4.73525 4.57984 4.74421C4.43357 4.75316 4.29084 4.79176 4.16088 4.85751C4.03091 4.92327 3.91659 5.01472 3.82528 5.12598C3.7439 5.24204 3.68886 5.37356 3.66382 5.51181C3.63877 5.65007 3.64428 5.79191 3.67999 5.92795C3.7157 6.06398 3.78078 6.1911 3.87094 6.30088C3.96109 6.41066 4.07426 6.5006 4.20293 6.56474L7.28012 8.85861L8.17531 9.55085L3.18186 5.87251C3.07781 5.77248 2.95332 5.69471 2.81641 5.64419C2.67951 5.59368 2.53322 5.57155 2.38697 5.57922C2.24071 5.58689 2.09773 5.6242 1.96724 5.68874C1.83674 5.75328 1.72162 5.84362 1.62928 5.95395C1.54955 6.06981 1.49553 6.20051 1.47066 6.33773C1.44579 6.47494 1.45061 6.61568 1.48481 6.75099C1.51901 6.88631 1.58185 7.01324 1.66933 7.12371C1.75681 7.23419 1.86702 7.32579 1.99295 7.39271L5.14008 9.70015L7.02835 11.0575L2.94408 8.09852C2.84112 7.99652 2.71693 7.91699 2.57979 7.86524C2.44266 7.8135 2.29573 7.79072 2.1488 7.79842C2.00188 7.80613 1.85834 7.84415 1.72775 7.90994C1.59716 7.97573 1.48253 8.06778 1.3915 8.17995C1.3096 8.29516 1.25379 8.4259 1.22774 8.56356C1.20168 8.70121 1.20597 8.84267 1.24033 8.97859C1.27469 9.11452 1.33834 9.24185 1.42707 9.35218C1.51581 9.46251 1.62763 9.55335 1.75516 9.61871L4.90229 11.9126L6.48285 13.0663L3.33572 10.7724C3.24118 10.6662 3.12416 10.5809 2.99261 10.5225C2.86107 10.464 2.71809 10.4338 2.57342 10.4338C2.42874 10.4338 2.28577 10.464 2.15422 10.5225C2.02268 10.5809 1.90565 10.6662 1.81111 10.7724C1.72549 10.8874 1.66595 11.0187 1.6364 11.1577C1.60686 11.2966 1.60798 11.4401 1.63969 11.5786C1.67141 11.717 1.733 11.8474 1.8204 11.9612C1.90781 12.0749 2.01905 12.1694 2.14681 12.2383L7.88158 16.4596C8.29301 16.76 8.763 16.9763 9.26309 17.0953C9.76317 17.2143 10.2829 17.2335 10.7909 17.1518C11.5434 17.5753 12.2008 17.5753 12.7631 17.1518C13.6052 16.5153 13.3282 16.4583 13.952 15.6181C14.6581 14.7244 15.263 13.7597 15.7564 12.7406Z" fill="#DCF0CB"/>
<path d="M15.7564 11.8241C15.7298 10.7336 15.5525 9.65113 15.2292 8.60427C14.3426 7.92907 13.6689 7.03612 13.2813 6.02285C13.047 5.28728 12.8859 5.02359 12.1975 5.00971C12.0574 5.02178 11.9213 5.0603 11.7971 5.12299C11.673 5.18568 11.5633 5.27127 11.4746 5.37474C11.3859 5.4782 11.3199 5.59744 11.2806 5.72543C11.2413 5.85342 11.2293 5.98758 11.2456 6.12C11.2543 6.45308 11.2836 6.78756 11.3334 7.11926C11.5341 8.02831 11.8167 8.9207 12.1829 9.78395L5.59235 5.03747C5.48242 4.93599 5.35127 4.85747 5.20735 4.80696C5.06343 4.75646 4.90994 4.7351 4.75678 4.74425C4.60362 4.7534 4.45417 4.79287 4.31809 4.86011C4.18201 4.92734 4.0623 5.02086 3.9667 5.13462C3.89402 5.24974 3.84655 5.37756 3.82712 5.51044C3.80769 5.64333 3.81669 5.77856 3.85359 5.90807C3.8905 6.03759 3.95454 6.15874 4.04191 6.26429C4.12928 6.36985 4.23818 6.45766 4.36213 6.52248L7.65738 8.88184L8.52147 9.65904L3.293 5.89794C3.18819 5.79778 3.06191 5.72011 2.9227 5.67018C2.78348 5.62025 2.63458 5.59923 2.48605 5.60853C2.33753 5.61783 2.19284 5.65724 2.06177 5.7241C1.9307 5.79096 1.81631 5.8837 1.72632 5.99606C1.63634 6.10842 1.57286 6.23778 1.54017 6.37539C1.50749 6.51301 1.50636 6.65567 1.53687 6.79373C1.56738 6.93179 1.62881 7.06203 1.71701 7.17566C1.80521 7.28928 1.91813 7.38364 2.04812 7.45234L5.34338 9.81171L7.32053 11.1996L3.04402 8.16015C2.93409 8.05868 2.80294 7.98016 2.65902 7.92965C2.5151 7.87915 2.36161 7.85779 2.20845 7.86694C2.05528 7.87609 1.90584 7.91556 1.76976 7.98279C1.63368 8.05003 1.51397 8.14354 1.41836 8.2573C0.96435 8.81245 1.33049 9.38147 1.79915 9.72844L5.09441 12.0739L6.74936 13.2536L3.4541 10.8942C3.35258 10.7895 3.22922 10.7059 3.09182 10.6487C2.95442 10.5915 2.80599 10.562 2.65592 10.562C2.50584 10.562 2.35741 10.5915 2.22001 10.6487C2.08261 10.7059 1.95925 10.7895 1.85773 10.8942C1.76784 11.013 1.70533 11.1483 1.67426 11.2914C1.6432 11.4345 1.64428 11.5822 1.67744 11.7249C1.71059 11.8676 1.77508 12.0021 1.8667 12.1196C1.95833 12.2371 2.07503 12.3351 2.20922 12.407L8.21391 16.5706C9.08386 17.191 11.1225 17.6004 12.1975 17.4311" stroke="#165209" stroke-linecap="round" stroke-linejoin="round"/>
<path fill-rule="evenodd" clip-rule="evenodd" d="M18.7264 16.5924C18.442 16.2614 18.2221 15.8713 18.0798 15.4455C18.0798 15.1091 17.9954 14.788 17.9392 14.4515C17.8952 13.8647 17.7216 13.2982 17.4331 12.8C16.6184 11.7439 16.0365 10.499 15.7322 9.16058C15.5073 8.35012 15.3527 8.05957 14.692 8.04428C14.5575 8.05758 14.4268 8.10002 14.3077 8.1691C14.1885 8.23817 14.0833 8.33248 13.9981 8.44648C13.913 8.56048 13.8496 8.69186 13.8119 8.83288C13.7741 8.9739 13.7627 9.12172 13.7783 9.26762C13.7881 9.63463 13.8162 10.0016 13.8626 10.3686C14.1156 11.7755 14.3827 12.9377 14.4108 13.0141L8.38029 8.10545C8.27586 7.9914 8.15026 7.90291 8.01188 7.84587C7.8735 7.78884 7.72552 7.76457 7.57784 7.7747C7.43015 7.78484 7.28615 7.82913 7.15546 7.90462C7.02476 7.98012 6.91038 8.08508 6.81994 8.21249C6.74962 8.33842 6.70325 8.47842 6.68358 8.62419C6.66391 8.76997 6.67133 8.91856 6.70542 9.06116C6.7395 9.20376 6.79954 9.33746 6.882 9.45436C6.96445 9.57125 7.06763 9.66895 7.18543 9.74167L10.3483 12.3413L11.3042 13.1976L6.2436 9.05354C6.14012 8.93863 6.01531 8.84903 5.87749 8.79073C5.73967 8.73244 5.592 8.70677 5.44434 8.71545C5.29669 8.72414 5.15243 8.76697 5.02118 8.84109C4.88994 8.91521 4.77474 9.01891 4.68325 9.14529C4.60095 9.27509 4.54486 9.42238 4.51867 9.57746C4.49249 9.73255 4.4968 9.89191 4.53133 10.0451C4.56586 10.1982 4.62982 10.3416 4.719 10.4659C4.80819 10.5902 4.92056 10.6926 5.04874 10.7662L8.2116 13.3658L10.1093 14.895L5.99057 11.5461C5.88535 11.4355 5.75986 11.3503 5.6223 11.296C5.48475 11.2418 5.33822 11.2197 5.19228 11.2313C5.04635 11.2428 4.9043 11.2877 4.77541 11.363C4.64651 11.4384 4.53368 11.5424 4.44428 11.6684C4.0085 12.2801 4.34588 12.9071 4.80976 13.2894L7.97263 15.8584L9.54704 17.1582L6.32794 14.5586C6.13056 14.372 5.87518 14.2745 5.61393 14.2859C5.35268 14.2972 5.10527 14.4167 4.92222 14.6197C4.83617 14.7451 4.77493 14.8884 4.74237 15.0408C4.70981 15.1931 4.70664 15.3512 4.73306 15.5049C4.75948 15.6587 4.81491 15.8048 4.89586 15.934C4.97681 16.0633 5.08151 16.1729 5.20336 16.256L10.8262 20.8435C11.2958 21.2258 11.8384 21.4873 12.4147 21.6081L13.23 21.7457C13.6588 21.8145 14.0735 21.9644 14.453 22.1892C14.7154 22.3286 15.0164 22.3559 15.2964 22.2656C16.285 21.8864 17.15 21.2006 17.7846 20.293C18.3789 19.3993 18.7208 18.3365 18.7686 17.2346C18.8042 17.0201 18.7897 16.7992 18.7264 16.5924Z" stroke="#165209" stroke-linecap="round" stroke-linejoin="round"/>
<path fill-rule="evenodd" clip-rule="evenodd" d="M18.7876 16.5105L18.1542 15.995C18.0841 14.8779 17.8415 13.7812 17.4364 12.7501C16.618 11.7047 16.0351 10.4696 15.7332 9.14131C15.508 8.33767 15.3532 8.04958 14.6917 8.03441C14.557 8.0476 14.4262 8.08968 14.3069 8.15817C14.1875 8.22667 14.0821 8.32018 13.9969 8.43322C13.9116 8.54626 13.8482 8.67653 13.8104 8.81637C13.7726 8.9562 13.7612 9.10277 13.7767 9.24745C13.7866 9.61136 13.8147 9.97527 13.8612 10.3392C14.1146 11.7493 14.382 12.9017 14.4101 12.9624L8.37173 8.09507C8.26608 7.9842 8.14003 7.89841 8.00171 7.84323C7.8634 7.78806 7.71588 7.76472 7.56868 7.77472C7.42147 7.78472 7.27785 7.82783 7.14706 7.90129C7.01628 7.97475 6.90123 8.07692 6.80934 8.20121C6.373 8.82289 6.72489 9.42941 7.17531 9.80848L10.3423 12.371L11.2994 13.2201L6.23225 9.03517C6.12659 8.9243 6.00054 8.83851 5.86223 8.78334C5.72391 8.72816 5.5764 8.70482 5.42919 8.71482C5.28199 8.72482 5.13837 8.76794 5.00758 8.8414C4.87679 8.91485 4.76175 9.01702 4.66986 9.14131C4.23352 9.74783 4.58541 10.3695 5.03583 10.7486L8.20282 13.3111L10.103 14.8274L5.97889 11.5067C5.87447 11.3962 5.7496 11.3106 5.61241 11.2556C5.47523 11.2006 5.32882 11.1773 5.18273 11.1873C5.03663 11.1973 4.89414 11.2404 4.76454 11.3137C4.63494 11.387 4.52115 11.489 4.43058 11.6129C4.34588 11.7408 4.28781 11.8869 4.26034 12.0412C4.23286 12.1955 4.23662 12.3543 4.27136 12.5069C4.30611 12.6595 4.37101 12.8022 4.46165 12.9253C4.55229 13.0484 4.66652 13.149 4.79654 13.2201L7.96354 15.7827L9.54 17.0715L6.3167 14.509C6.12219 14.3168 5.86502 14.2154 5.60132 14.2267C5.33761 14.2381 5.08879 14.3614 4.90914 14.5696C4.81083 14.6942 4.73936 14.8407 4.69988 14.9986C4.66039 15.1565 4.65388 15.3219 4.6808 15.4828C4.70771 15.6438 4.7674 15.7963 4.85555 15.9294C4.94371 16.0625 5.05816 16.1729 5.19066 16.2527L10.8209 20.8016C11.6745 21.35 12.6427 21.6577 13.636 21.6962C13.9964 21.9335 14.3728 22.1413 14.762 22.3179C15.8913 22.0886 16.8975 21.4057 17.5771 20.4074C18.319 19.2603 18.7392 17.9076 18.7876 16.5105Z" fill="#DDF6D1"/>
<path fill-rule="evenodd" clip-rule="evenodd" d="M18.7264 16.5924C18.442 16.2614 18.2221 15.8713 18.0798 15.4455C18.0798 15.1091 17.9954 14.788 17.9392 14.4515C17.8952 13.8647 17.7216 13.2982 17.4331 12.8C16.6184 11.7439 16.0365 10.499 15.7322 9.16058C15.5073 8.35012 15.3527 8.05957 14.692 8.04428C14.5575 8.05758 14.4268 8.10002 14.3077 8.1691C14.1885 8.23817 14.0833 8.33248 13.9981 8.44648C13.913 8.56048 13.8496 8.69186 13.8119 8.83288C13.7741 8.9739 13.7627 9.12172 13.7783 9.26762C13.7881 9.63463 13.8162 10.0016 13.8626 10.3686C14.1156 11.7755 14.3827 12.9377 14.4108 13.0141L8.38029 8.10545C8.27586 7.9914 8.15026 7.90291 8.01188 7.84587C7.8735 7.78884 7.72552 7.76457 7.57784 7.7747C7.43015 7.78484 7.28615 7.82913 7.15546 7.90462C7.02476 7.98012 6.91038 8.08508 6.81994 8.21249C6.74962 8.33842 6.70325 8.47842 6.68358 8.62419C6.66391 8.76997 6.67133 8.91856 6.70542 9.06116C6.7395 9.20376 6.79954 9.33746 6.882 9.45436C6.96445 9.57125 7.06763 9.66895 7.18543 9.74167L10.3483 12.3413L11.3042 13.1976L6.2436 9.05354C6.14012 8.93863 6.01531 8.84903 5.87749 8.79073C5.73967 8.73244 5.592 8.70677 5.44434 8.71545C5.29669 8.72414 5.15243 8.76697 5.02118 8.84109C4.88994 8.91521 4.77474 9.01891 4.68325 9.14529C4.60095 9.27509 4.54486 9.42238 4.51867 9.57746C4.49249 9.73255 4.4968 9.89191 4.53133 10.0451C4.56586 10.1982 4.62982 10.3416 4.719 10.4659C4.80819 10.5902 4.92056 10.6926 5.04874 10.7662L8.2116 13.3658L10.1093 14.895L5.99057 11.5461C5.88535 11.4355 5.75986 11.3503 5.6223 11.296C5.48475 11.2418 5.33822 11.2197 5.19228 11.2313C5.04635 11.2428 4.9043 11.2877 4.77541 11.363C4.64651 11.4384 4.53368 11.5424 4.44428 11.6684C4.0085 12.2801 4.34588 12.9071 4.80976 13.2894L7.97263 15.8584L9.54704 17.1582L6.32794 14.5586C6.13056 14.372 5.87518 14.2745 5.61393 14.2859C5.35268 14.2972 5.10527 14.4167 4.92222 14.6197C4.83617 14.7451 4.77493 14.8884 4.74237 15.0408C4.70981 15.1931 4.70664 15.3512 4.73306 15.5049C4.75948 15.6587 4.81491 15.8048 4.89586 15.934C4.97681 16.0633 5.08151 16.1729 5.20336 16.256L10.8262 20.8435C11.2958 21.2258 11.8384 21.4873 12.4147 21.6081L13.23 21.7457C13.6588 21.8145 14.0735 21.9644 14.453 22.1892C14.7154 22.3286 15.0164 22.3559 15.2964 22.2656C16.285 21.8864 17.15 21.2006 17.7846 20.293C18.3789 19.3993 18.7208 18.3365 18.7686 17.2346C18.8042 17.0201 18.7897 16.7992 18.7264 16.5924Z" stroke="#165209" stroke-linecap="round" stroke-linejoin="round"/>
<path d="M8.05328 1.72339L7.22769 3.96062M9.69555 3.42282L8.76692 4.74222L9.69555 3.42282ZM5.45312 1.71191L5.53581 3.42282L5.45312 1.71191Z" stroke="#165209" stroke-linecap="round" stroke-linejoin="round"/>
</g>
</svg>
