<svg width="20" height="21" viewBox="0 0 20 21" fill="none" xmlns="http://www.w3.org/2000/svg">
<path d="M20 10.5C20 4.97715 15.5228 0.5 10 0.5C4.47715 0.5 0 4.97715 0 10.5C0 16.0228 4.47715 20.5 10 20.5C15.5228 20.5 20 16.0228 20 10.5Z" fill="#DEB8DC"/>
<path d="M17.5767 10.803C17.5767 6.78638 14.3206 3.53027 10.304 3.53027C6.28736 3.53027 3.03125 6.78638 3.03125 10.803C3.03125 14.8196 6.28736 18.0757 10.304 18.0757C14.3206 18.0757 17.5767 14.8196 17.5767 10.803Z" fill="#F9F0F8" stroke="#523951"/>
<mask id="mask0_2453_34802" style="mask-type:alpha" maskUnits="userSpaceOnUse" x="3" y="4" width="14" height="14">
<path d="M10.2995 17.4701C8.53196 17.4681 6.83739 16.7651 5.58756 15.5153C4.33773 14.2655 3.63474 12.5709 3.63281 10.8034C3.63281 7.12702 6.62433 4.13672 10.2995 4.13672C13.9746 4.13672 16.9661 7.12702 16.9661 10.8034C16.9661 14.4797 13.9746 17.4701 10.2995 17.4701Z" fill="white"/>
</mask>
<g mask="url(#mask0_2453_34802)">
<path fill-rule="evenodd" clip-rule="evenodd" d="M8.31652 7.77246C8.17954 7.77246 8.04391 7.79905 7.91735 7.85072C7.7908 7.90238 7.67581 7.9781 7.57895 8.07356C7.48209 8.16902 7.40526 8.28235 7.35284 8.40708C7.30042 8.5318 7.27344 8.66548 7.27344 8.80049C7.27344 8.93549 7.30042 9.06917 7.35284 9.19389C7.40526 9.31862 7.48209 9.43195 7.57895 9.52741C7.67581 9.62287 7.7908 9.6986 7.91735 9.75026C8.04391 9.80192 8.17954 9.82851 8.31652 9.82851C8.59317 9.82851 8.85848 9.7202 9.0541 9.52741C9.24972 9.33462 9.35961 9.07314 9.35961 8.80049C9.35961 8.52784 9.24972 8.26635 9.0541 8.07356C8.85848 7.88077 8.59317 7.77246 8.31652 7.77246ZM13.5031 8.74671C13.3661 8.74671 13.2305 8.7733 13.1039 8.82497C12.9774 8.87663 12.8624 8.95235 12.7655 9.04781C12.6686 9.14328 12.5918 9.2566 12.5394 9.38133C12.487 9.50606 12.46 9.63974 12.46 9.77474C12.46 9.90974 12.487 10.0434 12.5394 10.1681C12.5918 10.2929 12.6686 10.4062 12.7655 10.5017C12.8624 10.5971 12.9774 10.6728 13.1039 10.7245C13.2305 10.7762 13.3661 10.8028 13.5031 10.8028C13.7797 10.8028 14.045 10.6945 14.2407 10.5017C14.4363 10.3089 14.5462 10.0474 14.5462 9.77474C14.5462 9.50209 14.4363 9.24061 14.2407 9.04781C14.045 8.85502 13.7797 8.74671 13.5031 8.74671Z" fill="#523951" stroke="#523951"/>
<path d="M12.5737 6.85309C12.9232 6.78551 13.3107 6.78551 13.6602 6.85309C14.0219 6.89841 14.3365 7.00965 14.5462 7.16622M7.27344 6.18808C7.53785 6.05294 7.89343 5.97301 8.26725 5.96229C8.64106 5.93428 9.01944 5.97877 9.33095 6.0859L7.27344 6.18808Z" stroke="#523951" stroke-linecap="round" stroke-linejoin="round"/>
<path fill-rule="evenodd" clip-rule="evenodd" d="M10.6074 13.2105C10.7098 13.1917 10.815 13.1945 10.9162 13.2186C11.0175 13.2427 11.1127 13.2876 11.1956 13.3505C11.3653 13.4778 11.4784 13.6701 11.5095 13.8851C11.5354 14.0919 11.4844 14.3011 11.3663 14.4729C11.2483 14.6447 11.0713 14.7672 10.869 14.8171L8.89652 15.1637C9.06619 15.1354 9.24011 15.1792 9.37727 15.2867C9.51738 15.3953 9.60886 15.555 9.63178 15.7308C9.66034 15.9008 9.62481 16.0753 9.53208 16.2206C9.43934 16.3659 9.296 16.4716 9.12982 16.5172C9.31364 16.6162 9.4409 16.8001 9.47483 17.0122C9.5002 17.1714 9.47151 17.3346 9.39334 17.4756C9.31517 17.6166 9.19203 17.7273 9.04357 17.7901C9.14693 17.9274 9.19534 18.0984 9.17931 18.2696C9.16511 18.4322 9.09679 18.5854 8.98528 18.7046C8.87378 18.8238 8.72553 18.9022 8.56423 18.9272L8.33517 18.9781C7.7413 19.1125 7.14178 19.2157 6.53801 19.2865C5.85083 19.2964 5.16428 19.2405 4.48775 19.1196C4.25608 19.0661 4.04232 18.9533 3.86752 18.7921C3.69272 18.6309 3.56292 18.4269 3.4909 18.2003C3.04267 17.2314 2.79805 15.3984 3.34667 14.8681C3.89671 14.3391 3.80197 14.472 4.06497 13.8427C4.32656 13.2147 4.60228 12.4934 4.81155 11.8767C5.02082 11.2629 5.10283 10.9857 5.49167 10.8358C5.68213 10.7788 5.88709 10.796 6.06543 10.8838C6.24376 10.9717 6.38227 11.1238 6.45317 11.3096C6.50973 11.7367 6.49135 12.1723 6.39378 12.591C6.29481 13.4452 6.29198 13.6418 6.39378 13.9332L10.6074 13.2119V13.2105Z" stroke="#523951" stroke-linecap="round" stroke-linejoin="round"/>
<path d="M5.89889 14.0308L10.6074 13.2105C10.7098 13.1917 10.815 13.1945 10.9162 13.2186C11.0175 13.2427 11.1127 13.2876 11.1956 13.3505C11.3653 13.4778 11.4784 13.6701 11.5095 13.8851C11.5354 14.0919 11.4844 14.3011 11.3663 14.4729C11.2483 14.6447 11.0713 14.7672 10.869 14.8171L8.89652 15.1637C9.0662 15.1354 9.24011 15.1792 9.37727 15.2867C9.51738 15.3953 9.60886 15.555 9.63178 15.7308C9.66034 15.9008 9.62481 16.0753 9.53208 16.2206C9.43934 16.3659 9.296 16.4716 9.12982 16.5172C9.31364 16.6162 9.4409 16.8001 9.47483 17.0122C9.5002 17.1714 9.47151 17.3346 9.39334 17.4756C9.31517 17.6166 9.19203 17.7273 9.04357 17.7901C9.14693 17.9274 9.19534 18.0984 9.17931 18.2696C9.16511 18.4322 9.09679 18.5854 8.98528 18.7046C8.87378 18.8238 8.72553 18.9022 8.56423 18.9272L8.33517 18.9781C7.7413 19.1125 7.14178 19.2157 6.53801 19.2865C5.85083 19.2964 5.16428 19.2405 4.48775 19.1196C4.25608 19.0661 4.04232 18.9533 3.86752 18.7921C3.69272 18.6309 3.56292 18.4269 3.4909 18.2003C3.04267 17.2314 2.79805 15.3984 3.34667 14.8681C3.89671 14.3391 3.80197 14.472 4.06497 13.8427C4.32656 13.2147 4.60228 12.4934 4.81155 11.8767C5.02082 11.2629 5.10283 10.9857 5.49167 10.8358C5.68213 10.7788 5.88709 10.796 6.06543 10.8838C6.24376 10.9717 6.38227 11.1238 6.45317 11.3096C6.50973 11.7367 6.49135 12.1723 6.39378 12.591C6.29481 13.4452 6.29198 13.6418 6.39378 13.9332" fill="#F9F0F8"/>
<path fill-rule="evenodd" clip-rule="evenodd" d="M10.6074 13.2105C10.7098 13.1917 10.815 13.1945 10.9162 13.2186C11.0175 13.2427 11.1127 13.2876 11.1956 13.3505C11.3653 13.4778 11.4784 13.6701 11.5095 13.8851C11.5354 14.0919 11.4844 14.3011 11.3663 14.4729C11.2483 14.6447 11.0713 14.7672 10.869 14.8171L8.89652 15.1637C9.06619 15.1354 9.24011 15.1792 9.37727 15.2867C9.51738 15.3953 9.60886 15.555 9.63178 15.7308C9.66034 15.9008 9.62481 16.0753 9.53208 16.2206C9.43934 16.3659 9.296 16.4716 9.12982 16.5172C9.31364 16.6162 9.4409 16.8001 9.47483 17.0122C9.5002 17.1714 9.47151 17.3346 9.39334 17.4756C9.31517 17.6166 9.19203 17.7273 9.04357 17.7901C9.14693 17.9274 9.19534 18.0984 9.17931 18.2696C9.16511 18.4322 9.09679 18.5854 8.98528 18.7046C8.87378 18.8238 8.72553 18.9022 8.56423 18.9272L8.33517 18.9781C7.7413 19.1125 7.14178 19.2157 6.53801 19.2865C5.85083 19.2964 5.16428 19.2405 4.48775 19.1196C4.25608 19.0661 4.04232 18.9533 3.86752 18.7921C3.69272 18.6309 3.56292 18.4269 3.4909 18.2003C3.04267 17.2314 2.79805 15.3984 3.34667 14.8681C3.89671 14.3391 3.80197 14.472 4.06497 13.8427C4.32656 13.2147 4.60228 12.4934 4.81155 11.8767C5.02082 11.2629 5.10283 10.9857 5.49167 10.8358C5.68213 10.7788 5.88709 10.796 6.06543 10.8838C6.24376 10.9717 6.38227 11.1238 6.45317 11.3096C6.50973 11.7367 6.49135 12.1723 6.39378 12.591C6.29481 13.4452 6.29198 13.6418 6.39378 13.9332L10.6074 13.2119V13.2105Z" stroke="#523951" stroke-linecap="round" stroke-linejoin="round"/>
</g>
</svg>
