<svg width="20" height="21" viewBox="0 0 20 21" fill="none" xmlns="http://www.w3.org/2000/svg">
<path d="M10 20.5C15.5228 20.5 20 16.0228 20 10.5C20 4.97715 15.5228 0.5 10 0.5C4.47715 0.5 0 4.97715 0 10.5C0 16.0228 4.47715 20.5 10 20.5Z" fill="#DF704D"/>
<path fill-rule="evenodd" clip-rule="evenodd" d="M9.8625 5.89249C9.492 5.52799 9.05185 5.23881 8.56727 5.04149C8.08269 4.84418 7.5632 4.74261 7.03856 4.74261C6.51391 4.74261 5.99442 4.84418 5.50985 5.04149C5.02527 5.23881 4.58512 5.52799 4.21462 5.89249C3.83947 6.26014 3.54187 6.69675 3.33882 7.17735C3.13576 7.65794 3.03125 8.1731 3.03125 8.69337C3.03125 9.21363 3.13576 9.72879 3.33882 10.2094C3.54187 10.69 3.83947 11.1266 4.21462 11.4942L10.304 17.4695L16.3933 11.4942C16.7685 11.1266 17.0661 10.69 17.2691 10.2094C17.4722 9.72879 17.5767 9.21363 17.5767 8.69337C17.5767 8.1731 17.4722 7.65794 17.2691 7.17735C17.0661 6.69675 16.7685 6.26014 16.3933 5.89249C16.0253 5.52682 15.5867 5.23677 15.1031 5.03928C14.6196 4.84179 14.1008 4.74082 13.577 4.74226C13.053 4.73914 12.5337 4.83935 12.0499 5.03693C11.5661 5.23452 11.1277 5.52546 10.7607 5.89249L10.304 6.34063L9.8625 5.89249Z" fill="#FFF3F0" stroke="#77280C"/>
<path fill-rule="evenodd" clip-rule="evenodd" d="M9.8602 5.80137C9.48987 5.46675 9.04811 5.20096 8.56073 5.01952C8.07335 4.83809 7.55012 4.74464 7.02159 4.74464C6.49306 4.74464 5.96982 4.83809 5.48244 5.01952C4.99506 5.20096 4.55331 5.46675 4.18297 5.80137C3.44454 6.47341 3.03125 7.37489 3.03125 8.31351C3.03125 9.25214 3.44454 10.1536 4.18297 10.8257L10.304 16.2573L16.425 10.8257C17.1634 10.1536 17.5767 9.25214 17.5767 8.31351C17.5767 7.37489 17.1634 6.47341 16.425 5.80137C16.0558 5.46712 15.6154 5.20135 15.1294 5.01951C14.6434 4.83768 14.1215 4.74341 13.594 4.74219C13.0663 4.74189 12.5439 4.83547 12.0577 5.01739C11.5714 5.19931 11.1312 5.46589 10.7631 5.80137L10.304 6.14084L9.8602 5.80137Z" stroke="#77280C" stroke-linecap="round" stroke-linejoin="round"/>
</svg>
