<svg width="7" height="13" viewBox="0 0 7 13" fill="none" xmlns="http://www.w3.org/2000/svg">
<path d="M3.48013 0.743134C3.04432 0.742999 2.61276 0.830906 2.21008 1.00182C1.80741 1.17273 1.44151 1.4233 1.1333 1.73923C0.82509 2.05516 0.580595 2.43026 0.413788 2.84309C0.24698 3.25592 0.161133 3.6984 0.161133 4.14526C0.161133 5.63715 2.25412 10.1641 3.11612 11.9636C3.14966 12.0332 3.20155 12.0918 3.26587 12.1328C3.33019 12.1737 3.4044 12.1955 3.48013 12.1955C3.55586 12.1955 3.63007 12.1737 3.6944 12.1328C3.75872 12.0918 3.81057 12.0332 3.84412 11.9636C4.70612 10.163 6.79913 5.63715 6.79913 4.14526C6.79913 3.6984 6.71329 3.25592 6.54648 2.84309C6.37967 2.43026 6.13518 2.05516 5.82697 1.73923C5.51875 1.4233 5.15286 1.17273 4.75018 1.00182C4.34751 0.830906 3.91594 0.742999 3.48013 0.743134ZM3.47113 5.39926C3.23676 5.39926 3.00765 5.328 2.81277 5.19449C2.6179 5.06098 2.46603 4.87121 2.37634 4.64919C2.28665 4.42717 2.26318 4.18287 2.3089 3.94717C2.35462 3.71148 2.46748 3.49498 2.63321 3.32505C2.79893 3.15513 3.01009 3.0394 3.23996 2.99252C3.46983 2.94564 3.70809 2.9697 3.92462 3.06166C4.14115 3.15362 4.32621 3.30936 4.45642 3.50917C4.58663 3.70898 4.65613 3.9439 4.65613 4.18422C4.6556 4.50629 4.53037 4.81496 4.30798 5.04241C4.08559 5.26986 3.78423 5.39748 3.47012 5.39721L3.47113 5.39926Z" fill="#000000"/>
</svg>
