<svg width="67" height="29" viewBox="0 0 67 29" fill="none" xmlns="http://www.w3.org/2000/svg">
<g clip-path="url(#clip0)">
<path d="M67.0001 2.35603C67.0001 3.70729 65.9818 4.74671 64.6242 4.74671C63.3005 4.74671 62.2483 3.70729 62.2483 2.35603C62.2483 1.03943 63.3005 0 64.6242 0C65.9818 0 67.0001 1.03943 67.0001 2.35603ZM62.8592 2.35603C62.8592 3.39546 63.6059 4.227 64.6581 4.227C65.6764 4.227 66.4231 3.39546 66.4231 2.35603C66.4231 1.31661 65.6764 0.450418 64.6581 0.450418C63.6059 0.485066 62.8592 1.31661 62.8592 2.35603ZM64.2848 3.60335H63.7417V1.24731C63.9454 1.21266 64.2508 1.17802 64.6242 1.17802C65.0654 1.17802 65.2691 1.24731 65.4388 1.35125C65.5745 1.4552 65.6764 1.62843 65.6764 1.87097C65.6764 2.1135 65.4727 2.32139 65.2012 2.42533C65.4388 2.49462 65.5406 2.66786 65.6085 3.01434C65.6764 3.36081 65.7103 3.53405 65.7782 3.60335H65.2012C65.1333 3.53405 65.0994 3.29152 65.0315 3.01434C64.9975 2.7718 64.8618 2.63321 64.5563 2.63321H64.3187V3.60335H64.2848ZM64.2848 2.25209H64.5224C64.8278 2.25209 65.0654 2.14815 65.0654 1.90562C65.0654 1.69773 64.8957 1.55914 64.5563 1.55914C64.4205 1.55914 64.3187 1.55914 64.2508 1.59379V2.25209H64.2848Z" fill="black"/>
<path d="M13.3728 11.8841C13.3728 13.5471 13.7122 13.8936 15.3413 13.859C16.2578 13.8243 16.6651 13.4432 16.6651 12.5077C16.6651 10.4289 16.6651 8.35001 16.6651 6.27116C16.6651 4.95455 16.0881 3.91513 15.0698 3.15288C13.4067 1.90557 11.6078 1.76698 9.74105 2.66782C9.23193 2.91035 8.75675 2.945 8.24763 2.63317C7.33122 2.07881 6.27904 1.97486 5.2608 2.1481C3.1225 2.45993 1.28968 4.22696 1.3915 6.40975C1.42544 7.34523 1.3915 8.31537 1.3915 9.25085C1.3915 10.3596 1.3915 11.5029 1.3915 12.6117C1.3915 13.3739 1.7988 13.7897 2.5455 13.8243C2.78309 13.8243 3.02068 13.8243 3.25827 13.8243C4.17468 13.7897 4.58198 13.4086 4.58198 12.4731C4.58198 10.4982 4.58198 8.52325 4.58198 6.54834C4.58198 5.6475 5.12504 5.12779 5.97357 5.12779C6.88998 5.12779 7.33122 5.57821 7.33122 6.51369C7.33122 8.38466 7.33122 10.2903 7.33122 12.1612C7.33122 13.4086 7.77245 13.8243 9.06222 13.8243C10.2841 13.8243 10.6235 13.4779 10.6235 12.1959C10.6235 10.2903 10.6235 8.38466 10.6235 6.47905C10.6235 5.61286 11.2005 5.12779 12.0491 5.12779C12.9315 5.12779 13.3388 5.57821 13.3388 6.47905C13.3728 8.35001 13.3728 10.117 13.3728 11.8841Z" fill="#130A0B"/>
<path d="M30.2078 8.14214C30.2078 11.6762 32.957 14.2748 36.1475 14.2748C39.5416 14.3094 42.2569 11.6069 42.2569 8.17679C42.2569 4.78133 39.6095 2.00952 36.2493 2.00952C32.8891 2.04417 30.2417 4.71203 30.2078 8.14214ZM39.2361 8.14214C39.2361 9.77057 37.8106 11.2604 36.2154 11.2258C34.6541 11.1911 33.3304 9.80522 33.3304 8.17679C33.3304 6.44441 34.5522 5.1971 36.2832 5.1971C37.8785 5.1971 39.2022 6.5137 39.2361 8.14214Z" fill="#130A0B"/>
<path d="M29.5628 8.2461C29.5289 4.53881 26.576 2.04419 23.5892 2.11348C20.3647 1.94025 17.4797 4.78135 17.4797 8.14216C17.5137 11.6069 20.0932 14.3094 23.4534 14.3094C26.8475 14.3094 29.5968 11.6416 29.5628 8.2461ZM23.4195 11.2258C21.8582 11.1911 20.5344 9.77059 20.5684 8.17681C20.6023 6.47908 21.96 5.19712 23.657 5.23176C25.2523 5.26641 26.4742 6.61767 26.4402 8.3154C26.4063 9.97848 25.1165 11.2604 23.4195 11.2258Z" fill="#130A0B"/>
<path d="M7.05982 21.8279C7.67076 20.5805 7.39924 19.0561 6.381 18.1552C5.26094 17.1158 3.90329 17.1504 2.5117 17.3583C1.12011 17.6009 0.305517 18.4324 0.10187 19.8529C-0.101778 21.3081 0.0679285 22.7633 4.59771e-05 23.9414C4.59771e-05 25.5005 4.59771e-05 26.7478 4.59771e-05 28.0298C4.59771e-05 28.4802 0.0679284 28.8267 0.644929 28.8267C1.96864 28.792 3.29235 28.8613 4.58211 28.792C5.90582 28.7227 6.99194 28.0991 7.56894 26.8518C8.17988 25.5698 7.9423 24.3225 7.16165 23.2831C6.75435 22.7287 6.75435 22.3822 7.05982 21.8279ZM3.63176 20.0608C4.20876 20.0262 4.8197 20.6152 4.8197 21.1003C4.8197 21.62 4.2427 22.1743 3.56388 22.209C3.05476 22.1397 2.85111 21.7586 2.85111 21.1349C2.85111 20.5805 2.98687 20.0955 3.63176 20.0608ZM3.69964 26.5746C3.12264 26.6092 2.88505 26.2281 2.88505 25.3273C2.88505 24.4957 3.12264 24.1146 3.6657 24.1146C4.37847 24.1146 4.98941 24.669 5.02335 25.3273C5.02335 26.0202 4.44635 26.5399 3.69964 26.5746Z" fill="#130A0B"/>
<path d="M57.293 13.8591C58.2094 13.8591 58.447 13.6166 58.4809 12.6811C58.5148 11.6417 58.2094 11.2606 57.3269 11.2259C56.6141 11.2259 55.9014 11.2259 55.1547 11.2259C54.4758 11.2259 54.1704 10.9141 54.1364 10.2558C54.1364 9.63213 54.4419 9.28565 55.1207 9.251C55.6298 9.251 56.139 9.251 56.6141 9.251C57.4287 9.21636 57.7342 8.83523 57.7342 7.89975C57.7342 6.96426 57.4627 6.65244 56.6481 6.65244C56.139 6.65244 55.6298 6.65244 55.1547 6.65244C54.6116 6.61779 54.2043 6.4099 54.2043 5.78625C54.2043 5.12794 54.6116 4.92006 55.1886 4.88541C55.9353 4.88541 56.682 4.88541 57.4287 4.88541C58.2773 4.85076 58.5148 4.53894 58.5148 3.53416C58.5148 2.59867 58.2433 2.2522 57.4287 2.2522C55.6977 2.2522 53.9667 2.2522 52.2697 2.2522C51.4551 2.2522 51.2175 2.52938 51.2175 3.36092C51.2175 4.57358 51.2175 5.82089 51.2175 7.03356C51.2175 8.28087 51.1835 9.52818 51.2175 10.7755C51.2514 12.4732 52.5751 13.8245 54.2722 13.8245C55.2565 13.8938 56.2747 13.8591 57.293 13.8591Z" fill="#130A0B"/>
<path d="M58.9898 26.1934C58.2431 26.1588 57.4964 26.1934 56.7497 26.1934C56.0029 26.1934 55.6296 25.8816 55.6296 25.1886C55.6296 24.5303 56.0029 24.1492 56.7497 24.1492C57.2588 24.1146 57.7679 24.1492 58.2431 24.1492C58.9898 24.1146 59.1934 23.8374 59.1934 22.8326C59.1934 21.9318 58.9558 21.6546 58.2431 21.6199C57.6661 21.6199 57.0891 21.6546 56.5121 21.5853C56.0369 21.516 55.6296 21.2388 55.6635 20.6845C55.6975 20.1301 56.0369 19.8183 56.6139 19.8183C57.3945 19.8183 58.2091 19.8529 58.9898 19.8183C59.7365 19.7836 59.9401 19.4372 59.9401 18.3977C59.9401 17.5315 59.6686 17.1851 58.9558 17.1851C58.0734 17.1851 57.1909 17.1851 56.3084 17.1851C55.4599 17.1851 54.5774 17.1851 53.7289 17.1851C52.9143 17.1851 52.6428 17.4622 52.6428 18.2938C52.6428 20.7191 52.6088 23.1791 52.6428 25.6044C52.6767 27.3021 53.9325 28.6188 55.5617 28.7227C56.7157 28.792 57.8697 28.7573 59.0237 28.7227C59.7365 28.688 59.9401 28.3416 59.9401 27.3714C59.9062 26.5399 59.7025 26.2281 58.9898 26.1934Z" fill="#130A0B"/>
<path d="M37.9123 20.6153C38.9985 19.7837 40.1185 19.7491 41.2046 20.6153C41.8495 21.135 42.3586 21.1003 42.9017 20.5806C43.0375 20.4767 43.1732 20.3727 43.309 20.2688C43.9199 19.7837 43.9878 19.3679 43.4448 18.8136C41.9853 17.2891 40.2203 16.8387 38.1839 17.3237C35.0613 18.0513 33.6357 20.8578 33.8394 23.5257C34.1449 27.129 36.8941 29 39.5415 28.9653C40.7295 29 41.7477 28.6881 42.6981 28.0298C44.1575 27.0251 44.1575 26.4361 42.6981 25.3966C42.6302 25.362 42.5962 25.2927 42.5283 25.258C42.155 24.9809 41.8156 25.0155 41.4422 25.3273C40.0846 26.5053 38.3196 26.2628 37.2335 24.8076C36.3171 23.5949 36.6565 21.5161 37.9123 20.6153Z" fill="#130A0B"/>
<path d="M21.7562 25.1194C21.349 24.8422 21.0095 25.2926 20.7041 25.5351C19.8555 26.1934 18.9052 26.2627 17.9209 25.8469C16.9027 25.3965 16.3256 24.565 16.2238 23.4216C16.122 22.0011 16.6651 20.9616 17.9209 20.338C19.007 19.749 20.0252 19.9915 20.9077 20.7884C21.2471 21.1002 21.5865 21.1349 21.9599 20.927C23.623 19.9915 23.6909 19.3332 22.1975 18.1552C22.0617 18.0513 21.926 17.982 21.7562 17.878C18.3282 15.8338 13.1352 18.1898 13.3388 23.0751C13.3388 26.1588 15.0359 28.3069 18.0227 28.8959C19.8555 29.2424 21.5526 28.792 22.8763 27.3714C23.1139 27.1289 23.3515 26.8171 23.2157 26.4706C22.9442 25.743 22.2993 25.4658 21.7562 25.1194Z" fill="#130A0B"/>
<path d="M31.192 17.1157C30.5811 17.1504 30.3096 17.4276 30.3435 18.0166C30.3435 18.8481 30.3435 19.6797 30.3435 20.5112C30.3435 21.1349 30.1059 21.6546 29.5628 22.001C28.341 22.7286 27.153 21.9317 27.0512 20.3033C27.0172 19.5064 27.0512 18.7095 27.0512 17.878C27.0512 17.4276 26.8475 17.0811 26.3724 17.1504C25.6935 17.2543 24.8111 16.7 24.3019 17.6355C24.268 17.7047 24.268 17.774 24.268 17.8433C24.268 18.9521 24.2341 20.0954 24.3019 21.2041C24.4038 22.5901 25.0147 23.7681 26.2366 24.4264C27.0851 24.8768 27.4585 25.3965 27.2888 26.3666C27.2548 26.5052 27.2888 26.6438 27.2888 26.8171C27.2888 29.2424 27.0512 28.9652 29.3931 28.9652C29.9362 28.9652 30.1738 28.7227 30.1738 28.1683C30.1738 27.3368 30.2077 26.5052 30.1738 25.6737C30.1398 25.1886 30.3096 24.9114 30.7168 24.7036C31.9387 24.0106 32.8551 23.0751 33.0249 21.5853C33.1267 20.7537 33.1606 19.8875 33.1606 19.0214C33.1606 17.0118 33.1606 17.0464 31.192 17.1157Z" fill="#130A0B"/>
<path d="M44.7686 2.70244C43.1734 3.77651 42.6303 5.82072 43.5468 7.44915C44.0219 8.28069 44.8026 8.69646 45.6172 9.04294C46.1602 9.25082 46.6694 9.528 47.0088 10.0131C47.2464 10.3595 47.3821 10.706 47.0766 11.0871C46.7712 11.4683 46.3978 11.5029 45.9905 11.3297C45.6851 11.2257 45.5493 10.9832 45.3796 10.7407C45.142 10.3942 44.8026 10.221 44.4632 10.3942C43.8862 10.706 43.1055 10.706 42.834 11.4683C42.7661 11.6415 42.8679 11.8494 42.9698 12.0226C43.7843 13.2699 44.8365 14.0322 46.3299 14.0668C48.2306 14.0668 49.7919 12.8195 50.1314 11.0525C50.5047 9.18153 49.758 7.93422 47.7555 7.06803C47.4161 6.92944 47.0427 6.7562 46.7033 6.58296C46.5336 6.47902 46.3299 6.34043 46.1942 6.16719C45.9905 5.89001 45.9905 5.57818 46.2281 5.301C46.4318 5.05847 46.8051 4.95453 47.0088 5.16241C47.6536 5.95931 48.3325 5.54354 49.0113 5.301C50.0635 4.91988 50.1653 4.6427 49.4865 3.74186C48.4004 2.11343 46.3299 1.66301 44.7686 2.70244Z" fill="#130A0B"/>
<path d="M50.5046 26.055C50.0633 26.055 49.656 26.055 49.2148 26.055C48.1966 26.055 48.1287 25.9857 48.1287 24.9117C48.1287 22.9714 48.1287 20.9965 48.1287 19.0562C48.1287 17.0467 48.1287 17.0467 46.1261 17.0813C45.2776 17.116 45.1079 17.2545 45.1079 18.1207C45.1079 19.7145 45.1079 21.343 45.1079 22.9367C45.1079 24.5652 45.1079 26.1936 45.1079 27.8567C45.1079 28.6882 45.3794 28.9308 46.194 28.9654C47.6196 28.9654 49.079 28.9654 50.5046 28.9654C51.387 28.9654 51.5907 28.7229 51.6246 27.8567C51.6246 27.6488 51.6246 27.4063 51.6246 27.1984C51.5907 26.3669 51.3192 26.0897 50.5046 26.055Z" fill="#130A0B"/>
<path d="M12.083 18.9174C12.083 17.1158 12.0151 17.0465 10.2162 17.0811C9.46953 17.1158 9.16406 17.3929 9.16406 18.1552C9.16406 19.749 9.16406 21.3774 9.16406 22.9712C9.16406 24.3224 9.16406 25.7083 9.16406 27.0596C9.16406 28.8266 9.16406 28.8266 10.8611 28.8266C11.9812 28.8266 12.2188 28.6187 12.1848 27.4407C12.083 24.5996 12.083 21.7585 12.083 18.9174Z" fill="#130A0B"/>
</g>
<defs>
<clipPath id="clip0">
<rect width="67" height="29" fill="white"/>
</clipPath>
</defs>
</svg>
