<svg width="107" height="17" viewBox="0 0 107 17" fill="none" xmlns="http://www.w3.org/2000/svg">
<path fill-rule="evenodd" clip-rule="evenodd" d="M21.6646 0H25.3856C25.5924 0 25.7577 0.173913 25.7577 0.391304V15.4783C25.7577 15.6957 25.5924 15.8696 25.3856 15.8696H21.6646C21.4579 15.8696 21.2925 15.6957 21.2925 15.4783V0.391304C21.2925 0.173913 21.4579 0 21.6646 0ZM0.372102 0.130435H5.99498C6.2017 0.130435 7.02859 0.217391 7.48339 1L14.512 12.4348V0.521739C14.512 0.304348 14.6774 0.130435 14.8841 0.130435H18.0676C18.2743 0.130435 18.4397 0.304348 18.4397 0.521739V15.6087C18.4397 15.8261 18.2743 16 18.0676 16H12.6101C12.4034 16 11.2871 16 10.791 15.0435L3.96909 3.91304V15.6087C3.96909 15.8261 3.80371 16 3.59699 16H0.372102C0.165379 16 0 15.8261 0 15.6087V0.521739C0 0.304348 0.165379 0.130435 0.372102 0.130435ZM88.891 0.130435H94.5553C94.762 0.130435 95.5889 0.217391 96.0437 1L103.072 12.4348V0.521739C103.072 0.304348 103.238 0.130435 103.444 0.130435H106.628C106.835 0.130435 107 0.304348 107 0.521739V15.6087C107 15.8261 106.835 16 106.628 16H101.17C100.964 16 99.8474 16 99.3512 15.0435L92.5707 3.91304V15.6087C92.5707 15.8261 92.4053 16 92.1986 16H88.891C88.6843 16 88.5189 15.8261 88.5189 15.6087V0.521739C88.5189 0.304348 88.6843 0.130435 88.891 0.130435ZM73.0974 9.52174H79.2164L76.7357 3.69565H75.6194L73.0974 9.52174ZM80.5808 12.7391H71.6917L70.4927 15.5652C70.41 15.7826 70.1619 15.9565 69.9552 15.9565H66.2342C66.0274 15.9565 65.9447 15.7826 66.0274 15.5652L72.4772 0.478261C72.5599 0.26087 72.808 0.0869565 73.0147 0.0869565H79.2991C79.5058 0.0869565 79.7539 0.26087 79.8366 0.478261L86.2863 15.5652C86.369 15.7826 86.2863 15.9565 86.0796 15.9565H82.3586C82.1519 15.9565 81.9038 15.7826 81.8211 15.5652L80.5808 12.7391ZM44.7763 3.6087H33.6959C33.4065 3.6087 33.1998 3.82609 33.1998 4.13043V5.04348C33.1998 5.30435 33.4065 5.56522 33.6959 5.56522C33.6959 5.56522 42.8331 6.47826 42.8744 6.52174C44.4869 6.86957 45.7272 8.47826 45.7272 10.3043V12.0435C45.7272 14.2174 44.6522 16.0435 41.0966 16.0435H29.1893C29.024 16.0435 28.8586 15.913 28.8586 15.6957V12.8261C28.8586 12.6522 28.9826 12.4783 29.1893 12.4783H40.8485C41.0966 12.4783 41.3447 12.2609 41.3447 11.9565V10.7391C41.3447 10.4348 41.1379 10.2174 40.8485 10.2174L32.3729 9.43478C32.3315 9.43478 32.3315 9.43478 32.2902 9.43478C30.3883 9.34783 28.8586 7.91304 28.8586 5.91304V4.17391C28.8586 2 30.5124 0.217391 32.5796 0.173913H44.7349C44.9003 0.173913 45.0657 0.304348 45.0657 0.521739V3.34783C45.107 3.47826 44.9417 3.6087 44.7763 3.6087ZM63.9602 3.6087H52.8798C52.5904 3.6087 52.3837 3.82609 52.3837 4.13043V5.04348C52.3837 5.30435 52.5904 5.56522 52.8798 5.56522C52.8798 5.56522 62.017 6.47826 62.0583 6.52174C63.6708 6.86957 64.9111 8.47826 64.9111 10.3043V12.0435C64.9111 14.2174 63.8362 16.0435 60.2805 16.0435H48.3733C48.2079 16.0435 48.0425 15.913 48.0425 15.6957V12.8261C48.0425 12.6522 48.1665 12.4783 48.3733 12.4783H60.0325C60.2805 12.4783 60.5286 12.2609 60.5286 11.9565V10.7391C60.5286 10.4348 60.3219 10.2174 60.0325 10.2174L51.5568 9.43478C51.5155 9.43478 51.5155 9.43478 51.4741 9.43478C49.5723 9.34783 48.0425 7.91304 48.0425 5.91304V4.17391C48.0425 2 49.6963 0.217391 51.7635 0.173913H63.9189C64.0842 0.173913 64.2496 0.304348 64.2496 0.521739V3.34783C64.2496 3.47826 64.1256 3.6087 63.9602 3.6087Z" fill="#141514"/>
</svg>
