<svg width="16" height="16" viewBox="0 0 16 16" fill="none" xmlns="http://www.w3.org/2000/svg">
<path d="M16 12.7163C16 14.5355 14.5264 16 12.7163 16H3.28368C1.46447 16 0 14.5264 0 12.7163V3.28368C0 1.47356 1.47356 0 3.28368 0H12.7163C14.5355 0 16 1.47356 16 3.28368V12.7163Z" fill="#BC081C"/>
<path fill-rule="evenodd" clip-rule="evenodd" d="M7.40449 9.7159C7.8502 10.2253 8.58698 10.4163 9.2328 10.2162C9.36924 10.1798 9.49659 10.1252 9.62393 10.0706C9.87862 9.96149 10.106 9.82505 10.3152 9.63404C10.8883 9.10646 11.2067 8.44245 11.3522 7.68748C11.5432 6.7051 11.3704 5.79549 10.7518 5.01323C10.3789 4.54023 9.84224 4.22187 9.27828 4.02176C8.50512 3.74887 7.64099 3.72158 6.86782 3.96718C6.64042 4.03995 6.42212 4.14 6.21291 4.24916C5.48522 4.65848 4.92126 5.33159 4.69386 6.14114C4.63019 6.35945 4.5938 6.58685 4.57561 6.80516C4.52103 7.34182 4.63928 7.87849 4.88488 8.36058C4.92126 8.43335 4.97584 8.50612 5.01222 8.58799C5.10318 8.76991 5.23053 8.95183 5.39426 9.07917C5.46703 9.13375 5.55799 9.18833 5.65804 9.17923C5.79449 9.17014 5.83087 9.04279 5.86725 8.92454C5.90364 8.7972 5.92183 8.66985 5.94912 8.54251C5.97641 8.42426 5.97641 8.36058 5.90364 8.25143C5.33059 7.44188 5.5307 6.13205 6.2311 5.46803C6.86782 4.87679 7.59551 4.69487 8.40506 4.81311C9.12365 4.91317 9.76947 5.38617 10.0514 6.06837C10.1697 6.35035 10.2061 6.72329 10.2061 7.02346C10.2152 7.45098 10.1424 7.83301 9.97868 8.23324C9.84224 8.57889 9.62393 8.90635 9.32376 9.13375C8.88715 9.46121 7.96845 9.60675 7.77743 8.91545C7.73195 8.74262 7.72285 8.52431 7.75924 8.35149C7.8502 7.91488 8.01393 7.50555 8.11399 7.07804C8.16856 6.85064 8.20495 6.62323 8.14127 6.38674C8.0685 6.11385 7.89568 5.93193 7.6137 5.89555C7.31353 5.85007 7.02246 5.95012 6.84963 6.18662C6.48579 6.67781 6.43121 7.24177 6.61313 7.82392C6.64952 7.95126 6.66771 8.06041 6.63132 8.18776C6.4585 8.88816 6.30387 9.59765 6.12194 10.298C5.9946 10.771 5.95821 11.2622 5.97641 11.7534C5.9855 11.8899 5.9855 12.0263 6.01279 12.1627C6.03098 12.2537 6.06737 12.3811 6.15833 12.4265C6.27658 12.4902 6.38573 12.3356 6.44031 12.2537C6.66771 11.9172 6.84053 11.5533 6.97698 11.1713C7.06794 10.9257 7.13161 10.671 7.19528 10.4254C7.23167 10.3526 7.35901 9.89782 7.40449 9.7159Z" fill="white"/>
</svg>
