<svg width="149" height="112" viewBox="0 0 149 112" fill="none" xmlns="http://www.w3.org/2000/svg">
<rect y="0.15332" width="149" height="111" rx="2" fill="#F7F2F2"/>
<g filter="url(#filter0_d_2082_24949)">
<rect x="47" y="17.1533" width="52" height="77" rx="1" fill="#F7F2F2"/>
<rect x="46.5" y="16.6533" width="53" height="78" rx="1.5" stroke="#DCDCDC"/>
</g>
<rect x="47" y="17.1533" width="52" height="65" rx="2" fill="white"/>
<path fill-rule="evenodd" clip-rule="evenodd" d="M62.4945 38.0884C62.7737 37.0197 63.8657 36.3821 64.9336 36.6643L85.2366 42.0299C86.3045 42.3121 86.9439 43.4073 86.6647 44.476L82.6209 59.9565C82.3417 61.0252 81.2497 61.6628 80.1818 61.3806L59.8788 56.015C58.8109 55.7328 58.1715 54.6377 58.4507 53.5689L62.4945 38.0884ZM71.1817 45.1778C70.7119 46.9762 68.7805 48.0242 66.8675 47.5187C64.9545 47.0131 63.7848 45.1455 64.2545 43.3471C64.7243 41.5487 66.6557 40.5006 68.5687 41.0062C70.4817 41.5118 71.6515 43.3794 71.1817 45.1778ZM76.3614 46.4845L68.0874 54.4923L79.6533 57.5489L76.3614 46.4845Z" fill="url(#paint0_linear_2082_24949)"/>
<defs>
<filter id="filter0_d_2082_24949" x="35" y="9.15332" width="76" height="101" filterUnits="userSpaceOnUse" color-interpolation-filters="sRGB">
<feFlood flood-opacity="0" result="BackgroundImageFix"/>
<feColorMatrix in="SourceAlpha" type="matrix" values="0 0 0 0 0 0 0 0 0 0 0 0 0 0 0 0 0 0 127 0" result="hardAlpha"/>
<feOffset dy="4"/>
<feGaussianBlur stdDeviation="5.5"/>
<feColorMatrix type="matrix" values="0 0 0 0 0 0 0 0 0 0 0 0 0 0 0 0 0 0 0.1 0"/>
<feBlend mode="normal" in2="BackgroundImageFix" result="effect1_dropShadow_2082_24949"/>
<feBlend mode="normal" in="SourceGraphic" in2="effect1_dropShadow_2082_24949" result="shape"/>
</filter>
<linearGradient id="paint0_linear_2082_24949" x1="75.0851" y1="39.3471" x2="69.9751" y2="58.6832" gradientUnits="userSpaceOnUse">
<stop stop-color="#FFE9F0"/>
<stop offset="0.510417" stop-color="#FAECDB"/>
<stop offset="1" stop-color="#D6EBE4"/>
</linearGradient>
</defs>
</svg>
