<svg width="16" height="16" viewBox="0 0 16 16" fill="none" xmlns="http://www.w3.org/2000/svg">
<path d="M16 12.7163C16 14.5355 14.5264 16 12.7163 16H3.28368C1.46447 16 0 14.5264 0 12.7163V3.28368C0 1.47356 1.47356 0 3.28368 0H12.7163C14.5355 0 16 1.47356 16 3.28368V12.7163Z" fill="#FFFC01"/>
<path d="M11.0847 8.41442C11.0846 8.41743 11.0847 8.42158 11.0852 8.42724C11.0871 8.44688 11.0954 8.48757 11.1271 8.55352L11.1359 8.57188L11.1432 8.59088C11.1432 8.59073 11.1433 8.591 11.1436 8.59167C11.1475 8.60089 11.1844 8.68691 11.2587 8.81684C11.337 8.9535 11.4517 9.12982 11.6047 9.3089C11.913 9.66994 12.351 10.0136 12.9376 10.1096L13.3569 10.1781V10.603C13.3569 10.6035 13.3569 10.6043 13.3569 10.6053C13.3572 10.6283 13.3594 10.7713 13.2609 10.9108C13.1013 11.1543 12.7478 11.3577 11.9226 11.506C11.9191 11.5191 11.9155 11.5332 11.9115 11.5489C11.9095 11.5567 11.9074 11.5649 11.9051 11.5735C11.8901 11.6413 11.8713 11.7254 11.8432 11.8195L11.841 11.8268L11.8386 11.834L11.833 11.8503C11.8305 11.8576 11.8248 11.8735 11.8164 11.8924C11.8013 11.9264 11.7569 12.0197 11.6548 12.0964C11.5495 12.1756 11.4438 12.1917 11.4 12.1964C11.3774 12.1989 11.359 12.1993 11.3508 12.1995C11.3463 12.1996 11.3419 12.1996 11.3385 12.1997C11.3357 12.1997 11.3336 12.1997 11.3329 12.1997L11.0847 8.41442ZM11.0847 8.41442C11.0928 8.40485 11.1153 8.3823 11.1706 8.35169C11.2509 8.30722 11.3495 8.27322 11.4607 8.23855M11.0847 8.41442L11.4607 8.23855M11.4607 8.23855C11.5105 8.22418 11.581 8.20252 11.6476 8.17222C11.7612 8.12759 11.9104 8.06029 12.0492 7.94831C12.1311 7.88464 12.2257 7.78312 12.2824 7.64614C12.3488 7.48571 12.3761 7.2127 12.1648 6.99262C12.0436 6.86291 11.8885 6.79845 11.7832 6.7676C11.6757 6.73612 11.5113 6.70782 11.3442 6.7497C11.2617 6.77038 11.1887 6.79963 11.1461 6.81672L11.1439 6.81761C11.0907 6.83893 11.0775 6.84386 11.0682 6.84639L11.0604 6.84853L11.0527 6.85091C11.0447 6.85337 11.0371 6.85565 11.0298 6.85778C11.0299 6.85498 11.0301 6.85217 11.0303 6.84937C11.0489 6.53345 11.0709 6.16087 11.064 5.80903C11.0569 5.44943 11.02 5.0418 10.8762 4.71482L10.8763 4.71481L10.8744 4.71066C10.7473 4.42851 10.5812 4.15861 10.3655 3.91375C10.1806 3.69968 9.96839 3.52649 9.73356 3.38488C9.54323 3.26708 9.3276 3.16221 9.09448 3.09258C8.90169 3.02616 8.71608 2.99012 8.54867 2.96489C8.40534 2.94238 8.25129 2.93642 8.1369 2.932C8.1058 2.9308 8.07764 2.92971 8.05341 2.92843L8.04025 2.92773H8.02707C7.86138 2.92773 7.69579 2.93646 7.53038 2.95386C7.33479 2.97361 7.15406 3.02131 7.01346 3.05843C7.0092 3.05955 7.00498 3.06067 7.00081 3.06177L6.99157 3.0642L6.98244 3.06699C6.76589 3.13305 6.5518 3.2265 6.35621 3.33852L6.3562 3.33851L6.35234 3.34076C6.13614 3.46717 5.91374 3.62902 5.72263 3.83932C5.51009 4.06263 5.33435 4.31373 5.19602 4.59103L5.18675 4.60961L5.17957 4.62761C5.17938 4.62796 5.17703 4.63301 5.16867 4.64978C5.16816 4.6508 5.16761 4.6519 5.16701 4.6531C5.1589 4.6693 5.14285 4.7014 5.12801 4.73737C4.98684 5.06291 4.95029 5.46513 4.94327 5.82173C4.93642 6.16984 4.958 6.53942 4.97653 6.85662C4.97707 6.86598 4.97762 6.87529 4.97816 6.88455C4.93638 6.87514 4.88802 6.86102 4.83329 6.84166L4.83332 6.84159L4.82504 6.83882C4.82499 6.8388 4.82377 6.83838 4.82096 6.8373L4.80627 6.83135C4.8046 6.83066 4.8024 6.82974 4.79976 6.82864C4.78708 6.82334 4.76444 6.81388 4.74387 6.806C4.69541 6.78743 4.6057 6.75585 4.49274 6.751C4.28048 6.73473 4.11346 6.81253 4.00591 6.87936C3.85933 6.96888 3.65641 7.16128 3.67921 7.46971C3.6975 7.71721 3.85892 7.87324 3.92597 7.93224C4.06987 8.05884 4.25569 8.14377 4.35662 8.1822C4.42288 8.21185 4.49233 8.23304 4.54114 8.24707C4.65354 8.28094 4.75206 8.31508 4.83038 8.35875C4.88496 8.38919 4.9068 8.41169 4.91452 8.42138C4.91481 8.42485 4.91495 8.43044 4.91418 8.43852C4.91219 8.45938 4.90387 8.49798 4.8756 8.55466L4.86484 8.57623L4.85621 8.59872C4.85639 8.59826 4.85616 8.59876 4.85553 8.6002C4.85001 8.61275 4.81334 8.69614 4.74076 8.82158C4.66194 8.95782 4.54638 9.13381 4.39268 9.31283C4.0826 9.674 3.6434 10.0187 3.05892 10.1179L2.64258 10.1885V10.6108C2.64258 10.6114 2.64257 10.6121 2.64255 10.6131C2.64224 10.634 2.64046 10.7537 2.71369 10.88C2.80569 11.0546 2.97663 11.1757 3.16794 11.2638C3.36741 11.3556 3.6529 11.4414 4.06815 11.5136C4.06997 11.5229 4.07188 11.5327 4.0739 11.5432L4.07525 11.5502L4.0768 11.5572C4.07881 11.5663 4.08103 11.5766 4.08347 11.5878C4.09634 11.6473 4.11525 11.7347 4.14065 11.8195L4.14281 11.8268L4.1452 11.834C4.13958 11.817 4.15231 11.8575 4.16433 11.8859C4.18204 11.9277 4.22305 12.0111 4.31085 12.0844C4.39862 12.1577 4.4899 12.1852 4.54762 12.1966C4.60052 12.2069 4.64564 12.2075 4.66654 12.2075C4.7386 12.2075 4.80369 12.1961 4.84095 12.1891C4.8621 12.1851 4.89517 12.1782 4.92114 12.1729C4.93412 12.1702 4.94532 12.1678 4.95238 12.1664L4.9524 12.1665L4.96281 12.1642C5.07559 12.1391 5.23393 12.1135 5.43243 12.1135C5.55624 12.1135 5.65589 12.1207 5.74575 12.1407L5.75579 12.1429L5.76592 12.1448C5.94331 12.1767 6.10793 12.2789 6.3727 12.4719L6.38095 12.4779L6.38944 12.4836C6.41819 12.5028 6.44608 12.5225 6.48004 12.5465L6.48203 12.5479C6.51407 12.5706 6.55189 12.5973 6.59263 12.6246L6.87043 12.2088L11.4607 8.23855ZM9.61318 12.476C9.89499 12.2766 10.0474 12.1776 10.223 12.1453L7.40186 12.483C7.62068 12.5535 7.84732 12.577 8.07397 12.5692V13.0692C8.07631 13.0692 8.07882 13.0692 8.08148 13.0692C8.08163 13.0692 8.08178 13.0692 8.08194 13.0692C8.12262 13.0692 8.19882 13.0693 8.28164 13.0569C8.54743 13.0259 8.81129 12.9469 9.04825 12.8282C9.22223 12.741 9.39179 12.626 9.52681 12.5344C9.55335 12.5164 9.57855 12.4994 9.60219 12.4836L9.60229 12.4837L9.61318 12.476ZM3.52862 10.3242C3.52873 10.3242 3.53034 10.3252 3.53311 10.3275C3.5299 10.3253 3.52851 10.3242 3.52862 10.3242Z" fill="white" stroke="black"/>
</svg>
