<svg width="16" height="16" viewBox="0 0 16 16" fill="none" xmlns="http://www.w3.org/2000/svg">
<path d="M12.0655 16H3.93445C1.76165 16 0 14.2384 0 12.0651V3.93432C0 1.76159 1.76165 0 3.93445 0H12.0655C14.2383 0 16 1.76159 16 3.93432V12.0651C16.0005 14.2384 14.2389 16 12.0655 16Z" fill="black"/>
<path d="M6.64962 6.81031V6.32663C6.48176 6.30008 6.31222 6.28557 6.14229 6.28321C4.49716 6.27991 3.04112 7.34566 2.54698 8.91433C2.05284 10.483 2.63602 12.1913 3.98598 13.1306C2.56952 11.6147 2.65031 9.23752 4.16627 7.8211C4.84177 7.19055 5.72577 6.83073 6.64962 6.81031Z" fill="#25F4EE"/>
<path d="M6.7403 12.2862C7.65988 12.2851 8.41566 11.5607 8.45634 10.6417V2.44269H9.95416C9.92352 2.27147 9.90898 2.09776 9.91073 1.92383H7.86216V10.1146C7.82808 11.0379 7.0701 11.7695 6.14612 11.7712C5.87019 11.769 5.59811 11.7008 5.35352 11.5733C5.51212 11.793 5.72043 11.9721 5.96143 12.096C6.20244 12.2199 6.46932 12.2851 6.7403 12.2862ZM12.7514 5.22441V4.76876C12.2001 4.76876 11.6608 4.60607 11.2019 4.30102C11.6042 4.76913 12.1482 5.09331 12.7514 5.22441Z" fill="#25F4EE"/>
<path d="M11.2035 4.30218C10.751 3.78717 10.5017 3.12497 10.5021 2.43945H9.95518C10.0256 2.81852 10.1726 3.17922 10.3873 3.49951C10.6019 3.8198 10.8796 4.09292 11.2035 4.30218ZM6.14275 8.33214C5.19294 8.33708 4.42672 9.11098 4.43166 10.0608C4.43323 10.3725 4.51952 10.678 4.6813 10.9445C4.84309 11.2111 5.07427 11.4286 5.35014 11.5739C4.79444 10.8066 4.96593 9.73372 5.73325 9.17748C6.02644 8.96514 6.37932 8.85104 6.74133 8.85155C6.91337 8.85374 7.08431 8.88068 7.24866 8.93124V6.84646C7.08102 6.82118 6.91117 6.80799 6.74133 6.80689H6.65008V8.39205C6.48464 8.34698 6.31369 8.32719 6.14275 8.33214Z" fill="#FE2C55"/>
<path d="M12.7498 5.22461V6.80977C11.7293 6.80781 10.7353 6.48475 9.90859 5.88637V10.051C9.90419 12.1292 8.21839 13.8116 6.14014 13.8116C5.36831 13.8131 4.61507 13.575 3.98438 13.1301C5.39865 14.6509 7.77812 14.7378 9.29957 13.3235C9.67805 12.9717 9.97995 12.5457 10.1864 12.072C10.3928 11.5983 10.4994 11.0871 10.4995 10.5704V6.41733C11.329 7.01149 12.3241 7.33024 13.3445 7.32863V5.28837C13.1444 5.28727 12.9455 5.26638 12.7498 5.22461Z" fill="#FE2C55"/>
<path d="M9.90985 10.052V5.88734C10.7391 6.48198 11.7344 6.80078 12.7549 6.79865V5.21348C12.152 5.08604 11.6069 4.76623 11.2015 4.30218C10.8779 4.09275 10.6003 3.81958 10.3856 3.49932C10.171 3.17906 10.0239 2.81844 9.95327 2.43945H8.45545V10.6423C8.41643 11.5915 7.61612 12.3291 6.66686 12.2906C6.40717 12.2801 6.15324 12.2108 5.92418 12.088C5.69512 11.9652 5.49689 11.7921 5.34439 11.5816C4.50396 11.1392 4.18131 10.0992 4.62378 9.25883C4.76899 8.9829 4.98652 8.75166 5.25308 8.58987C5.51963 8.42808 5.82518 8.34184 6.13699 8.34039C6.30904 8.34203 6.47998 8.36842 6.64433 8.41953V6.81074C4.56992 6.84591 2.91654 8.58003 2.95172 10.6544C2.96764 11.5938 3.33495 12.4931 3.98123 13.175C4.61812 13.6052 5.3724 13.8281 6.14084 13.8131C8.21965 13.8126 9.90545 12.1302 9.90985 10.052Z" fill="white"/>
</svg>
