<svg width="16" height="16" viewBox="0 0 16 16" fill="none" xmlns="http://www.w3.org/2000/svg">
<path d="M16 12.7163C16 14.5264 14.5264 16 12.7163 16H3.28368C1.46447 16 0 14.5264 0 12.7163V3.28368C0 1.47356 1.47356 0 3.28368 0H12.7072C14.5264 0 15.9909 1.47356 15.9909 3.28368V12.7163H16Z" fill="#1DA1F2"/>
<path d="M6.09379 12.6353C10.2962 12.6353 12.5975 9.15145 12.5975 6.13156C12.5975 6.0315 12.5975 5.93144 12.5884 5.84048C13.0341 5.52212 13.4252 5.1128 13.7254 4.65799C13.3161 4.83991 12.8704 4.95816 12.4156 5.02183C12.8886 4.73986 13.2524 4.29415 13.4252 3.75748C12.9795 4.02127 12.4974 4.21228 11.9699 4.31234C11.5514 3.86663 10.9602 3.59375 10.3053 3.59375C9.04092 3.59375 8.02216 4.62161 8.02216 5.87687C8.02216 6.05879 8.04035 6.23161 8.07673 6.39534C6.17565 6.29529 4.49288 5.38568 3.36496 4.00307C3.16485 4.33963 3.0557 4.73076 3.0557 5.14918C3.0557 5.94054 3.45592 6.64094 4.07446 7.05026C3.70152 7.04116 3.34677 6.93201 3.0375 6.76828C3.0375 6.77738 3.0375 6.78647 3.0375 6.79557C3.0375 7.90529 3.82886 8.824 4.87491 9.03321C4.68389 9.08778 4.48378 9.11507 4.27457 9.11507C4.12903 9.11507 3.9835 9.09688 3.84706 9.06959C4.13813 9.9792 4.98407 10.6432 5.98463 10.6614C5.19328 11.2799 4.2109 11.6438 3.13756 11.6438C2.95564 11.6438 2.77372 11.6347 2.5918 11.6074C3.60146 12.2623 4.80214 12.6353 6.09379 12.6353Z" fill="white"/>
</svg>
