<svg width="134" height="39" viewBox="0 0 134 39" fill="none" xmlns="http://www.w3.org/2000/svg">
<path d="M51.2939 9.85C50.8773 9.85 50.5273 9.71667 50.2439 9.45C49.9773 9.16667 49.8439 8.81667 49.8439 8.4C49.8439 8 49.9773 7.66667 50.2439 7.4C50.5273 7.13333 50.8773 7 51.2939 7C51.6939 7 52.0356 7.13333 52.3189 7.4C52.6023 7.66667 52.7439 8 52.7439 8.4C52.7439 8.81667 52.6023 9.16667 52.3189 9.45C52.0356 9.71667 51.6939 9.85 51.2939 9.85ZM50.2439 25V12.6H52.3439V25H50.2439ZM56.0004 25V12.6H57.9004L58.0254 14.825C58.4254 14.0417 59.0004 13.425 59.7504 12.975C60.5004 12.525 61.3504 12.3 62.3004 12.3C63.7671 12.3 64.9337 12.75 65.8004 13.65C66.6837 14.5333 67.1254 15.9 67.1254 17.75V25H65.0254V17.975C65.0254 15.3917 63.9587 14.1 61.8254 14.1C60.7587 14.1 59.8671 14.4917 59.1504 15.275C58.4504 16.0417 58.1004 17.1417 58.1004 18.575V25H56.0004ZM70.432 25V7.5H76.582C77.8154 7.5 78.832 7.7 79.632 8.1C80.4487 8.48333 81.057 9.01667 81.457 9.7C81.857 10.3667 82.057 11.1167 82.057 11.95C82.057 13.0833 81.7487 13.975 81.132 14.625C80.532 15.275 79.807 15.725 78.957 15.975C79.607 16.0917 80.1987 16.35 80.732 16.75C81.2654 17.15 81.682 17.65 81.982 18.25C82.2987 18.85 82.457 19.5083 82.457 20.225C82.457 21.1083 82.2404 21.9167 81.807 22.65C81.3737 23.3667 80.732 23.9417 79.882 24.375C79.032 24.7917 77.9987 25 76.782 25H70.432ZM72.532 15.15H76.432C77.5487 15.15 78.407 14.8917 79.007 14.375C79.607 13.8417 79.907 13.1083 79.907 12.175C79.907 11.2917 79.607 10.5833 79.007 10.05C78.4237 9.51667 77.5404 9.25 76.357 9.25H72.532V15.15ZM72.532 23.25H76.557C77.757 23.25 78.682 22.975 79.332 22.425C79.982 21.8583 80.307 21.075 80.307 20.075C80.307 19.0917 79.9654 18.3083 79.282 17.725C78.5987 17.125 77.6737 16.825 76.507 16.825H72.532V23.25ZM90.9211 25.3C89.7378 25.3 88.6878 25.0333 87.7711 24.5C86.8544 23.95 86.1294 23.1917 85.5961 22.225C85.0794 21.2583 84.8211 20.1167 84.8211 18.8C84.8211 17.5 85.0794 16.3667 85.5961 15.4C86.1128 14.4167 86.8294 13.6583 87.7461 13.125C88.6794 12.575 89.7544 12.3 90.9711 12.3C92.1711 12.3 93.2044 12.575 94.0711 13.125C94.9544 13.6583 95.6294 14.3667 96.0961 15.25C96.5628 16.1333 96.7961 17.0833 96.7961 18.1C96.7961 18.2833 96.7878 18.4667 96.7711 18.65C96.7711 18.8333 96.7711 19.0417 96.7711 19.275H86.8961C86.9461 20.225 87.1628 21.0167 87.5461 21.65C87.9461 22.2667 88.4378 22.7333 89.0211 23.05C89.6211 23.3667 90.2544 23.525 90.9211 23.525C91.7878 23.525 92.5128 23.325 93.0961 22.925C93.6794 22.525 94.1044 21.9833 94.3711 21.3H96.4461C96.1128 22.45 95.4711 23.4083 94.5211 24.175C93.5878 24.925 92.3878 25.3 90.9211 25.3ZM90.9211 14.075C89.9211 14.075 89.0294 14.3833 88.2461 15C87.4794 15.6 87.0378 16.4833 86.9211 17.65H94.7211C94.6711 16.5333 94.2878 15.6583 93.5711 15.025C92.8544 14.3917 91.9711 14.075 90.9211 14.075ZM103.704 25.3C102.671 25.3 101.813 25.125 101.129 24.775C100.446 24.425 99.9378 23.9583 99.6045 23.375C99.2712 22.7917 99.1045 22.1583 99.1045 21.475C99.1045 20.2083 99.5878 19.2333 100.554 18.55C101.521 17.8667 102.838 17.525 104.504 17.525H107.854V17.375C107.854 16.2917 107.571 15.475 107.004 14.925C106.438 14.3583 105.679 14.075 104.729 14.075C103.913 14.075 103.204 14.2833 102.604 14.7C102.021 15.1 101.654 15.6917 101.504 16.475H99.3545C99.4378 15.575 99.7378 14.8167 100.254 14.2C100.788 13.5833 101.446 13.1167 102.229 12.8C103.013 12.4667 103.846 12.3 104.729 12.3C106.463 12.3 107.763 12.7667 108.629 13.7C109.513 14.6167 109.954 15.8417 109.954 17.375V25H108.079L107.954 22.775C107.604 23.475 107.088 24.075 106.404 24.575C105.738 25.0583 104.838 25.3 103.704 25.3ZM104.029 23.525C104.829 23.525 105.513 23.3167 106.079 22.9C106.663 22.4833 107.104 21.9417 107.404 21.275C107.704 20.6083 107.854 19.9083 107.854 19.175V19.15H104.679C103.446 19.15 102.571 19.3667 102.054 19.8C101.554 20.2167 101.304 20.7417 101.304 21.375C101.304 22.025 101.538 22.55 102.004 22.95C102.488 23.3333 103.163 23.525 104.029 23.525ZM117.663 25C116.53 25 115.638 24.725 114.988 24.175C114.338 23.625 114.013 22.6333 114.013 21.2V14.375H111.863V12.6H114.013L114.288 9.625H116.113V12.6H119.763V14.375H116.113V21.2C116.113 21.9833 116.271 22.5167 116.588 22.8C116.905 23.0667 117.463 23.2 118.263 23.2H119.563V25H117.663Z" fill="black"/>
<path d="M15.603 1H2.67264C1.19024 1 0 2.06341 0 3.37387V6.33853L21.2945 15.834C27.3756 10.6996 24.2377 1 15.603 1Z" fill="url(#paint0_linear)"/>
<path d="M21.5326 15.9522L21.3054 15.8448C21.1106 16.0059 20.9158 16.167 20.7102 16.3174L0 27.9934V29.508C0 30.8829 1.19024 32 2.67264 32H16.2306C25.482 32 29.1718 20.8181 21.5326 15.9522Z" fill="#37CA8E"/>
<path d="M21.2945 15.8448L0 6.34927V27.9934L20.6994 16.3174C20.905 16.167 21.1106 16.0059 21.2945 15.8448Z" fill="url(#paint1_linear)"/>
<defs>
<linearGradient id="paint0_linear" x1="0" y1="8.42231" x2="24.4534" y2="8.42231" gradientUnits="userSpaceOnUse">
<stop stop-color="#384FFF"/>
<stop offset="1" stop-color="#0025D4"/>
</linearGradient>
<linearGradient id="paint1_linear" x1="-7.2964" y1="25.5192" x2="7.82307" y2="13.1897" gradientUnits="userSpaceOnUse">
<stop stop-color="#03257C"/>
<stop offset="1" stop-color="#052C81"/>
</linearGradient>
</defs>
</svg>
