<svg xmlns="http://www.w3.org/2000/svg" version="1.1" xmlns:xlink="http://www.w3.org/1999/xlink" xmlns:svgjs="http://svgjs.com/svgjs" width="40" height="40"><svg width="40" height="40" viewBox="0 0 40 40" fill="none" xmlns="http://www.w3.org/2000/svg">
<path d="M28.901 27.9991C28.8419 27.9991 28.7744 27.982 28.7237 27.9479C28.1751 27.5893 27.5927 27.1965 26.9006 26.6928C24.875 25.2413 23.2122 23.841 21.8111 22.4237C19.8952 20.4855 19.009 18.4791 19.0934 16.2933C19.0934 13.7489 20.9755 11.5717 23.4823 11.2301C23.4823 11.2301 23.6849 11.2045 23.744 11.196C23.8706 11.1874 24.0056 11.1789 24.1406 11.1789C25.0184 11.1618 25.8878 11.3326 26.6643 11.6656C27.5843 12.0583 28.2595 12.6816 28.8925 13.3135C29.5255 12.6816 30.2008 12.0583 31.1207 11.6656C31.9141 11.3326 32.7835 11.1704 33.6359 11.1789C33.7879 11.1789 33.9229 11.1874 34.0579 11.196C34.1086 11.2045 34.3112 11.2216 34.3112 11.2216C36.8179 11.5631 38.7001 13.7404 38.7001 16.2933C38.7845 18.4791 37.8898 20.4855 35.9823 22.4237C34.5812 23.8495 32.9185 25.2413 30.8929 26.6928C30.2008 27.188 29.6184 27.5893 29.0698 27.9479C29.0191 27.982 28.96 27.9991 28.901 27.9991Z" fill="black"></path>
<path d="M3.46906 25.469C1.82569 23.7776 1 21.7597 1 19.4068C1 17.1125 1.82569 15.1448 3.46906 13.4869C5.11243 11.829 7.06042 11 9.31304 11C11.4454 11 13.3052 11.829 14.9005 13.4869C16.4877 15.1448 17.2814 17.1209 17.2814 19.4068C17.2814 21.7597 16.5038 23.7776 14.9406 25.469C13.3854 27.152 11.5095 27.9977 9.31304 27.9977C7.06042 27.9977 5.11243 27.152 3.46906 25.469Z" fill="black"></path>
</svg><style>@media (prefers-color-scheme: light) { :root { filter: none; } }
@media (prefers-color-scheme: dark) { :root { filter: invert(100%); } }
</style></svg>