<?xml version="1.0" standalone="no"?>
<!DOCTYPE svg PUBLIC "-//W3C//DTD SVG 20010904//EN"
 "http://www.w3.org/TR/2001/REC-SVG-20010904/DTD/svg10.dtd">
<svg version="1.0" xmlns="http://www.w3.org/2000/svg"
 width="700.000000pt" height="700.000000pt" viewBox="0 0 700.000000 700.000000"
 preserveAspectRatio="xMidYMid meet">
<metadata>
Created by potrace 1.14, written by Peter Selinger 2001-2017
</metadata>
<g transform="translate(0.000000,700.000000) scale(0.100000,-0.100000)"
fill="#000000" stroke="none">
<path d="M1557 5074 c-1 -1 -36 -4 -78 -7 -41 -3 -82 -8 -90 -11 -7 -3 -27 -7
-44 -9 -137 -20 -325 -97 -474 -194 -286 -185 -520 -480 -620 -779 -123 -369
-95 -794 76 -1139 138 -280 406 -552 678 -688 88 -44 248 -102 310 -113 14 -2
37 -6 53 -10 68 -13 146 -19 262 -19 135 0 196 6 305 29 59 13 199 63 265 95
150 74 259 156 392 293 281 290 427 649 431 1060 1 113 -9 238 -25 308 -5 25
-12 56 -14 70 -30 163 -180 458 -305 600 -272 308 -544 462 -893 505 -51 7
-224 13 -229 9z"/>
<path d="M4197 5044 c-1 -1 -30 -4 -65 -7 -231 -22 -478 -166 -620 -362 -74
-101 -146 -277 -160 -387 -16 -124 -7 -342 17 -453 84 -373 320 -682 882
-1155 120 -101 399 -312 600 -453 100 -70 193 -127 209 -127 23 0 270 170 515
354 113 84 264 203 275 216 3 3 19 16 35 29 138 106 443 400 547 528 152 186
284 443 313 608 2 17 7 41 10 55 20 100 23 313 5 412 -39 215 -158 415 -325
548 -234 186 -525 238 -849 153 -54 -14 -110 -32 -125 -39 -14 -8 -29 -14 -33
-14 -4 0 -42 -21 -85 -46 -78 -46 -159 -110 -242 -192 l-44 -43 -51 49 c-79
75 -96 91 -163 139 -163 116 -363 179 -596 188 -26 0 -49 0 -50 -1z"/>
</g>
</svg>
