<?xml version="1.0" standalone="no"?>
<!DOCTYPE svg PUBLIC "-//W3C//DTD SVG 20010904//EN"
 "http://www.w3.org/TR/2001/REC-SVG-20010904/DTD/svg10.dtd">
<svg version="1.0" xmlns="http://www.w3.org/2000/svg"
 width="672.000000pt" height="672.000000pt" viewBox="0 0 672.000000 672.000000"
 preserveAspectRatio="xMidYMid meet">
<metadata>
Created by potrace 1.14, written by Peter Selinger 2001-2017
</metadata>
<g transform="translate(0.000000,672.000000) scale(0.100000,-0.100000)"
fill="#000000" stroke="none">
<path d="M160 3435 l0 -3285 38 -1 c36 0 2806 0 2889 1 l42 0 0 143 c0 207 0
209 12 202 5 -4 40 -9 77 -12 100 -9 539 -9 602 0 30 4 73 9 95 11 155 17 524
103 587 137 11 6 27 12 36 14 59 14 333 132 344 149 4 6 8 8 8 3 0 -4 18 4 40
18 22 14 42 25 46 25 19 0 263 157 369 238 114 87 111 85 177 143 160 140 322
317 448 489 30 41 58 76 62 78 5 2 8 8 8 13 0 8 67 116 80 129 3 3 14 23 25
45 11 22 23 42 28 43 4 2 7 7 7 11 0 5 17 39 38 77 21 38 38 71 39 74 1 3 16
37 33 75 62 137 156 402 175 493 2 9 11 51 20 92 9 41 18 84 21 95 6 29 19
111 29 185 27 194 27 624 1 780 -3 14 -7 42 -10 63 -15 97 -22 131 -51 262 -3
11 -7 29 -9 40 -18 80 -79 260 -146 430 -4 11 -8 23 -9 27 -5 19 -142 280
-177 338 -22 36 -47 76 -55 89 -8 14 -17 30 -22 35 -4 6 -33 47 -65 91 -31 45
-75 103 -97 130 -22 28 -44 55 -50 62 -87 110 -303 319 -435 421 -47 37 -87
69 -90 72 -3 4 -20 15 -37 25 -18 11 -33 23 -33 27 0 4 -5 8 -12 8 -6 0 -25
10 -42 23 -74 56 -393 232 -451 249 -11 4 -54 21 -95 38 -103 44 -264 96 -389
126 -113 28 -120 29 -201 43 -30 6 -71 13 -90 16 -19 3 -53 8 -75 10 -22 2
-62 7 -90 11 -125 16 -516 10 -647 -10 -32 -5 -30 -12 -30 112 l1 82 -1485 0
-1484 0 0 -3285z m3631 2781 c26 -2 64 -7 85 -10 108 -17 161 -26 184 -31 14
-4 34 -8 45 -10 76 -14 220 -56 345 -100 128 -45 390 -168 398 -187 2 -5 9 -8
16 -8 20 0 302 -188 352 -235 6 -5 41 -35 77 -65 68 -56 232 -220 300 -300
179 -210 346 -486 448 -742 34 -86 70 -187 73 -208 1 -3 4 -9 8 -15 5 -9 52
-191 64 -250 24 -120 44 -276 50 -410 3 -55 5 -104 5 -110 1 -5 1 -23 0 -40
-1 -16 -1 -37 -1 -45 1 -24 -9 -171 -14 -215 -3 -22 -8 -67 -12 -100 -11 -104
-72 -365 -115 -489 -70 -203 -158 -395 -246 -534 -18 -29 -33 -57 -33 -62 0
-6 -4 -10 -10 -10 -5 0 -10 -6 -10 -14 0 -8 -3 -16 -7 -18 -5 -2 -26 -30 -47
-63 -22 -33 -45 -64 -50 -70 -6 -5 -24 -28 -41 -50 -70 -94 -184 -214 -344
-365 -9 -8 -48 -40 -86 -70 -39 -30 -71 -58 -73 -62 -2 -5 -8 -8 -13 -8 -5 0
-35 -20 -66 -43 -69 -52 -257 -164 -330 -197 -29 -13 -53 -27 -53 -32 0 -4 -3
-7 -7 -6 -14 4 -83 -26 -83 -36 0 -5 -3 -7 -6 -3 -4 3 -18 0 -33 -7 -59 -30
-284 -104 -398 -131 -10 -3 -36 -9 -58 -14 -22 -5 -56 -12 -75 -15 -19 -3 -74
-11 -122 -19 -49 -8 -88 -12 -88 -9 0 2 -6 0 -12 -5 -14 -10 -510 -10 -583 0
-92 13 -112 16 -150 22 -71 11 -229 46 -255 55 -14 6 -35 11 -47 13 -12 2 -26
6 -29 10 -4 4 -17 7 -29 7 -12 0 -25 3 -29 7 -3 4 -14 8 -22 9 -18 3 -108 37
-171 65 -24 11 -50 19 -58 19 -8 0 -15 5 -15 10 0 6 -6 10 -12 10 -17 0 -248
117 -269 136 -8 8 -18 14 -22 14 -23 0 -295 197 -393 285 -51 45 -195 190
-237 238 -29 33 -57 65 -62 71 -6 6 -26 31 -45 56 -19 25 -38 46 -42 48 -5 2
-8 10 -8 17 0 7 -4 15 -8 17 -5 2 -27 30 -49 63 -135 201 -250 430 -319 635
-14 41 -28 82 -31 90 -7 18 -6 12 -33 115 -11 44 -22 87 -24 95 -1 8 -5 26 -9
40 -11 49 -26 136 -31 180 -3 25 -8 65 -11 90 -5 35 -12 173 -16 285 -2 30 12
266 16 300 3 22 7 54 10 70 14 102 38 227 54 283 5 17 7 32 4 32 -3 0 -1 6 4
13 6 6 10 19 10 27 1 21 68 218 108 316 50 121 153 324 179 353 8 9 19 27 25
41 11 26 32 61 41 70 3 3 38 51 78 108 40 56 77 102 82 102 5 0 11 9 15 19 7
24 246 269 335 343 36 30 103 83 150 117 47 33 90 65 95 69 6 4 28 19 50 32
22 13 42 26 45 29 8 9 75 46 170 93 47 24 88 47 91 51 3 5 9 9 12 8 7 0 65 22
114 45 39 18 318 111 353 118 14 3 36 8 50 11 28 7 54 12 90 19 14 2 36 7 50
10 14 3 43 8 65 11 22 3 51 7 65 10 14 2 61 7 105 10 44 4 81 9 83 10 5 4 390
-3 443 -9z"/>
</g>
</svg>
