<?xml version="1.0" standalone="no"?>
<!DOCTYPE svg PUBLIC "-//W3C//DTD SVG 20010904//EN"
 "http://www.w3.org/TR/2001/REC-SVG-20010904/DTD/svg10.dtd">
<svg version="1.0" xmlns="http://www.w3.org/2000/svg"
 width="260.000000pt" height="260.000000pt" viewBox="0 0 260.000000 260.000000"
 preserveAspectRatio="xMidYMid meet">
<metadata>
Created by potrace 1.11, written by Peter Selinger 2001-2013
</metadata>
<g transform="translate(0.000000,260.000000) scale(0.100000,-0.100000)"
fill="#000000" stroke="none">
<path d="M667 2252 c-17 -6 -39 -15 -49 -18 -9 -3 -19 -15 -21 -26 -3 -11 -10
-17 -17 -13 -6 3 -10 3 -9 -2 1 -4 0 -10 -1 -13 -13 -36 -18 -104 -7 -117 5
-7 5 -13 0 -13 -5 0 -9 -16 -9 -35 0 -19 4 -35 8 -35 5 0 5 -8 0 -17 -10 -22
-8 -1475 3 -1520 4 -18 11 -33 16 -33 5 0 9 -7 9 -15 0 -13 12 -19 25 -12 2 1
10 -6 17 -16 8 -10 29 -21 48 -25 19 -4 250 -7 513 -7 405 1 480 3 488 16 6
10 9 10 9 1 0 -9 8 -7 27 5 16 11 24 13 19 5 -6 -10 -4 -11 10 -4 11 5 49 23
87 41 37 17 67 35 67 41 0 5 3 9 8 8 12 -4 62 38 62 53 0 7 3 10 6 6 9 -8 23
8 72 80 44 64 95 202 86 228 -4 8 -2 15 3 15 5 0 8 16 8 35 0 19 -4 35 -9 35
-5 0 -3 6 3 13 6 8 8 17 4 21 -4 3 -8 25 -9 48 -1 22 -6 44 -11 47 -8 6 -14
24 -16 53 -1 10 -5 18 -9 18 -4 0 -8 7 -8 16 0 9 -5 12 -12 8 -7 -4 -10 -4 -6
1 4 4 1 19 -7 34 -15 29 -113 137 -123 135 -4 -1 -19 11 -34 26 l-27 26 54 59
c30 32 53 61 50 63 -2 2 7 19 21 37 13 18 26 46 27 63 1 16 5 28 10 25 7 -4
12 26 9 60 -1 10 1 16 6 14 4 -3 8 30 9 74 1 43 -1 79 -5 79 -4 0 -8 19 -9 41
-2 23 -7 47 -12 53 -5 6 -12 26 -16 44 -3 17 -11 32 -16 32 -5 0 -15 16 -23
35 -8 19 -22 38 -31 41 -8 3 -15 12 -15 19 0 22 -25 36 -39 22 -10 -9 -11 -9
-6 4 8 22 -69 87 -97 81 -5 -1 -8 3 -8 8 0 6 -4 10 -9 10 -5 0 -26 7 -47 17
-22 9 -52 18 -68 20 -17 2 -34 9 -38 16 -6 9 -8 9 -8 -1 0 -8 -5 -10 -12 -6
-7 4 -214 8 -460 8 -337 1 -456 -2 -481 -12z m414 -299 c13 -17 13 -17 -6 -3
-11 8 -22 16 -24 17 -2 2 0 3 6 3 6 0 17 -8 24 -17z m489 -57 c0 -2 -8 -10
-17 -17 -16 -13 -17 -12 -4 4 13 16 21 21 21 13z m-9 -103 c13 -16 12 -17 -3
-4 -10 7 -18 15 -18 17 0 8 8 3 21 -13z m120 -200 c13 -16 12 -17 -3 -4 -10 7
-18 15 -18 17 0 8 8 3 21 -13z"/>
</g>
</svg>
