<?xml version="1.0" standalone="no"?>
<!DOCTYPE svg PUBLIC "-//W3C//DTD SVG 20010904//EN"
 "http://www.w3.org/TR/2001/REC-SVG-20010904/DTD/svg10.dtd">
<svg version="1.0" xmlns="http://www.w3.org/2000/svg"
 width="1152.000000pt" height="1152.000000pt" viewBox="0 0 1152.000000 1152.000000"
 preserveAspectRatio="xMidYMid meet">
<metadata>
Created by potrace 1.11, written by Peter Selinger 2001-2013
</metadata>
<g transform="translate(0.000000,1152.000000) scale(0.100000,-0.100000)"
fill="#000000" stroke="none">
<path d="M2099 11516 c-2 -2 -26 -6 -54 -9 -27 -3 -57 -8 -65 -11 -8 -3 -28
-7 -45 -10 -16 -2 -51 -11 -77 -19 -26 -8 -49 -12 -52 -9 -4 3 -6 -1 -6 -8 0
-7 -3 -11 -6 -8 -14 14 -211 -81 -321 -156 -96 -64 -293 -257 -293 -286 0 -6
-4 -10 -10 -10 -5 0 -10 -7 -10 -15 0 -8 -4 -15 -8 -15 -22 0 -145 -272 -158
-350 -3 -14 -7 -32 -10 -40 -3 -8 -9 -35 -12 -60 -9 -61 -9 -9404 0 -9460 4
-25 12 -60 17 -78 5 -18 10 -36 10 -40 2 -18 34 -121 48 -152 49 -112 133
-253 185 -311 71 -80 89 -98 134 -139 80 -72 174 -140 192 -140 6 0 12 -3 14
-8 8 -18 253 -124 318 -137 3 -1 19 -4 35 -8 39 -10 70 -16 125 -25 61 -10
5111 -9 5225 1 92 8 139 13 198 22 137 19 169 25 222 35 28 6 61 13 75 15 14
3 41 8 60 11 19 3 38 8 42 11 5 2 16 6 25 8 10 3 36 9 58 15 22 6 49 13 60 15
11 3 51 15 90 27 38 12 72 23 75 23 40 10 67 19 75 25 6 4 35 15 65 25 30 10
58 23 62 29 4 6 8 8 8 4 0 -7 37 7 130 49 74 34 103 46 113 47 4 1 11 6 15 11
4 6 13 11 20 13 25 5 306 167 330 189 6 6 21 15 32 18 11 3 20 10 20 14 0 4
11 13 24 19 14 6 33 18 43 26 10 8 50 38 88 67 39 29 72 55 75 59 3 3 25 21
50 40 128 99 373 350 491 505 13 17 26 32 29 35 3 3 15 19 27 37 115 164 143
204 143 207 0 2 25 44 55 94 30 50 55 96 55 101 0 5 3 11 8 13 16 7 153 301
151 324 0 4 4 10 10 13 6 4 12 16 14 26 1 11 5 25 9 30 7 12 67 181 73 205 2
8 10 35 18 60 15 44 36 120 42 150 2 8 8 35 15 60 13 48 15 57 25 116 8 47 13
69 15 69 1 0 3 11 4 25 1 14 6 48 10 75 25 168 30 253 30 470 0 183 -6 305
-19 378 -3 15 -7 49 -9 75 -2 26 -6 58 -10 72 -3 14 -8 36 -10 50 -2 14 -7 36
-10 50 -3 14 -8 36 -10 50 -19 111 -115 422 -166 535 -5 11 -27 60 -50 108
-22 49 -40 93 -40 98 0 5 -5 9 -12 9 -6 0 -8 3 -5 6 4 4 -3 20 -14 35 -11 16
-17 29 -13 29 3 0 2 6 -4 13 -9 11 -33 51 -66 112 -6 11 -32 53 -59 93 -26 40
-47 75 -47 77 0 3 -6 13 -14 22 -8 10 -42 55 -75 100 -33 46 -70 92 -81 103
-11 11 -17 20 -14 20 3 0 -1 6 -8 14 -7 7 -33 37 -58 66 -86 102 -308 319
-429 419 l-53 45 31 28 c25 22 29 30 16 34 -24 10 -19 21 43 92 31 37 66 80
77 96 11 16 25 33 30 40 6 6 30 40 55 76 24 36 48 67 52 68 4 2 8 7 8 12 0 4
27 51 61 104 80 129 232 429 218 432 -2 0 3 9 11 18 8 10 15 23 17 30 1 6 23
67 49 136 25 69 48 134 51 145 5 25 9 36 16 55 3 8 9 29 13 45 4 17 8 35 10
40 1 6 4 22 7 37 3 15 9 32 12 38 4 6 9 27 11 48 3 20 7 45 10 54 7 23 10 42
24 133 6 44 13 91 16 105 19 117 27 554 11 685 -3 33 -9 83 -12 110 -6 55 -12
95 -21 138 -3 16 -7 38 -9 50 -1 12 -5 33 -9 47 -3 14 -8 36 -10 50 -16 89
-109 401 -145 485 -5 11 -24 56 -42 100 -39 92 -162 337 -190 377 -11 14 -19
29 -19 32 0 4 -5 12 -10 19 -6 7 -35 49 -65 94 -59 92 -183 256 -197 261 -4 2
-8 7 -8 12 0 10 -19 31 -165 180 -60 62 -128 126 -149 144 -21 17 -51 43 -66
57 -34 32 -256 199 -265 199 -4 0 -13 6 -20 13 -35 30 -50 42 -52 39 -2 -1
-13 4 -26 12 -62 39 -157 94 -202 116 -27 14 -52 28 -53 33 -2 4 -8 5 -13 1
-5 -3 -9 0 -9 5 0 6 -3 10 -7 9 -5 -1 -43 14 -86 35 -44 20 -81 37 -83 37 -3
0 -24 8 -47 19 -44 19 -75 32 -92 37 -122 41 -289 95 -292 95 -2 1 -26 7 -55
15 -65 18 -183 44 -223 50 -16 3 -41 7 -55 11 -14 3 -33 7 -42 8 -10 2 -21 4
-25 5 -5 1 -19 1 -32 0 -13 -1 -21 2 -18 7 3 4 -14 9 -36 9 -43 2 -127 10
-207 21 -50 7 -4964 16 -4971 9z m4911 -700 c110 -11 211 -25 250 -32 14 -3
32 -6 40 -6 15 0 235 -51 300 -69 46 -13 73 -20 85 -22 6 -2 15 -5 20 -8 6 -4
28 -12 50 -18 22 -7 49 -16 60 -21 118 -48 244 -103 279 -122 53 -28 115 -64
148 -85 21 -12 42 -23 48 -23 5 0 10 -4 10 -8 0 -5 11 -14 23 -19 22 -10 196
-138 256 -188 98 -82 320 -321 359 -387 9 -16 20 -28 24 -28 4 0 8 -6 8 -14 0
-8 4 -16 8 -18 11 -4 92 -124 92 -137 0 -5 3 -11 7 -13 18 -8 186 -347 186
-375 0 -7 4 -13 9 -13 4 0 7 -3 6 -7 -2 -8 30 -111 41 -128 3 -5 6 -14 8 -20
1 -5 4 -19 7 -30 39 -141 65 -252 61 -262 -2 -7 -1 -13 4 -13 4 0 8 -6 8 -12
1 -7 4 -31 7 -53 13 -91 17 -123 22 -185 8 -93 11 -363 5 -375 -3 -5 -6 -28
-7 -50 -2 -57 -14 -167 -19 -175 -2 -4 -7 -31 -10 -61 -4 -29 -10 -58 -14 -64
-4 -5 -7 -17 -6 -25 1 -8 -3 -28 -8 -45 -4 -16 -10 -41 -13 -55 -12 -57 -120
-365 -142 -406 -6 -10 -34 -66 -63 -124 -28 -58 -63 -124 -78 -148 -61 -98
-135 -207 -142 -210 -5 -2 -9 -8 -9 -14 0 -8 -46 -70 -85 -114 -5 -7 -24 -29
-41 -50 -18 -22 -63 -72 -101 -113 l-70 -73 -54 25 c-108 49 -155 70 -194 87
-22 10 -65 29 -95 43 -30 13 -77 35 -105 47 -27 12 -72 32 -100 45 -132 61
-207 95 -211 95 -3 0 -39 16 -80 35 -41 19 -79 35 -84 35 -6 0 -10 4 -10 8 0
4 -10 8 -21 9 -12 1 -30 10 -40 19 -11 9 -19 14 -19 11 0 -3 -39 12 -87 35
-95 43 -125 57 -308 139 -66 30 -122 54 -125 55 -3 0 -45 19 -93 42 -49 23
-91 42 -93 42 -3 0 -37 15 -77 34 -64 31 -123 57 -137 61 -3 1 -40 18 -83 38
-43 20 -80 37 -82 37 -2 0 -43 18 -92 41 -48 22 -104 47 -123 56 -19 8 -52 23
-73 34 -22 10 -45 19 -53 19 -8 0 -14 5 -14 10 0 6 -6 10 -14 10 -8 0 -47 15
-88 34 -92 43 -182 83 -233 106 -22 10 -67 30 -100 45 -33 14 -73 32 -90 40
-16 7 -59 26 -95 43 -36 17 -126 57 -200 90 -233 103 -274 122 -305 139 -16
10 -32 17 -35 16 -3 -1 -25 8 -50 19 -145 67 -218 99 -230 103 -3 1 -35 16
-73 33 -37 18 -70 32 -73 32 -3 0 -42 17 -87 38 -127 59 -162 76 -167 77 -3 1
-25 11 -50 22 -25 11 -128 58 -230 103 -102 45 -212 94 -245 110 -33 15 -80
37 -105 48 -133 59 -352 157 -400 179 -30 14 -86 39 -125 55 -38 17 -74 34
-80 39 -5 5 -17 9 -27 9 -10 0 -18 5 -18 10 0 6 -6 10 -14 10 -8 0 -54 18
-103 41 -48 22 -108 49 -133 60 -25 11 -53 24 -62 29 -10 6 -25 10 -33 10 -8
0 -15 5 -15 10 0 6 -6 10 -13 10 -7 0 -35 11 -63 24 -27 13 -107 49 -179 81
-71 31 -163 73 -205 92 -41 19 -88 40 -105 48 -16 7 -52 23 -80 35 -27 12 -90
40 -140 62 -49 22 -94 43 -100 46 -5 4 -12 7 -15 8 -6 1 -72 30 -116 50 l-30
15 2 442 c1 243 4 453 8 467 3 14 20 54 37 89 54 109 174 211 304 258 40 15
55 18 130 32 51 9 4788 7 4875 -3z m-5320 -2062 c7 -1 85 -36 140 -63 24 -11
50 -21 57 -21 7 0 13 -4 13 -10 0 -5 6 -10 14 -10 8 0 27 -6 43 -14 26 -13
123 -57 168 -77 11 -4 68 -31 128 -58 59 -28 109 -49 110 -49 1 1 34 -14 72
-32 137 -64 274 -123 288 -124 4 -1 11 -5 15 -11 4 -5 13 -11 19 -12 12 -3
163 -69 268 -118 140 -65 291 -130 297 -127 5 1 8 -2 8 -7 0 -8 37 -24 53 -22
4 1 7 -4 7 -10 0 -5 5 -7 11 -3 6 3 14 2 18 -3 3 -5 29 -19 56 -30 28 -12 73
-32 100 -44 28 -13 53 -22 58 -21 4 1 7 -2 7 -8 0 -5 4 -10 10 -10 8 0 210
-87 335 -145 28 -13 70 -32 95 -43 25 -11 75 -34 113 -50 37 -17 68 -30 70
-30 1 1 13 -5 27 -12 14 -8 28 -14 32 -15 4 0 13 -6 20 -12 6 -7 18 -13 25
-13 12 0 56 -19 233 -102 47 -22 90 -41 96 -42 7 -1 19 -8 28 -15 9 -7 16 -11
16 -8 0 3 48 -17 108 -44 59 -28 121 -56 137 -64 97 -43 137 -60 195 -87 36
-16 74 -33 85 -38 11 -5 49 -22 85 -38 36 -16 67 -29 70 -28 3 0 19 -7 35 -17
17 -9 53 -26 80 -38 28 -12 79 -35 115 -51 36 -17 124 -56 195 -88 72 -32 157
-70 190 -85 33 -15 83 -37 110 -50 28 -12 73 -32 100 -45 108 -49 140 -63 145
-65 26 -9 205 -90 232 -105 10 -6 25 -10 33 -10 8 0 15 -4 15 -10 0 -5 5 -10
11 -10 6 0 52 -18 102 -41 51 -23 112 -50 137 -61 25 -11 68 -31 95 -43 28
-13 73 -33 100 -45 28 -13 70 -32 95 -43 25 -11 47 -21 50 -22 3 0 16 -7 30
-15 14 -8 30 -15 36 -16 6 -1 46 -18 87 -38 42 -20 78 -36 81 -36 5 0 175 -77
198 -90 10 -6 25 -10 33 -10 8 0 15 -4 15 -10 0 -5 5 -10 12 -10 6 0 31 -9 55
-20 68 -32 127 -57 146 -63 27 -10 20 -21 -25 -45 -24 -12 -63 -34 -88 -48
-25 -15 -66 -39 -92 -53 -26 -14 -111 -63 -190 -107 -79 -45 -160 -91 -180
-103 -53 -30 -105 -59 -163 -93 -27 -16 -58 -32 -67 -35 -10 -3 -18 -10 -18
-15 0 -5 -4 -6 -10 -3 -5 3 -10 1 -10 -4 0 -6 -5 -11 -11 -11 -6 0 -36 -15
-67 -34 -74 -44 -136 -79 -192 -108 -25 -13 -47 -26 -50 -29 -3 -3 -36 -23
-75 -44 -38 -21 -79 -43 -90 -49 -11 -6 -23 -15 -27 -21 -4 -5 -8 -6 -8 -1 0
5 -8 2 -17 -6 -10 -8 -54 -35 -98 -59 -44 -24 -88 -48 -97 -54 -9 -5 -29 -17
-45 -26 -125 -68 -239 -135 -241 -141 -2 -4 -10 -8 -17 -8 -8 0 -34 -13 -57
-29 -24 -16 -46 -27 -50 -25 -5 3 -8 1 -8 -3 0 -5 -17 -17 -37 -28 -45 -23
-119 -65 -223 -126 -41 -24 -77 -44 -80 -44 -3 0 -16 -8 -30 -16 -56 -36 -215
-123 -219 -120 -2 1 -8 -4 -13 -13 -5 -9 -13 -14 -17 -11 -5 2 -14 -2 -21 -10
-7 -8 -16 -15 -20 -15 -5 0 -47 -23 -95 -50 -48 -28 -91 -50 -96 -50 -5 0 -9
-4 -9 -10 0 -5 -6 -10 -14 -10 -7 0 -25 -9 -38 -20 -14 -10 -28 -16 -32 -13
-3 3 -6 1 -6 -5 0 -7 -4 -12 -9 -12 -5 0 -111 -58 -236 -130 -126 -71 -232
-130 -237 -130 -4 0 -8 -5 -8 -11 0 -5 -4 -8 -9 -5 -5 3 -14 -1 -21 -9 -7 -8
-16 -15 -21 -15 -5 0 -39 -18 -75 -40 -36 -22 -70 -40 -74 -40 -5 0 -10 -3
-12 -7 -1 -5 -25 -19 -51 -33 -27 -14 -56 -30 -65 -35 -66 -40 -186 -105 -193
-105 -5 0 -9 -4 -9 -10 0 -5 -5 -10 -11 -10 -6 0 -37 -15 -68 -34 -31 -19 -72
-43 -91 -53 -19 -11 -105 -60 -190 -108 -85 -48 -168 -95 -185 -103 -16 -9
-32 -18 -35 -21 -3 -4 -23 -15 -45 -26 -22 -11 -42 -22 -45 -25 -8 -8 -63 -39
-92 -52 -16 -7 -28 -16 -28 -20 0 -4 -6 -8 -12 -8 -7 0 -50 -22 -95 -49 -46
-27 -83 -46 -83 -43 0 4 -4 2 -8 -4 -4 -6 -32 -24 -62 -41 -30 -17 -95 -54
-145 -82 -49 -29 -94 -53 -100 -54 -5 -1 -12 -5 -15 -8 -3 -3 -25 -17 -50 -31
-142 -79 -167 -93 -189 -110 -13 -10 -27 -15 -32 -12 -5 3 -9 0 -9 -5 0 -6 -7
-11 -15 -11 -8 0 -15 -4 -15 -9 0 -5 -9 -12 -20 -16 -11 -3 -56 -27 -101 -53
-44 -26 -108 -62 -141 -80 -33 -18 -74 -42 -91 -53 -18 -10 -48 -27 -67 -36
-19 -10 -41 -24 -48 -31 -7 -6 -20 -12 -28 -12 -8 0 -14 -5 -14 -11 0 -5 -4
-7 -10 -4 -5 3 -10 1 -10 -4 0 -6 -4 -11 -9 -11 -5 0 -47 -22 -93 -48 l-84
-49 2 3211 c0 1766 2 3212 3 3214 0 2 7 0 14 -5 6 -4 14 -8 17 -9z m7056
-3199 c3 -8 14 -17 23 -20 10 -3 26 -13 37 -23 10 -9 45 -37 77 -61 31 -24 57
-47 57 -52 0 -5 4 -9 9 -9 11 0 32 -19 152 -137 105 -103 136 -136 179 -193
19 -25 38 -47 41 -50 9 -7 109 -140 109 -145 0 -2 18 -30 39 -63 62 -93 135
-228 180 -332 13 -30 31 -71 39 -90 9 -19 17 -41 19 -47 2 -7 5 -19 7 -25 17
-53 19 -63 17 -67 -2 -2 2 -7 7 -10 6 -3 12 -19 15 -36 3 -16 11 -46 17 -65
24 -74 66 -281 75 -375 8 -74 19 -242 17 -260 -1 -11 -1 -33 -1 -50 1 -16 1
-43 1 -60 0 -39 -11 -200 -17 -245 -3 -19 -7 -53 -9 -75 -2 -22 -12 -76 -21
-120 -9 -44 -19 -88 -20 -98 -2 -10 -14 -52 -25 -95 -12 -42 -23 -81 -24 -87
-4 -20 -39 -121 -52 -150 -7 -16 -26 -61 -42 -100 -44 -105 -85 -189 -95 -196
-5 -3 -7 -8 -6 -10 5 -6 -67 -133 -113 -201 -21 -31 -38 -61 -38 -67 0 -5 -4
-11 -8 -13 -5 -1 -22 -23 -39 -48 -17 -25 -43 -58 -57 -75 -14 -16 -26 -33
-26 -36 0 -3 -10 -17 -22 -31 -13 -14 -45 -51 -73 -83 -74 -85 -210 -219 -306
-300 -93 -79 -339 -251 -339 -237 0 4 -4 2 -8 -4 -8 -12 -113 -73 -126 -72 -5
0 -12 -4 -15 -9 -8 -12 -158 -83 -175 -83 -8 0 -19 -7 -26 -15 -7 -9 -15 -13
-18 -11 -3 3 -17 -1 -31 -9 -25 -14 -161 -64 -191 -70 -8 -2 -16 -4 -17 -4 -2
-1 -5 -1 -8 -1 -3 0 -22 -7 -42 -15 -37 -14 -217 -59 -277 -69 -16 -3 -52 -10
-80 -15 -94 -18 -227 -34 -303 -35 -29 -1 -53 -3 -53 -7 0 -9 -5011 -4 -5055
5 -22 5 -46 13 -52 19 -7 5 -13 7 -13 3 0 -4 -19 3 -43 15 -23 12 -43 21 -45
20 -4 -3 -106 66 -133 91 -39 35 -97 115 -119 164 -39 84 -46 137 -45 335 0
181 1 192 20 203 11 6 22 14 25 17 3 3 20 12 37 20 18 8 33 17 33 21 0 5 6 8
13 8 7 0 29 11 50 25 20 14 37 22 37 18 0 -4 4 -3 8 3 4 6 27 22 52 36 62 34
408 230 559 317 68 39 126 71 128 71 2 0 27 15 56 33 29 18 71 41 94 52 24 11
43 23 43 28 0 4 4 7 9 7 4 0 51 25 104 55 52 30 100 55 106 55 6 0 11 4 11 9
0 5 8 11 18 14 9 4 44 22 77 42 33 20 72 41 88 46 15 6 27 15 27 19 0 5 16 14
35 20 19 6 35 15 35 19 0 3 12 12 28 19 15 6 43 21 62 33 19 12 56 33 82 46
26 13 50 28 53 33 4 6 11 8 16 5 5 -4 9 -1 9 4 0 6 7 11 15 11 8 0 15 5 15 10
0 6 5 10 10 10 9 0 200 106 340 189 19 11 51 28 70 38 19 9 37 20 40 23 3 4
34 22 70 42 72 38 119 65 290 162 63 36 120 69 125 73 6 4 26 16 45 25 19 10
58 30 85 46 28 16 66 38 85 49 19 11 73 42 120 69 47 27 99 56 115 64 17 8 36
21 43 28 7 6 20 12 28 12 8 0 14 3 14 8 0 4 19 16 43 26 23 11 49 25 57 32 8
6 38 24 65 38 28 15 57 31 65 36 8 6 65 38 125 71 61 34 128 72 150 84 22 13
80 46 128 74 49 28 93 51 98 51 5 0 9 4 9 9 0 5 11 12 25 15 14 4 25 11 25 16
0 6 8 10 19 10 10 0 24 7 31 15 7 8 16 15 21 15 5 0 28 12 52 27 23 15 60 36
82 48 53 28 137 76 150 85 6 4 35 21 65 37 30 17 78 43 105 58 28 16 59 33 70
39 11 6 22 13 25 16 3 3 21 14 40 24 19 11 53 29 75 41 22 12 96 54 164 93 68
40 125 72 127 72 3 0 22 11 44 25 22 14 40 22 40 18 0 -5 4 -3 8 3 7 12 41 32
152 92 36 19 72 40 80 46 8 7 29 18 45 26 17 8 32 17 35 20 3 3 23 15 45 27
22 11 56 30 75 42 19 11 55 30 80 43 25 13 47 26 50 29 3 4 25 17 50 29 25 12
47 25 50 29 3 3 18 13 35 21 16 8 115 64 220 123 104 60 213 122 240 137 28
15 115 65 195 110 80 46 159 90 175 98 17 9 32 18 35 21 3 4 30 19 60 35 30
16 69 39 85 52 36 27 44 29 51 9z"/>
</g>
</svg>
